<svg width="1308" height="1568" viewBox="0 0 1308 1568" fill="none" xmlns="http://www.w3.org/2000/svg">
<path fill-rule="evenodd" clip-rule="evenodd" d="M117.977 0.164846C111.543 0.247267 105.109 0.329687 98.6818 0.329687L98.7215 0.369379C91.3404 0.369379 83.9548 0.351745 76.5678 0.334108C61.7894 0.298823 47.005 0.263524 32.2383 0.369379C8.7807 0.528145 0.0882715 8.6649 0.00888859 31.6066C-0.0374181 53.3939 0.105361 75.1813 0.24814 96.9686C0.350125 112.531 0.45211 128.093 0.485186 143.656C0.485186 156.079 2.86667 167.312 15.7664 172.313C28.1104 177.155 38.1127 172.194 47.4799 163.74C50.6092 160.917 53.7381 158.094 56.8669 155.271C98.3045 117.885 139.724 80.5151 181.796 43.8316C192.671 34.3453 194.14 22.7157 189.417 12.6737C186.479 6.44218 174.929 1.44105 166.872 0.885368C150.641 -0.25361 134.309 -0.0443792 117.977 0.164846ZM1.35694 513.515C1.35694 503.458 1.40412 493.401 1.45128 483.346C1.56011 460.144 1.66892 436.947 1.19818 413.77C0.642499 386.304 12.7484 364.077 30.0142 344.985C141.547 221.664 265.9 112.75 403.789 19.8719C421.451 7.96449 446.1 1.73292 467.732 1.21693C530.267 -0.239987 592.842 -0.0356155 655.414 0.168749C681.486 0.253899 707.557 0.339048 733.625 0.304026C747.953 0.304026 761.329 1.97107 764.981 18.6415C768.513 34.7959 762.321 45.6714 746.643 53.57C542.471 155.974 361.477 290.092 205.689 457.074C167.025 498.504 131.31 542.703 95.6067 586.889L95.6031 586.893C81.0941 604.849 66.5869 622.803 51.8842 640.568C36.206 659.54 19.4959 662.835 7.39005 646.521C2.66676 640.171 0.999722 630.367 0.840956 622.071C0.348542 595.684 0.426856 569.275 0.505141 542.876C0.534131 533.101 0.563116 523.326 0.563116 513.555H1.35694V513.515ZM1307.91 132.737C1307.9 126.321 1307.88 119.905 1307.88 113.49L1307.92 113.53C1307.92 107.328 1307.94 101.126 1307.96 94.9235C1308 81.2798 1308.05 67.6361 1307.88 53.9924C1307.45 20.8103 1286.21 3.46509 1254.14 10.3714C1226.95 16.2061 1199.84 22.3186 1172.85 29.0661C962.369 81.6177 767.881 169.931 589.428 293.134C350.644 457.973 161.316 667.861 22.3165 922.8C12.9493 939.946 6.08271 961.142 6.36055 980.313C7.35284 1054.06 31.2074 1122.57 60.8966 1189.29C67.2472 1203.58 75.0268 1214.89 92.7688 1213.98C109.28 1213.1 116.226 1202.15 122.379 1188.42C126.964 1178.19 131.499 1167.93 136.035 1157.67C152.466 1120.51 168.909 1083.33 187.79 1047.43C348.501 741.965 582.839 510.405 889.495 352.393C1010.87 289.839 1138.72 244.948 1272.04 215.537C1296.85 210.099 1307.68 196.525 1307.88 171.281C1307.96 158.419 1307.94 145.575 1307.91 132.737ZM1307.9 467.259V467.264C1307.92 480.111 1307.93 492.963 1307.88 505.798C1307.76 532.749 1298.55 544.537 1272.08 552.039C1073.23 608.163 897.631 706.24 745.89 846.391C600.937 980.271 492.143 1139.31 420.103 1323.13C405.508 1360.38 393.635 1398.73 381.793 1436.98L380.411 1441.45C368.266 1480.7 342.149 1491.85 307.736 1468.6C277.848 1448.39 249.39 1426.01 221.169 1403.58C213.27 1397.31 207.317 1387.94 202.197 1378.97C192.75 1362.46 194.179 1346.11 200.609 1327.65C356.954 879.335 655.433 567.836 1097.28 394.583C1127.81 382.619 1159.29 373.09 1190.78 363.563L1190.79 363.561L1190.79 363.56L1190.8 363.559C1204.95 359.275 1219.11 354.991 1233.18 350.485C1238.18 348.898 1243.26 347.667 1248.38 346.516C1287.2 337.586 1307.92 354.018 1307.96 393.749V448.047L1307.88 448.007C1307.88 454.421 1307.89 460.84 1307.9 467.259ZM1307.9 809.516V809.512V809.507V809.503V809.499C1307.89 803.088 1307.88 796.678 1307.88 790.269L1307.84 790.308V734.304C1307.76 692.786 1284.38 675.6 1245.41 688.896C1076.12 746.568 927.439 838.018 800.427 963.84C650.115 1112.72 547.83 1289.87 492.897 1494.36C483.094 1530.83 493.771 1550.6 531.597 1556.39C570.335 1562.35 609.63 1565.09 648.766 1567.47C675.399 1569.1 687.147 1558.42 695.086 1532.42C695.546 1530.91 696.005 1529.4 696.465 1527.9C703.702 1504.15 710.959 1480.34 719.655 1457.09C782.844 1288.04 886.002 1148.05 1027.46 1036.32C1102.99 976.66 1185.99 930.102 1275.77 895.491C1300.5 885.965 1307.76 875.208 1307.88 848.059C1307.93 835.198 1307.92 822.354 1307.9 809.516ZM1286.43 1079.29L1286.43 1079.28C1287.84 1074.17 1289.11 1069.53 1290.26 1065.56L1290.22 1065.6C1290.73 1036.03 1277.6 1029.08 1256.04 1039.6C1173.65 1079.73 1099.38 1131.57 1034.01 1195.87C947.602 1280.85 882.627 1380.08 838.848 1493.16C838.108 1495.07 837.273 1496.99 836.438 1498.9C831.945 1509.22 827.441 1519.55 837.617 1530.03C847.947 1540.63 858.766 1536.27 869.315 1532.02C871.169 1531.27 873.015 1530.53 874.848 1529.87C991.818 1487.88 1088.82 1417.78 1166.34 1320.9C1214.01 1261.32 1250.01 1195.15 1273.75 1122.56C1278.72 1107.34 1282.96 1091.9 1286.43 1079.29L1286.43 1079.29Z" fill="url(#paint0_linear_143_150)"/>
<defs>
<linearGradient id="paint0_linear_143_150" x1="95.9813" y1="0" x2="95.9813" y2="1567.57" gradientUnits="userSpaceOnUse">
<stop stop-color="#3A3C3A"/>
<stop offset="1" stop-color="#ABBA27"/>
</linearGradient>
</defs>
</svg>
