<svg width="16" height="18" viewBox="0 0 16 18" fill="none" xmlns="http://www.w3.org/2000/svg">
<path d="M9.63159 13.175L9.27804 12.8215C9.45528 12.6442 9.68485 12.5403 9.94584 12.5403C10.2068 12.5403 10.4364 12.6442 10.6136 12.8215C10.7909 12.9987 10.8948 13.2283 10.8948 13.4893C10.8948 13.7502 10.7909 13.9798 10.6136 14.1571L10.2601 13.8035M9.63159 13.175L10.2601 13.8035M9.63159 13.175L9.27803 12.8215C9.10079 12.9987 8.99691 13.2283 8.99691 13.4893C8.99691 13.7502 9.10079 13.9798 9.27803 14.1571L9.63159 13.8035M9.63159 13.175V13.8035M10.2601 13.8035L10.6136 14.1571C10.4364 14.3343 10.2068 14.4382 9.94584 14.4382C9.68485 14.4382 9.45528 14.3343 9.27804 14.1571L9.63159 13.8035M10.2601 13.8035H9.63159M9.63159 13.8035L9.90653 13.5286L9.63159 13.8035ZM5.59126 13.8035L5.2377 14.1571C5.06046 13.9798 4.95658 13.7502 4.95658 13.4893C4.95658 13.2283 5.06046 12.9987 5.2377 12.8215C5.41495 12.6442 5.64452 12.5403 5.90551 12.5403C6.16649 12.5403 6.39606 12.6442 6.57331 12.8215C6.75055 12.9987 6.85443 13.2283 6.85443 13.4893C6.85443 13.7502 6.75055 13.9798 6.57331 14.1571L6.21975 13.8035M5.59126 13.8035H6.21975M5.59126 13.8035L5.2377 14.1571C5.41495 14.3343 5.64452 14.4382 5.90551 14.4382C6.16649 14.4382 6.39607 14.3343 6.57331 14.1571L6.21975 13.8035M5.59126 13.8035H6.21975M5.59126 13.8035L5.8662 13.5286L5.59126 13.8035ZM9.95692 13.4395C9.95124 13.4383 9.94733 13.4382 9.94584 13.4382C9.94435 13.4382 9.94043 13.4383 9.93476 13.4395C9.92902 13.4406 9.92299 13.4425 9.91723 13.4449C9.91244 13.447 9.90901 13.449 9.90689 13.4503C9.90554 13.4524 9.90357 13.4559 9.90152 13.4606C9.89905 13.4664 9.8972 13.4724 9.89606 13.4782C9.89492 13.4839 9.89476 13.4878 9.89476 13.4893C9.89476 13.4907 9.89492 13.4947 9.89606 13.5003C9.8972 13.5061 9.89905 13.5121 9.90152 13.5179L9.95692 13.4395ZM9.95692 13.4395C9.96265 13.4406 9.96868 13.4425 9.97445 13.4449M9.95692 13.4395L9.97445 13.4449M9.97445 13.4449C9.97923 13.447 9.98266 13.449 9.98479 13.4503M9.97445 13.4449L9.98479 13.4503M9.98479 13.4503C9.98614 13.4524 9.9881 13.4559 9.99015 13.4606M9.98479 13.4503L9.99015 13.4606M9.99015 13.4606C9.99263 13.4664 9.99447 13.4724 9.99562 13.4782M9.99015 13.4606L9.99562 13.4782M9.99562 13.4782C9.99675 13.4839 9.99691 13.4878 9.99691 13.4893M9.99562 13.4782L9.99691 13.4893M9.99691 13.4893C9.99691 13.4907 9.99675 13.4947 9.99562 13.5003M9.99691 13.4893L9.99562 13.5003M9.99562 13.5003C9.99447 13.5061 9.99263 13.5121 9.99015 13.5179M9.99562 13.5003L9.99015 13.5179M9.99015 13.5179C9.9881 13.5227 9.98614 13.5261 9.98479 13.5282L9.99015 13.5179ZM13.3128 6.80645H14.5199L13.6663 5.95289L9.17708 1.46363L8.32352 0.610081V1.81719V5.40859C8.32352 5.7889 8.45778 6.13127 8.72855 6.40142C8.99869 6.67219 9.34107 6.80645 9.72137 6.80645H13.3128ZM5.90551 13.4382C5.907 13.4382 5.91091 13.4383 5.91658 13.4395C5.92232 13.4406 5.92835 13.4425 5.93412 13.4449C5.9389 13.447 5.94233 13.449 5.94446 13.4503C5.94581 13.4524 5.94777 13.4559 5.94982 13.4606C5.95229 13.4664 5.95414 13.4724 5.95529 13.4782C5.95642 13.4839 5.95658 13.4878 5.95658 13.4893C5.95658 13.4907 5.95642 13.4947 5.95529 13.5003C5.95414 13.5061 5.95229 13.5121 5.94982 13.5179C5.94777 13.5227 5.94581 13.5261 5.94446 13.5282C5.94233 13.5296 5.9389 13.5315 5.93412 13.5336C5.92835 13.536 5.92232 13.5379 5.91658 13.539C5.91091 13.5402 5.907 13.5403 5.90551 13.5403C5.90402 13.5403 5.9001 13.5402 5.89443 13.539C5.88869 13.5379 5.88266 13.536 5.87689 13.5336C5.87211 13.5315 5.86868 13.5296 5.86655 13.5282C5.8652 13.5261 5.86324 13.5227 5.86119 13.5179C5.85872 13.5121 5.85687 13.5061 5.85572 13.5003C5.85459 13.4947 5.85443 13.4907 5.85443 13.4893C5.85443 13.4878 5.85459 13.4839 5.85572 13.4782C5.85687 13.4724 5.85872 13.4664 5.86119 13.4606C5.86324 13.4559 5.8652 13.4524 5.86655 13.4503C5.86868 13.449 5.87211 13.447 5.87689 13.4449C5.88266 13.4425 5.88869 13.4406 5.89443 13.4395C5.9001 13.4383 5.90401 13.4382 5.90551 13.4382ZM2.53856 17.4785C2.17828 17.4785 1.8826 17.3562 1.62435 17.0979C1.36532 16.8389 1.24286 16.5428 1.24286 16.1828V1.81719C1.24286 1.45716 1.36532 1.1611 1.62435 0.902077C1.8826 0.643828 2.17828 0.521484 2.53856 0.521484H8.98065C9.15566 0.521484 9.31891 0.553917 9.4744 0.618115C9.63087 0.682966 9.76628 0.773492 9.88409 0.891302L14.2387 5.24588C14.3565 5.36372 14.447 5.49915 14.5119 5.65566L14.9738 5.46426L14.5117 5.65521C14.576 5.81081 14.6085 5.97418 14.6085 6.14932V16.1828C14.6085 16.5431 14.4861 16.8392 14.2277 17.0981C13.9688 17.3563 13.6728 17.4785 13.3128 17.4785H2.53856Z" fill="white"/>
<path d="M9.63159 13.175L9.27804 12.8215C9.45528 12.6442 9.68485 12.5403 9.94584 12.5403C10.2068 12.5403 10.4364 12.6442 10.6136 12.8215C10.7909 12.9987 10.8948 13.2283 10.8948 13.4893C10.8948 13.7502 10.7909 13.9798 10.6136 14.1571L10.2601 13.8035M9.63159 13.175L10.2601 13.8035M9.63159 13.175L9.27803 12.8215C9.10079 12.9987 8.99691 13.2283 8.99691 13.4893C8.99691 13.7502 9.10079 13.9798 9.27803 14.1571L9.63159 13.8035M9.63159 13.175V13.8035M10.2601 13.8035L10.6136 14.1571C10.4364 14.3343 10.2068 14.4382 9.94584 14.4382C9.68485 14.4382 9.45528 14.3343 9.27804 14.1571L9.63159 13.8035M10.2601 13.8035H9.63159M9.63159 13.8035L9.90653 13.5286L9.63159 13.8035ZM5.59126 13.8035L5.2377 14.1571C5.06046 13.9798 4.95658 13.7502 4.95658 13.4893C4.95658 13.2283 5.06046 12.9987 5.2377 12.8215C5.41495 12.6442 5.64452 12.5403 5.90551 12.5403C6.16649 12.5403 6.39606 12.6442 6.57331 12.8215C6.75055 12.9987 6.85443 13.2283 6.85443 13.4893C6.85443 13.7502 6.75055 13.9798 6.57331 14.1571L6.21975 13.8035M5.59126 13.8035H6.21975M5.59126 13.8035L5.2377 14.1571C5.41495 14.3343 5.64452 14.4382 5.90551 14.4382C6.16649 14.4382 6.39607 14.3343 6.57331 14.1571L6.21975 13.8035M5.59126 13.8035H6.21975M5.59126 13.8035L5.8662 13.5286L5.59126 13.8035ZM9.95692 13.4395C9.95124 13.4383 9.94733 13.4382 9.94584 13.4382C9.94435 13.4382 9.94043 13.4383 9.93476 13.4395C9.92902 13.4406 9.92299 13.4425 9.91723 13.4449C9.91244 13.447 9.90901 13.449 9.90689 13.4503C9.90554 13.4524 9.90357 13.4559 9.90152 13.4606C9.89905 13.4664 9.8972 13.4724 9.89606 13.4782C9.89492 13.4839 9.89476 13.4878 9.89476 13.4893C9.89476 13.4907 9.89492 13.4947 9.89606 13.5003C9.8972 13.5061 9.89905 13.5121 9.90152 13.5179L9.95692 13.4395ZM9.95692 13.4395C9.96265 13.4406 9.96868 13.4425 9.97445 13.4449M9.95692 13.4395L9.97445 13.4449M9.97445 13.4449C9.97923 13.447 9.98266 13.449 9.98479 13.4503M9.97445 13.4449L9.98479 13.4503M9.98479 13.4503C9.98614 13.4524 9.9881 13.4559 9.99015 13.4606M9.98479 13.4503L9.99015 13.4606M9.99015 13.4606C9.99263 13.4664 9.99447 13.4724 9.99562 13.4782M9.99015 13.4606L9.99562 13.4782M9.99562 13.4782C9.99675 13.4839 9.99691 13.4878 9.99691 13.4893M9.99562 13.4782L9.99691 13.4893M9.99691 13.4893C9.99691 13.4907 9.99675 13.4947 9.99562 13.5003M9.99691 13.4893L9.99562 13.5003M9.99562 13.5003C9.99447 13.5061 9.99263 13.5121 9.99015 13.5179M9.99562 13.5003L9.99015 13.5179M9.99015 13.5179C9.9881 13.5227 9.98614 13.5261 9.98479 13.5282L9.99015 13.5179ZM13.3128 6.80645H14.5199L13.6663 5.95289L9.17708 1.46363L8.32352 0.610081V1.81719V5.40859C8.32352 5.7889 8.45778 6.13127 8.72855 6.40142C8.99869 6.67219 9.34107 6.80645 9.72137 6.80645H13.3128ZM5.90551 13.4382C5.907 13.4382 5.91091 13.4383 5.91658 13.4395C5.92232 13.4406 5.92835 13.4425 5.93412 13.4449C5.9389 13.447 5.94233 13.449 5.94446 13.4503C5.94581 13.4524 5.94777 13.4559 5.94982 13.4606C5.95229 13.4664 5.95414 13.4724 5.95529 13.4782C5.95642 13.4839 5.95658 13.4878 5.95658 13.4893C5.95658 13.4907 5.95642 13.4947 5.95529 13.5003C5.95414 13.5061 5.95229 13.5121 5.94982 13.5179C5.94777 13.5227 5.94581 13.5261 5.94446 13.5282C5.94233 13.5296 5.9389 13.5315 5.93412 13.5336C5.92835 13.536 5.92232 13.5379 5.91658 13.539C5.91091 13.5402 5.907 13.5403 5.90551 13.5403C5.90402 13.5403 5.9001 13.5402 5.89443 13.539C5.88869 13.5379 5.88266 13.536 5.87689 13.5336C5.87211 13.5315 5.86868 13.5296 5.86655 13.5282C5.8652 13.5261 5.86324 13.5227 5.86119 13.5179C5.85872 13.5121 5.85687 13.5061 5.85572 13.5003C5.85459 13.4947 5.85443 13.4907 5.85443 13.4893C5.85443 13.4878 5.85459 13.4839 5.85572 13.4782C5.85687 13.4724 5.85872 13.4664 5.86119 13.4606C5.86324 13.4559 5.8652 13.4524 5.86655 13.4503C5.86868 13.449 5.87211 13.447 5.87689 13.4449C5.88266 13.4425 5.88869 13.4406 5.89443 13.4395C5.9001 13.4383 5.90401 13.4382 5.90551 13.4382ZM2.53856 17.4785C2.17828 17.4785 1.8826 17.3562 1.62435 17.0979C1.36532 16.8389 1.24286 16.5428 1.24286 16.1828V1.81719C1.24286 1.45716 1.36532 1.1611 1.62435 0.902077C1.8826 0.643828 2.17828 0.521484 2.53856 0.521484H8.98065C9.15566 0.521484 9.31891 0.553917 9.4744 0.618115C9.63087 0.682966 9.76628 0.773492 9.88409 0.891302L14.2387 5.24588C14.3565 5.36372 14.447 5.49915 14.5119 5.65566L14.9738 5.46426L14.5117 5.65521C14.576 5.81081 14.6085 5.97418 14.6085 6.14932V16.1828C14.6085 16.5431 14.4861 16.8392 14.2277 17.0981C13.9688 17.3563 13.6728 17.4785 13.3128 17.4785H2.53856Z" stroke="black"/>
<path d="M9.63159 13.175L9.27804 12.8215C9.45528 12.6442 9.68485 12.5403 9.94584 12.5403C10.2068 12.5403 10.4364 12.6442 10.6136 12.8215C10.7909 12.9987 10.8948 13.2283 10.8948 13.4893C10.8948 13.7502 10.7909 13.9798 10.6136 14.1571L10.2601 13.8035M9.63159 13.175L10.2601 13.8035M9.63159 13.175L9.27803 12.8215C9.10079 12.9987 8.99691 13.2283 8.99691 13.4893C8.99691 13.7502 9.10079 13.9798 9.27803 14.1571L9.63159 13.8035M9.63159 13.175V13.8035M10.2601 13.8035L10.6136 14.1571C10.4364 14.3343 10.2068 14.4382 9.94584 14.4382C9.68485 14.4382 9.45528 14.3343 9.27804 14.1571L9.63159 13.8035M10.2601 13.8035H9.63159M9.63159 13.8035L9.90653 13.5286L9.63159 13.8035ZM5.59126 13.8035L5.2377 14.1571C5.06046 13.9798 4.95658 13.7502 4.95658 13.4893C4.95658 13.2283 5.06046 12.9987 5.2377 12.8215C5.41495 12.6442 5.64452 12.5403 5.90551 12.5403C6.16649 12.5403 6.39606 12.6442 6.57331 12.8215C6.75055 12.9987 6.85443 13.2283 6.85443 13.4893C6.85443 13.7502 6.75055 13.9798 6.57331 14.1571L6.21975 13.8035M5.59126 13.8035H6.21975M5.59126 13.8035L5.2377 14.1571C5.41495 14.3343 5.64452 14.4382 5.90551 14.4382C6.16649 14.4382 6.39607 14.3343 6.57331 14.1571L6.21975 13.8035M5.59126 13.8035H6.21975M5.59126 13.8035L5.8662 13.5286L5.59126 13.8035ZM9.95692 13.4395C9.95124 13.4383 9.94733 13.4382 9.94584 13.4382C9.94435 13.4382 9.94043 13.4383 9.93476 13.4395C9.92902 13.4406 9.92299 13.4425 9.91723 13.4449C9.91244 13.447 9.90901 13.449 9.90689 13.4503C9.90554 13.4524 9.90357 13.4559 9.90152 13.4606C9.89905 13.4664 9.8972 13.4724 9.89606 13.4782C9.89492 13.4839 9.89476 13.4878 9.89476 13.4893C9.89476 13.4907 9.89492 13.4947 9.89606 13.5003C9.8972 13.5061 9.89905 13.5121 9.90152 13.5179L9.95692 13.4395ZM9.95692 13.4395C9.96265 13.4406 9.96868 13.4425 9.97445 13.4449M9.95692 13.4395L9.97445 13.4449M9.97445 13.4449C9.97923 13.447 9.98266 13.449 9.98479 13.4503M9.97445 13.4449L9.98479 13.4503M9.98479 13.4503C9.98614 13.4524 9.9881 13.4559 9.99015 13.4606M9.98479 13.4503L9.99015 13.4606M9.99015 13.4606C9.99263 13.4664 9.99447 13.4724 9.99562 13.4782M9.99015 13.4606L9.99562 13.4782M9.99562 13.4782C9.99675 13.4839 9.99691 13.4878 9.99691 13.4893M9.99562 13.4782L9.99691 13.4893M9.99691 13.4893C9.99691 13.4907 9.99675 13.4947 9.99562 13.5003M9.99691 13.4893L9.99562 13.5003M9.99562 13.5003C9.99447 13.5061 9.99263 13.5121 9.99015 13.5179M9.99562 13.5003L9.99015 13.5179M9.99015 13.5179C9.9881 13.5227 9.98614 13.5261 9.98479 13.5282L9.99015 13.5179ZM13.3128 6.80645H14.5199L13.6663 5.95289L9.17708 1.46363L8.32352 0.610081V1.81719V5.40859C8.32352 5.7889 8.45778 6.13127 8.72855 6.40142C8.99869 6.67219 9.34107 6.80645 9.72137 6.80645H13.3128ZM5.90551 13.4382C5.907 13.4382 5.91091 13.4383 5.91658 13.4395C5.92232 13.4406 5.92835 13.4425 5.93412 13.4449C5.9389 13.447 5.94233 13.449 5.94446 13.4503C5.94581 13.4524 5.94777 13.4559 5.94982 13.4606C5.95229 13.4664 5.95414 13.4724 5.95529 13.4782C5.95642 13.4839 5.95658 13.4878 5.95658 13.4893C5.95658 13.4907 5.95642 13.4947 5.95529 13.5003C5.95414 13.5061 5.95229 13.5121 5.94982 13.5179C5.94777 13.5227 5.94581 13.5261 5.94446 13.5282C5.94233 13.5296 5.9389 13.5315 5.93412 13.5336C5.92835 13.536 5.92232 13.5379 5.91658 13.539C5.91091 13.5402 5.907 13.5403 5.90551 13.5403C5.90402 13.5403 5.9001 13.5402 5.89443 13.539C5.88869 13.5379 5.88266 13.536 5.87689 13.5336C5.87211 13.5315 5.86868 13.5296 5.86655 13.5282C5.8652 13.5261 5.86324 13.5227 5.86119 13.5179C5.85872 13.5121 5.85687 13.5061 5.85572 13.5003C5.85459 13.4947 5.85443 13.4907 5.85443 13.4893C5.85443 13.4878 5.85459 13.4839 5.85572 13.4782C5.85687 13.4724 5.85872 13.4664 5.86119 13.4606C5.86324 13.4559 5.8652 13.4524 5.86655 13.4503C5.86868 13.449 5.87211 13.447 5.87689 13.4449C5.88266 13.4425 5.88869 13.4406 5.89443 13.4395C5.9001 13.4383 5.90401 13.4382 5.90551 13.4382ZM2.53856 17.4785C2.17828 17.4785 1.8826 17.3562 1.62435 17.0979C1.36532 16.8389 1.24286 16.5428 1.24286 16.1828V1.81719C1.24286 1.45716 1.36532 1.1611 1.62435 0.902077C1.8826 0.643828 2.17828 0.521484 2.53856 0.521484H8.98065C9.15566 0.521484 9.31891 0.553917 9.4744 0.618115C9.63087 0.682966 9.76628 0.773492 9.88409 0.891302L14.2387 5.24588C14.3565 5.36372 14.447 5.49915 14.5119 5.65566L14.9738 5.46426L14.5117 5.65521C14.576 5.81081 14.6085 5.97418 14.6085 6.14932V16.1828C14.6085 16.5431 14.4861 16.8392 14.2277 17.0981C13.9688 17.3563 13.6728 17.4785 13.3128 17.4785H2.53856Z" stroke="black" stroke-opacity="0.2"/>
</svg>
