<svg width="17" height="18" viewBox="0 0 17 18" fill="none" xmlns="http://www.w3.org/2000/svg">
<path d="M5.1774 17.4482C4.71275 17.4482 4.31512 17.2829 3.98451 16.9523C3.65334 16.6212 3.48776 16.2232 3.48776 15.7586C3.48776 15.2939 3.65334 14.896 3.98451 14.5649C4.31512 14.2342 4.71275 14.0689 5.1774 14.0689C5.64206 14.0689 6.03969 14.2342 6.3703 14.5649C6.70147 14.896 6.86705 15.2939 6.86705 15.7586C6.86705 16.2232 6.70147 16.6212 6.3703 16.9523C6.03969 17.2829 5.64206 17.4482 5.1774 17.4482ZM13.6256 17.4482C13.161 17.4482 12.7634 17.2829 12.4328 16.9523C12.1016 16.6212 11.936 16.2232 11.936 15.7586C11.936 15.2939 12.1016 14.896 12.4328 14.5649C12.7634 14.2342 13.161 14.0689 13.6256 14.0689C14.0903 14.0689 14.4882 14.2342 14.8194 14.5649C15.15 14.896 15.3153 15.2939 15.3153 15.7586C15.3153 16.2232 15.15 16.6212 14.8194 16.9523C14.4882 17.2829 14.0903 17.4482 13.6256 17.4482ZM5.1774 13.2241C4.54379 13.2241 4.06505 12.9459 3.7412 12.3894C3.41735 11.8335 3.40327 11.281 3.69896 10.7319L4.83947 8.66207L1.79811 2.24141H0.932163C0.692796 2.24141 0.495671 2.1603 0.340786 1.9981C0.185902 1.83645 0.108459 1.63595 0.108459 1.39658C0.108459 1.15722 0.189563 0.956429 0.351769 0.794222C0.513412 0.632579 0.713917 0.551758 0.953284 0.551758H2.32612C2.48101 0.551758 2.62885 0.593999 2.76966 0.678482C2.91046 0.762964 3.01606 0.882647 3.08646 1.03753L3.65672 2.24141H16.1179C16.498 2.24141 16.7585 2.38221 16.8993 2.66382C17.0401 2.94543 17.0331 3.24112 16.8782 3.55088L13.8791 8.95776C13.7242 9.23937 13.52 9.45761 13.2666 9.6125C13.0131 9.76738 12.7245 9.84482 12.4007 9.84482H6.10671L5.1774 11.5345H14.4916C14.731 11.5345 14.9281 11.6153 15.083 11.7769C15.2379 11.9391 15.3153 12.1399 15.3153 12.3793C15.3153 12.6187 15.2342 12.8192 15.072 12.9808C14.9103 13.143 14.7098 13.2241 14.4705 13.2241H5.1774Z" fill="white"/>
</svg>
