<svg width="1308" height="1569" viewBox="0 0 1308 1569" fill="none" xmlns="http://www.w3.org/2000/svg">
<path fill-rule="evenodd" clip-rule="evenodd" d="M117.977 0.596975C111.543 0.679396 105.109 0.761816 98.6818 0.761816L98.7215 0.801508C91.3404 0.801508 83.9548 0.783874 76.5678 0.766237C61.7894 0.730952 47.005 0.695653 32.2383 0.801508C8.7807 0.960274 0.0882718 9.09703 0.00888887 32.0387C-0.0374177 53.8261 0.105362 75.6134 0.24814 97.4007C0.350125 112.963 0.45211 128.525 0.485186 144.088C0.485186 156.511 2.86667 167.744 15.7664 172.745C28.1104 177.587 38.1127 172.626 47.4799 164.172C50.6093 161.349 53.7384 158.526 56.8674 155.703C98.3049 118.317 139.724 80.9471 181.796 44.2637C192.671 34.7774 194.14 23.1478 189.417 13.1059C186.479 6.87431 174.929 1.87318 166.872 1.3175C150.641 0.178519 134.309 0.38775 117.977 0.596975ZM1.35695 513.947C1.35695 503.89 1.40412 493.833 1.45128 483.777C1.56011 460.575 1.66892 437.379 1.19818 414.202C0.6425 386.736 12.7484 364.508 30.0142 345.417C141.547 222.095 265.9 113.182 403.789 20.3036C421.451 8.39613 446.1 2.16456 467.732 1.64857C530.267 0.191653 592.842 0.396025 655.414 0.600389C681.486 0.68554 707.557 0.770689 733.625 0.735667C747.953 0.735667 761.329 2.40271 764.981 19.0731C768.513 35.2276 762.322 46.1031 746.643 54.0017C542.471 156.406 361.477 290.523 205.689 457.506C167.025 498.935 131.311 543.134 95.6071 587.32L95.6066 587.32L95.604 587.324C81.0947 605.28 66.5872 623.234 51.8842 640.999C36.206 659.972 19.4959 663.266 7.39005 646.953C2.66676 640.602 0.999722 630.799 0.840956 622.503C0.348544 596.116 0.426858 569.707 0.505143 543.308C0.534132 533.532 0.563117 523.758 0.563117 513.987H1.35695V513.947ZM1307.91 133.17V133.165V133.161C1307.9 126.747 1307.88 120.334 1307.88 113.922L1307.92 113.962C1307.92 107.758 1307.94 101.555 1307.96 95.3514C1308 81.7091 1308.05 68.0668 1307.88 54.4245C1307.45 21.2424 1286.21 3.89722 1254.14 10.8035C1226.95 16.6382 1199.84 22.7507 1172.85 29.4982C962.369 82.0498 767.881 170.363 589.428 293.566C350.644 458.405 161.316 668.293 22.3165 923.232C12.9493 940.379 6.08271 961.574 6.36055 980.745C7.35284 1054.49 31.2074 1123 60.8966 1189.72C67.2472 1204.01 75.0268 1215.32 92.7688 1214.41C109.28 1213.54 116.226 1202.58 122.379 1188.85C126.964 1178.62 131.499 1168.36 136.035 1158.11C152.466 1120.95 168.909 1083.76 187.79 1047.86C348.501 742.397 582.839 510.837 889.495 352.825C1010.87 290.271 1138.72 245.38 1272.04 215.969C1296.85 210.531 1307.68 196.957 1307.88 171.713C1307.96 158.851 1307.94 146.008 1307.91 133.17ZM1307.9 467.691V467.696C1307.92 480.543 1307.93 493.395 1307.88 506.23C1307.76 533.181 1298.55 544.969 1272.08 552.471C1073.23 608.595 897.631 706.673 745.89 846.823C600.937 980.703 492.143 1139.75 420.103 1323.56C405.508 1360.81 393.635 1399.16 381.793 1437.42L380.411 1441.88C368.266 1481.13 342.149 1492.29 307.736 1469.03C277.848 1448.82 249.39 1426.44 221.169 1404.01C213.27 1397.74 207.317 1388.37 202.197 1379.4C192.75 1362.89 194.179 1346.54 200.609 1328.08C356.954 879.767 655.433 568.268 1097.28 395.015C1127.81 383.051 1159.29 373.523 1190.78 363.995L1190.79 363.993L1190.79 363.992L1190.8 363.991C1204.95 359.707 1219.11 355.423 1233.18 350.918C1238.18 349.33 1243.26 348.099 1248.38 346.948C1287.2 338.018 1307.92 354.45 1307.96 394.181V448.479L1307.88 448.44C1307.88 454.851 1307.89 461.266 1307.9 467.683V467.687V467.691ZM1307.9 809.948V809.944V809.939V809.935V809.931C1307.89 803.52 1307.88 797.11 1307.88 790.701L1307.84 790.74V734.736C1307.76 693.218 1284.38 676.032 1245.41 689.329C1076.12 747 927.44 838.45 800.427 964.272C650.115 1113.15 547.831 1290.3 492.897 1494.79C483.094 1531.27 493.771 1551.03 531.597 1556.83C570.336 1562.78 609.63 1565.52 648.766 1567.9C675.399 1569.53 687.147 1558.85 695.086 1532.85C695.546 1531.35 696.005 1529.84 696.465 1528.33C703.702 1504.58 710.959 1480.77 719.655 1457.52C782.844 1288.47 886.002 1148.48 1027.46 1036.75C1102.99 977.092 1185.99 930.534 1275.77 895.923C1300.5 886.397 1307.76 875.641 1307.88 848.492C1307.94 835.63 1307.92 822.786 1307.9 809.948ZM1286.43 1079.72C1287.84 1074.61 1289.11 1069.97 1290.26 1065.99L1290.22 1066.03C1290.73 1036.46 1277.6 1029.52 1256.04 1040.03C1173.65 1080.16 1099.38 1132 1034.01 1196.3C947.602 1281.28 882.627 1380.51 838.848 1493.59C838.108 1495.5 837.273 1497.42 836.438 1499.34C831.945 1509.65 827.441 1519.99 837.617 1530.46C847.947 1541.06 858.766 1536.7 869.315 1532.45C871.169 1531.71 873.015 1530.96 874.848 1530.3C991.818 1488.31 1088.82 1418.22 1166.34 1321.33C1214.01 1261.75 1250.01 1195.59 1273.75 1122.99C1278.72 1107.77 1282.96 1092.33 1286.43 1079.72Z" fill="url(#paint0_linear_143_150)"/>
<defs>
<linearGradient id="paint0_linear_143_150" x1="95.9813" y1="0.432129" x2="95.9813" y2="1568" gradientUnits="userSpaceOnUse">
<stop stop-color="#3A3C3A"/>
<stop offset="1" stop-color="#ABBA27"/>
</linearGradient>
</defs>
</svg>
