<svg width="280" height="280" viewBox="0 0 280 280" fill="none" xmlns="http://www.w3.org/2000/svg">
<path d="M17.5976 85.094C14.6513 83.7723 11.1794 85.0853 9.98203 88.0842C3.44943 104.445 0.0569172 121.91 0.00186325 139.562C-0.0592332 159.166 3.99704 178.563 11.9081 196.499C19.8192 214.435 31.4087 230.51 45.9262 243.682C60.4437 256.854 77.5657 266.831 96.1834 272.966C114.801 279.1 134.5 281.257 154.004 279.295C173.508 277.333 192.382 271.296 209.405 261.576C226.428 251.857 241.22 238.67 252.824 222.87C263.273 208.642 270.926 192.581 275.398 175.541C276.218 172.418 274.207 169.298 271.052 168.61L255.122 165.132C251.967 164.443 248.867 166.448 248.015 169.562C244.399 182.775 238.385 195.228 230.258 206.296C220.975 218.936 209.141 229.485 195.523 237.261C181.904 245.037 166.805 249.866 151.202 251.435C135.598 253.005 119.84 251.28 104.945 246.372C90.0511 241.464 76.3536 233.483 64.7396 222.945C53.1256 212.407 43.854 199.548 37.5251 185.199C31.1963 170.85 27.9512 155.332 28.0001 139.65C28.0429 125.918 30.6101 112.329 35.5565 99.5549C36.7224 96.5439 35.4207 93.0892 32.4746 91.7676L17.5976 85.094Z" fill="#ABBA27"/>
<path d="M139.993 5.84671C139.993 2.6177 142.613 -0.0126664 145.839 0.122069C179.763 1.53891 212.096 15.2498 236.734 38.8067C261.373 62.3637 276.521 94.05 279.459 127.878C279.739 131.095 277.229 133.83 274.003 133.975L257.714 134.708C254.489 134.853 251.772 132.352 251.459 129.138C248.866 102.513 236.814 77.6202 217.386 59.0452C197.959 40.4701 172.551 29.5474 145.838 28.1523C142.613 27.9839 139.993 25.3822 139.993 22.1531L139.993 5.84671Z" fill="#F0CD51"/>
<path d="M133.087 6.02536C132.92 2.80063 130.169 0.308838 126.954 0.609894C105.492 2.61981 84.7545 9.56287 66.3759 20.9291C47.997 32.2954 32.5219 47.7477 21.1359 66.053C19.4305 68.7948 20.4308 72.3693 23.2413 73.9588L37.434 81.9859C40.2447 83.5756 43.7991 82.5761 45.5331 79.8521C54.58 65.6405 66.7315 53.6304 81.1021 44.743C95.4726 35.8556 111.645 30.3486 128.401 28.6028C131.613 28.2682 134.095 25.5348 133.928 22.3101L133.087 6.02536Z" fill="white"/>
<path d="M274.138 139.999C277.367 139.999 279.998 142.618 279.863 145.844C279.726 149.118 279.474 152.386 279.108 155.643C278.747 158.851 275.747 161.037 272.556 160.542L256.443 158.045C253.252 157.551 251.082 154.564 251.41 151.351C251.596 149.519 251.738 147.682 251.834 145.843C252.002 142.618 254.604 139.999 257.833 139.999L274.138 139.999Z" fill="#C4C5D0"/>
</svg>
