<svg width="929" height="658" viewBox="0 0 929 658" fill="none" xmlns="http://www.w3.org/2000/svg">
<path d="M275.667 236C275.667 238.946 278.054 241.333 281 241.333C283.946 241.333 286.333 238.946 286.333 236C286.333 233.054 283.946 230.667 281 230.667C278.054 230.667 275.667 233.054 275.667 236ZM227 182L227.707 181.293L227.414 181H227V182ZM34 182L44 187.774V176.226L34 182ZM37.0156 183H39.026V181H37.0156V183ZM41.0365 183H43.0469V181H41.0365V183ZM45.0573 183H47.0677V181H45.0573V183ZM49.0781 183H51.0885V181H49.0781V183ZM53.099 183H55.1094V181H53.099V183ZM57.1198 183H59.1302V181H57.1198V183ZM61.1406 183H63.151V181H61.1406V183ZM65.1615 183H67.1719V181H65.1615V183ZM69.1823 183H71.1927V181H69.1823V183ZM73.2031 183H75.2135V181H73.2031V183ZM77.224 183H79.2344V181H77.224V183ZM81.2448 183H83.2552V181H81.2448V183ZM85.2656 183H87.2761V181H85.2656V183ZM89.2865 183H91.2969V181H89.2865V183ZM93.3073 183H95.3177V181H93.3073V183ZM97.3281 183H99.3386V181H97.3281V183ZM101.349 183H103.359V181H101.349V183ZM105.37 183H107.38V181H105.37V183ZM109.391 183H111.401V181H109.391V183ZM113.411 183H115.422V181H113.411V183ZM117.432 183H119.443V181H117.432V183ZM121.453 183H123.464V181H121.453V183ZM125.474 183H127.484V181H125.474V183ZM129.495 183H131.505V181H129.495V183ZM133.516 183H135.526V181H133.516V183ZM137.536 183H139.547V181H137.536V183ZM141.557 183H143.568V181H141.557V183ZM145.578 183H147.588V181H145.578V183ZM149.599 183H151.609V181H149.599V183ZM153.62 183H155.63V181H153.62V183ZM157.641 183H159.651V181H157.641V183ZM161.661 183H163.672V181H161.661V183ZM165.682 183H167.693V181H165.682V183ZM169.703 183H171.714V181H169.703V183ZM173.724 183H175.734V181H173.724V183ZM177.745 183H179.755V181H177.745V183ZM181.766 183H183.776V181H181.766V183ZM185.786 183H187.797V181H185.786V183ZM189.807 183H191.818V181H189.807V183ZM193.828 183H195.839V181H193.828V183ZM197.849 183H199.859V181H197.849V183ZM201.87 183H203.88V181H201.87V183ZM205.891 183H207.901V181H205.891V183ZM209.912 183H211.922V181H209.912V183ZM213.932 183H215.943V181H213.932V183ZM217.953 183H219.964V181H217.953V183ZM221.974 183H223.984V181H221.974V183ZM225.995 183H227V181H225.995V183ZM226.293 182.707L227.003 183.418L228.418 182.003L227.707 181.293L226.293 182.707ZM228.424 184.839L229.846 186.26L231.26 184.846L229.839 183.424L228.424 184.839ZM231.267 187.681L232.688 189.102L234.102 187.688L232.681 186.267L231.267 187.681ZM234.109 190.523L235.53 191.944L236.944 190.53L235.523 189.109L234.109 190.523ZM236.951 193.365L238.372 194.786L239.786 193.372L238.365 191.951L236.951 193.365ZM239.793 196.207L241.214 197.628L242.628 196.214L241.207 194.793L239.793 196.207ZM242.635 199.049L244.056 200.47L245.47 199.056L244.049 197.635L242.635 199.049ZM245.477 201.891L246.898 203.312L248.312 201.898L246.891 200.477L245.477 201.891ZM248.319 204.733L249.74 206.154L251.154 204.74L249.733 203.319L248.319 204.733ZM251.161 207.576L252.582 208.997L253.997 207.582L252.576 206.161L251.161 207.576ZM254.003 210.418L255.424 211.839L256.839 210.424L255.418 209.003L254.003 210.418ZM256.846 213.26L258.267 214.681L259.681 213.267L258.26 211.846L256.846 213.26ZM259.688 216.102L261.109 217.523L262.523 216.109L261.102 214.688L259.688 216.102ZM262.53 218.944L263.951 220.365L265.365 218.951L263.944 217.53L262.53 218.944ZM265.372 221.786L266.793 223.207L268.207 221.793L266.786 220.372L265.372 221.786ZM268.214 224.628L269.635 226.049L271.049 224.635L269.628 223.214L268.214 224.628ZM271.056 227.47L272.477 228.891L273.891 227.477L272.47 226.056L271.056 227.47ZM273.898 230.312L275.319 231.733L276.733 230.319L275.312 228.898L273.898 230.312ZM276.74 233.154L278.161 234.576L279.576 233.161L278.154 231.74L276.74 233.154ZM279.582 235.997L280.293 236.707L281.707 235.293L280.997 234.582L279.582 235.997Z" fill="#F0CD51"/>
<g filter="url(#filter0_b_2004_266)">
<path d="M419 161.5C326.492 161.5 251.5 236.492 251.5 329C251.5 421.508 326.492 496.5 419 496.5C511.508 496.5 586.5 421.508 586.5 329C586.5 236.492 511.508 161.5 419 161.5Z" stroke="#F0CD51"/>
</g>
<path d="M567.333 241C567.333 243.946 564.946 246.333 562 246.333C559.054 246.333 556.667 243.946 556.667 241C556.667 238.054 559.054 235.667 562 235.667C564.946 235.667 567.333 238.054 567.333 241ZM616 187L615.293 186.293L615.576 186.01L615.976 186L616 187ZM826 182L816.14 188.01L815.865 176.466L826 182ZM823.052 183.07L821.071 183.118L821.023 181.118L823.004 181.071L823.052 183.07ZM819.09 183.165L817.109 183.212L817.061 181.213L819.042 181.165L819.09 183.165ZM815.128 183.259L813.146 183.306L813.099 181.307L815.08 181.26L815.128 183.259ZM811.165 183.353L809.184 183.401L809.137 181.401L811.118 181.354L811.165 183.353ZM807.203 183.448L805.222 183.495L805.174 181.496L807.155 181.448L807.203 183.448ZM803.241 183.542L801.26 183.589L801.212 181.59L803.193 181.543L803.241 183.542ZM799.279 183.637L797.297 183.684L797.25 181.684L799.231 181.637L799.279 183.637ZM795.316 183.731L793.335 183.778L793.288 181.779L795.269 181.731L795.316 183.731ZM791.354 183.825L789.373 183.872L789.325 181.873L791.306 181.826L791.354 183.825ZM787.392 183.92L785.411 183.967L785.363 181.967L787.344 181.92L787.392 183.92ZM783.429 184.014L781.448 184.061L781.401 182.062L783.382 182.014L783.429 184.014ZM779.467 184.108L777.486 184.155L777.438 182.156L779.42 182.109L779.467 184.108ZM775.505 184.203L773.524 184.25L773.476 182.25L775.457 182.203L775.505 184.203ZM771.543 184.297L769.562 184.344L769.514 182.345L771.495 182.297L771.543 184.297ZM767.58 184.391L765.599 184.438L765.552 182.439L767.533 182.392L767.58 184.391ZM763.618 184.486L761.637 184.533L761.589 182.533L763.571 182.486L763.618 184.486ZM759.656 184.58L757.675 184.627L757.627 182.628L759.608 182.58L759.656 184.58ZM755.694 184.674L753.712 184.721L753.665 182.722L755.646 182.675L755.694 184.674ZM751.731 184.769L749.75 184.816L749.703 182.816L751.684 182.769L751.731 184.769ZM747.769 184.863L745.788 184.91L745.74 182.911L747.721 182.863L747.769 184.863ZM743.807 184.957L741.826 185.004L741.778 183.005L743.759 182.958L743.807 184.957ZM739.845 185.052L737.863 185.099L737.816 183.099L739.797 183.052L739.845 185.052ZM735.882 185.146L733.901 185.193L733.854 183.194L735.835 183.147L735.882 185.146ZM731.92 185.24L729.939 185.287L729.891 183.288L731.872 183.241L731.92 185.24ZM727.958 185.335L725.977 185.382L725.929 183.382L727.91 183.335L727.958 185.335ZM723.995 185.429L722.014 185.476L721.967 183.477L723.948 183.43L723.995 185.429ZM720.033 185.523L718.052 185.57L718.004 183.571L719.986 183.524L720.033 185.523ZM716.071 185.618L714.09 185.665L714.042 183.665L716.023 183.618L716.071 185.618ZM712.109 185.712L710.127 185.759L710.08 183.76L712.061 183.713L712.109 185.712ZM708.146 185.806L706.165 185.853L706.118 183.854L708.099 183.807L708.146 185.806ZM704.184 185.901L702.203 185.948L702.155 183.948L704.136 183.901L704.184 185.901ZM700.222 185.995L698.241 186.042L698.193 184.043L700.174 183.996L700.222 185.995ZM696.26 186.089L694.278 186.137L694.231 184.137L696.212 184.09L696.26 186.089ZM692.297 186.184L690.316 186.231L690.269 184.231L692.25 184.184L692.297 186.184ZM688.335 186.278L686.354 186.325L686.306 184.326L688.287 184.279L688.335 186.278ZM684.373 186.372L682.392 186.42L682.344 184.42L684.325 184.373L684.373 186.372ZM680.411 186.467L678.429 186.514L678.382 184.514L680.363 184.467L680.411 186.467ZM676.448 186.561L674.467 186.608L674.42 184.609L676.401 184.562L676.448 186.561ZM672.486 186.655L670.505 186.703L670.457 184.703L672.438 184.656L672.486 186.655ZM668.524 186.75L666.543 186.797L666.495 184.797L668.476 184.75L668.524 186.75ZM664.561 186.844L662.58 186.891L662.533 184.892L664.514 184.845L664.561 186.844ZM660.599 186.938L658.618 186.986L658.571 184.986L660.552 184.939L660.599 186.938ZM656.637 187.033L654.656 187.08L654.608 185.08L656.589 185.033L656.637 187.033ZM652.675 187.127L650.694 187.174L650.646 185.175L652.627 185.128L652.675 187.127ZM648.712 187.221L646.731 187.269L646.684 185.269L648.665 185.222L648.712 187.221ZM644.75 187.316L642.769 187.363L642.721 185.363L644.703 185.316L644.75 187.316ZM640.788 187.41L638.807 187.457L638.759 185.458L640.74 185.411L640.788 187.41ZM636.826 187.504L634.845 187.552L634.797 185.552L636.778 185.505L636.826 187.504ZM632.863 187.599L630.882 187.646L630.835 185.647L632.816 185.599L632.863 187.599ZM628.901 187.693L626.92 187.74L626.872 185.741L628.854 185.694L628.901 187.693ZM624.939 187.787L622.958 187.835L622.91 185.835L624.891 185.788L624.939 187.787ZM620.977 187.882L618.996 187.929L618.948 185.93L620.929 185.882L620.977 187.882ZM617.014 187.976L616.024 188L615.976 186L616.967 185.977L617.014 187.976ZM616.707 187.707L615.997 188.418L614.582 187.003L615.293 186.293L616.707 187.707ZM614.576 189.839L613.154 191.26L611.74 189.846L613.161 188.424L614.576 189.839ZM611.733 192.681L610.312 194.102L608.898 192.688L610.319 191.267L611.733 192.681ZM608.891 195.523L607.47 196.944L606.056 195.53L607.477 194.109L608.891 195.523ZM606.049 198.365L604.628 199.786L603.214 198.372L604.635 196.951L606.049 198.365ZM603.207 201.207L601.786 202.628L600.372 201.214L601.793 199.793L603.207 201.207ZM600.365 204.049L598.944 205.47L597.53 204.056L598.951 202.635L600.365 204.049ZM597.523 206.891L596.102 208.312L594.688 206.898L596.109 205.477L597.523 206.891ZM594.681 209.733L593.26 211.154L591.846 209.74L593.267 208.319L594.681 209.733ZM591.839 212.576L590.418 213.997L589.003 212.582L590.424 211.161L591.839 212.576ZM588.997 215.418L587.576 216.839L586.161 215.424L587.582 214.003L588.997 215.418ZM586.154 218.26L584.733 219.681L583.319 218.267L584.74 216.846L586.154 218.26ZM583.312 221.102L581.891 222.523L580.477 221.109L581.898 219.688L583.312 221.102ZM580.47 223.944L579.049 225.365L577.635 223.951L579.056 222.53L580.47 223.944ZM577.628 226.786L576.207 228.207L574.793 226.793L576.214 225.372L577.628 226.786ZM574.786 229.628L573.365 231.049L571.951 229.635L573.372 228.214L574.786 229.628ZM571.944 232.47L570.523 233.891L569.109 232.477L570.53 231.056L571.944 232.47ZM569.102 235.312L567.681 236.733L566.267 235.319L567.688 233.898L569.102 235.312ZM566.26 238.154L564.839 239.576L563.424 238.161L564.846 236.74L566.26 238.154ZM563.418 240.997L562.707 241.707L561.293 240.293L562.003 239.582L563.418 240.997Z" fill="#F0CD51"/>
<path d="M591.833 325C591.833 327.946 589.446 330.333 586.5 330.333C583.554 330.333 581.167 327.946 581.167 325C581.167 322.054 583.554 319.667 586.5 319.667C589.446 319.667 591.833 322.054 591.833 325ZM667.5 325L657.5 330.774V319.226L667.5 325ZM664.462 326H662.438V324H664.462V326ZM660.412 326H658.387V324H660.412V326ZM656.363 326H654.337V324H656.363V326ZM652.312 326H650.288V324H652.312V326ZM648.263 326H646.238V324H648.263V326ZM644.212 326H642.188V324H644.212V326ZM640.163 326H638.138V324H640.163V326ZM636.113 326H634.088V324H636.113V326ZM632.062 326H630.037V324H632.062V326ZM628.012 326H625.987V324H628.012V326ZM623.962 326H621.937V324H623.962V326ZM619.912 326H617.887V324H619.912V326ZM615.862 326H613.837V324H615.862V326ZM611.812 326H609.787V324H611.812V326ZM607.762 326H605.737V324H607.762V326ZM603.712 326H601.687V324H603.712V326ZM599.662 326H597.637V324H599.662V326ZM595.612 326H593.587V324H595.612V326ZM591.562 326H589.537V324H591.562V326ZM587.512 326H586.5V324H587.512V326Z" fill="#F0CD51"/>
<path d="M244.667 325C244.667 327.946 247.054 330.333 250 330.333C252.946 330.333 255.333 327.946 255.333 325C255.333 322.054 252.946 319.667 250 319.667C247.054 319.667 244.667 322.054 244.667 325ZM169 325L179 330.774V319.226L169 325ZM172.038 326H174.062V324H172.038V326ZM176.087 326H178.113V324H176.087V326ZM180.138 326H182.163V324H180.138V326ZM184.188 326H186.212V324H184.188V326ZM188.237 326H190.262V324H188.237V326ZM192.287 326H194.312V324H192.287V326ZM196.337 326H198.362V324H196.337V326ZM200.387 326H202.412V324H200.387V326ZM204.438 326H206.463V324H204.438V326ZM208.488 326H210.513V324H208.488V326ZM212.538 326H214.563V324H212.538V326ZM216.588 326H218.613V324H216.588V326ZM220.638 326H222.663V324H220.638V326ZM224.688 326H226.713V324H224.688V326ZM228.738 326H230.763V324H228.738V326ZM232.788 326H234.813V324H232.788V326ZM236.838 326H238.863V324H236.838V326ZM240.888 326H242.913V324H240.888V326ZM244.938 326H246.963V324H244.938V326ZM248.988 326H250V324H248.988V326Z" fill="#F0CD51"/>
<path d="M273.667 422C273.667 419.054 276.054 416.667 279 416.667C281.946 416.667 284.333 419.054 284.333 422C284.333 424.946 281.946 427.333 279 427.333C276.054 427.333 273.667 424.946 273.667 422ZM225 476L225.707 476.707L225.414 477H225V476ZM33 476L43 470.226V481.774L33 476ZM36 475H38V477H36V475ZM40 475H42V477H40V475ZM44 475H46V477H44V475ZM48 475H50V477H48V475ZM52 475H54V477H52V475ZM56 475H58V477H56V475ZM60 475H62V477H60V475ZM64 475H66V477H64V475ZM68 475H70V477H68V475ZM72 475H74V477H72V475ZM76 475H78V477H76V475ZM80 475H82V477H80V475ZM84 475H86V477H84V475ZM88 475H90V477H88V475ZM92 475H94V477H92V475ZM96 475H98V477H96V475ZM100 475H102V477H100V475ZM104 475H106V477H104V475ZM108 475H110V477H108V475ZM112 475H114V477H112V475ZM116 475H118V477H116V475ZM120 475H122V477H120V475ZM124 475H126V477H124V475ZM128 475H130V477H128V475ZM132 475H134V477H132V475ZM136 475H138V477H136V475ZM140 475H142V477H140V475ZM144 475H146V477H144V475ZM148 475H150V477H148V475ZM152 475H154V477H152V475ZM156 475H158V477H156V475ZM160 475H162V477H160V475ZM164 475H166V477H164V475ZM168 475H170V477H168V475ZM172 475H174V477H172V475ZM176 475H178V477H176V475ZM180 475H182V477H180V475ZM184 475H186V477H184V475ZM188 475H190V477H188V475ZM192 475H194V477H192V475ZM196 475H198V477H196V475ZM200 475H202V477H200V475ZM204 475H206V477H204V475ZM208 475H210V477H208V475ZM212 475H214V477H212V475ZM216 475H218V477H216V475ZM220 475H222V477H220V475ZM224 475H225V477H224V475ZM224.293 475.293L225.003 474.582L226.418 475.997L225.707 476.707L224.293 475.293ZM226.424 473.161L227.846 471.74L229.26 473.154L227.839 474.576L226.424 473.161ZM229.267 470.319L230.688 468.898L232.102 470.312L230.681 471.733L229.267 470.319ZM232.109 467.477L233.53 466.056L234.944 467.47L233.523 468.891L232.109 467.477ZM234.951 464.635L236.372 463.214L237.786 464.628L236.365 466.049L234.951 464.635ZM237.793 461.793L239.214 460.372L240.628 461.786L239.207 463.207L237.793 461.793ZM240.635 458.951L242.056 457.53L243.47 458.944L242.049 460.365L240.635 458.951ZM243.477 456.109L244.898 454.688L246.312 456.102L244.891 457.523L243.477 456.109ZM246.319 453.267L247.74 451.846L249.154 453.26L247.733 454.681L246.319 453.267ZM249.161 450.424L250.582 449.003L251.997 450.418L250.576 451.839L249.161 450.424ZM252.003 447.582L253.424 446.161L254.839 447.576L253.418 448.997L252.003 447.582ZM254.846 444.74L256.267 443.319L257.681 444.733L256.26 446.154L254.846 444.74ZM257.688 441.898L259.109 440.477L260.523 441.891L259.102 443.312L257.688 441.898ZM260.53 439.056L261.951 437.635L263.365 439.049L261.944 440.47L260.53 439.056ZM263.372 436.214L264.793 434.793L266.207 436.207L264.786 437.628L263.372 436.214ZM266.214 433.372L267.635 431.951L269.049 433.365L267.628 434.786L266.214 433.372ZM269.056 430.53L270.477 429.109L271.891 430.523L270.47 431.944L269.056 430.53ZM271.898 427.688L273.319 426.267L274.733 427.681L273.312 429.102L271.898 427.688ZM274.74 424.846L276.161 423.424L277.576 424.839L276.154 426.26L274.74 424.846ZM277.582 422.003L278.293 421.293L279.707 422.707L278.997 423.418L277.582 422.003Z" fill="#F0CD51"/>
<path d="M570.833 414C570.833 411.054 568.446 408.667 565.5 408.667C562.554 408.667 560.167 411.054 560.167 414C560.167 416.946 562.554 419.333 565.5 419.333C568.446 419.333 570.833 416.946 570.833 414ZM616 463L615.304 463.718L615.595 464H616V463ZM833 463L823 457.226V468.774L833 463ZM829.986 462H827.977V464H829.986V462ZM825.968 462H823.958V464H825.968V462ZM821.949 462H819.94V464H821.949V462ZM817.931 462H815.921V464H817.931V462ZM813.912 462H811.903V464H813.912V462ZM809.894 462H807.884V464H809.894V462ZM805.875 462H803.866V464H805.875V462ZM801.856 462H799.847V464H801.856V462ZM797.838 462H795.829V464H797.838V462ZM793.819 462H791.81V464H793.819V462ZM789.801 462H787.792V464H789.801V462ZM785.782 462H783.773V464H785.782V462ZM781.764 462H779.755V464H781.764V462ZM777.745 462H775.736V464H777.745V462ZM773.727 462H771.718V464H773.727V462ZM769.708 462H767.699V464H769.708V462ZM765.69 462H763.681V464H765.69V462ZM761.671 462H759.662V464H761.671V462ZM757.653 462H755.644V464H757.653V462ZM753.634 462H751.625V464H753.634V462ZM749.616 462H747.606V464H749.616V462ZM745.597 462H743.588V464H745.597V462ZM741.579 462H739.569V464H741.579V462ZM737.56 462H735.551V464H737.56V462ZM733.542 462H731.532V464H733.542V462ZM729.523 462H727.514V464H729.523V462ZM725.505 462H723.495V464H725.505V462ZM721.486 462H719.477V464H721.486V462ZM717.468 462H715.458V464H717.468V462ZM713.449 462H711.44V464H713.449V462ZM709.43 462H707.421V464H709.43V462ZM705.412 462H703.403V464H705.412V462ZM701.393 462H699.384V464H701.393V462ZM697.375 462H695.366V464H697.375V462ZM693.356 462H691.347V464H693.356V462ZM689.338 462H687.329V464H689.338V462ZM685.319 462H683.31V464H685.319V462ZM681.301 462H679.292V464H681.301V462ZM677.282 462H675.273V464H677.282V462ZM673.264 462H671.255V464H673.264V462ZM669.245 462H667.236V464H669.245V462ZM665.227 462H663.217V464H665.227V462ZM661.208 462H659.199V464H661.208V462ZM657.19 462H655.18V464H657.19V462ZM653.171 462H651.162V464H653.171V462ZM649.153 462H647.143V464H649.153V462ZM645.134 462H643.125V464H645.134V462ZM641.116 462H639.106V464H641.116V462ZM637.097 462H635.088V464H637.097V462ZM633.079 462H631.069V464H633.079V462ZM629.06 462H627.051V464H629.06V462ZM625.041 462H623.032V464H625.041V462ZM621.023 462H619.014V464H621.023V462ZM617.004 462H616V464H617.004V462ZM616.696 462.282L615.995 461.602L614.602 463.037L615.304 463.718L616.696 462.282ZM614.592 460.241L613.189 458.88L611.797 460.315L613.199 461.676L614.592 460.241ZM611.787 457.518L610.384 456.157L608.991 457.593L610.394 458.954L611.787 457.518ZM608.981 454.796L607.578 453.435L606.186 454.87L607.588 456.232L608.981 454.796ZM606.176 452.074L604.773 450.713L603.38 452.148L604.783 453.509L606.176 452.074ZM603.37 449.352L601.967 447.991L600.574 449.426L601.977 450.787L603.37 449.352ZM600.564 446.63L599.162 445.268L597.769 446.704L599.172 448.065L600.564 446.63ZM597.759 443.907L596.356 442.546L594.963 443.982L596.366 445.343L597.759 443.907ZM594.953 441.185L593.551 439.824L592.158 441.259L593.561 442.62L594.953 441.185ZM592.148 438.463L590.745 437.102L589.352 438.537L590.755 439.898L592.148 438.463ZM589.342 435.741L587.939 434.38L586.547 435.815L587.949 437.176L589.342 435.741ZM586.537 433.018L585.134 431.657L583.741 433.093L585.144 434.454L586.537 433.018ZM583.731 430.296L582.328 428.935L580.936 430.37L582.338 431.732L583.731 430.296ZM580.926 427.574L579.523 426.213L578.13 427.648L579.533 429.009L580.926 427.574ZM578.12 424.852L576.717 423.491L575.324 424.926L576.727 426.287L578.12 424.852ZM575.314 422.13L573.912 420.768L572.519 422.204L573.922 423.565L575.314 422.13ZM572.509 419.407L571.106 418.046L569.713 419.482L571.116 420.843L572.509 419.407ZM569.703 416.685L568.301 415.324L566.908 416.759L568.311 418.12L569.703 416.685ZM566.898 413.963L566.196 413.282L564.804 414.718L565.505 415.398L566.898 413.963Z" fill="#F0CD51"/>
<defs>
<filter id="filter0_b_2004_266" x="223" y="133" width="392" height="392" filterUnits="userSpaceOnUse" color-interpolation-filters="sRGB">
<feFlood flood-opacity="0" result="BackgroundImageFix"/>
<feGaussianBlur in="BackgroundImageFix" stdDeviation="14"/>
<feComposite in2="SourceAlpha" operator="in" result="effect1_backgroundBlur_2004_266"/>
<feBlend mode="normal" in="SourceGraphic" in2="effect1_backgroundBlur_2004_266" result="shape"/>
</filter>
</defs>
</svg>
