<svg width="1293" height="822" viewBox="0 0 1293 822" fill="none" xmlns="http://www.w3.org/2000/svg">
<path d="M488.667 295C488.667 297.946 491.054 300.333 494 300.333C496.946 300.333 499.333 297.946 499.333 295C499.333 292.054 496.946 289.667 494 289.667C491.054 289.667 488.667 292.054 488.667 295ZM440 241L440.707 240.293L440.414 240H440V241ZM247 241L257 246.774V235.226L247 241ZM250.016 242H252.026V240H250.016V242ZM254.036 242H256.047V240H254.036V242ZM258.057 242H260.068V240H258.057V242ZM262.078 242H264.089V240H262.078V242ZM266.099 242H268.109V240H266.099V242ZM270.12 242H272.13V240H270.12V242ZM274.141 242H276.151V240H274.141V242ZM278.161 242H280.172V240H278.161V242ZM282.182 242H284.193V240H282.182V242ZM286.203 242H288.214V240H286.203V242ZM290.224 242H292.234V240H290.224V242ZM294.245 242H296.255V240H294.245V242ZM298.266 242H300.276V240H298.266V242ZM302.286 242H304.297V240H302.286V242ZM306.307 242H308.318V240H306.307V242ZM310.328 242H312.339V240H310.328V242ZM314.349 242H316.359V240H314.349V242ZM318.37 242H320.38V240H318.37V242ZM322.391 242H324.401V240H322.391V242ZM326.411 242H328.422V240H326.411V242ZM330.432 242H332.443V240H330.432V242ZM334.453 242H336.464V240H334.453V242ZM338.474 242H340.484V240H338.474V242ZM342.495 242H344.505V240H342.495V242ZM346.516 242H348.526V240H346.516V242ZM350.536 242H352.547V240H350.536V242ZM354.557 242H356.568V240H354.557V242ZM358.578 242H360.588V240H358.578V242ZM362.599 242H364.609V240H362.599V242ZM366.62 242H368.63V240H366.62V242ZM370.641 242H372.651V240H370.641V242ZM374.661 242H376.672V240H374.661V242ZM378.682 242H380.693V240H378.682V242ZM382.703 242H384.714V240H382.703V242ZM386.724 242H388.734V240H386.724V242ZM390.745 242H392.755V240H390.745V242ZM394.766 242H396.776V240H394.766V242ZM398.786 242H400.797V240H398.786V242ZM402.807 242H404.818V240H402.807V242ZM406.828 242H408.839V240H406.828V242ZM410.849 242H412.859V240H410.849V242ZM414.87 242H416.88V240H414.87V242ZM418.891 242H420.901V240H418.891V242ZM422.912 242H424.922V240H422.912V242ZM426.932 242H428.943V240H426.932V242ZM430.953 242H432.964V240H430.953V242ZM434.974 242H436.984V240H434.974V242ZM438.995 242H440V240H438.995V242ZM439.293 241.707L440.003 242.418L441.418 241.003L440.707 240.293L439.293 241.707ZM441.424 243.839L442.846 245.26L444.26 243.846L442.839 242.424L441.424 243.839ZM444.267 246.681L445.688 248.102L447.102 246.688L445.681 245.267L444.267 246.681ZM447.109 249.523L448.53 250.944L449.944 249.53L448.523 248.109L447.109 249.523ZM449.951 252.365L451.372 253.786L452.786 252.372L451.365 250.951L449.951 252.365ZM452.793 255.207L454.214 256.628L455.628 255.214L454.207 253.793L452.793 255.207ZM455.635 258.049L457.056 259.47L458.47 258.056L457.049 256.635L455.635 258.049ZM458.477 260.891L459.898 262.312L461.312 260.898L459.891 259.477L458.477 260.891ZM461.319 263.733L462.74 265.154L464.154 263.74L462.733 262.319L461.319 263.733ZM464.161 266.576L465.582 267.997L466.997 266.582L465.576 265.161L464.161 266.576ZM467.003 269.418L468.424 270.839L469.839 269.424L468.418 268.003L467.003 269.418ZM469.846 272.26L471.267 273.681L472.681 272.267L471.26 270.846L469.846 272.26ZM472.688 275.102L474.109 276.523L475.523 275.109L474.102 273.688L472.688 275.102ZM475.53 277.944L476.951 279.365L478.365 277.951L476.944 276.53L475.53 277.944ZM478.372 280.786L479.793 282.207L481.207 280.793L479.786 279.372L478.372 280.786ZM481.214 283.628L482.635 285.049L484.049 283.635L482.628 282.214L481.214 283.628ZM484.056 286.47L485.477 287.891L486.891 286.477L485.47 285.056L484.056 286.47ZM486.898 289.312L488.319 290.733L489.733 289.319L488.312 287.898L486.898 289.312ZM489.74 292.154L491.161 293.576L492.576 292.161L491.154 290.74L489.74 292.154ZM492.582 294.997L493.293 295.707L494.707 294.293L493.997 293.582L492.582 294.997Z" fill="#F0CD51"/>
<g filter="url(#filter0_b_2004_266)">
<path d="M632 220.5C539.492 220.5 464.5 295.492 464.5 388C464.5 480.508 539.492 555.5 632 555.5C724.508 555.5 799.5 480.508 799.5 388C799.5 295.492 724.508 220.5 632 220.5Z" stroke="#F0CD51"/>
</g>
<path d="M780.333 300C780.333 302.946 777.946 305.333 775 305.333C772.054 305.333 769.667 302.946 769.667 300C769.667 297.054 772.054 294.667 775 294.667C777.946 294.667 780.333 297.054 780.333 300ZM829 246L828.293 245.293L828.576 245.01L828.976 245L829 246ZM1039 241L1029.14 247.01L1028.87 235.466L1039 241ZM1036.05 242.07L1034.07 242.118L1034.02 240.118L1036 240.071L1036.05 242.07ZM1032.09 242.165L1030.11 242.212L1030.06 240.213L1032.04 240.165L1032.09 242.165ZM1028.13 242.259L1026.15 242.306L1026.1 240.307L1028.08 240.26L1028.13 242.259ZM1024.17 242.353L1022.18 242.401L1022.14 240.401L1024.12 240.354L1024.17 242.353ZM1020.2 242.448L1018.22 242.495L1018.17 240.496L1020.16 240.448L1020.2 242.448ZM1016.24 242.542L1014.26 242.589L1014.21 240.59L1016.19 240.543L1016.24 242.542ZM1012.28 242.637L1010.3 242.684L1010.25 240.684L1012.23 240.637L1012.28 242.637ZM1008.32 242.731L1006.34 242.778L1006.29 240.779L1008.27 240.731L1008.32 242.731ZM1004.35 242.825L1002.37 242.872L1002.33 240.873L1004.31 240.826L1004.35 242.825ZM1000.39 242.92L998.411 242.967L998.363 240.967L1000.34 240.92L1000.39 242.92ZM996.429 243.014L994.448 243.061L994.401 241.062L996.382 241.014L996.429 243.014ZM992.467 243.108L990.486 243.155L990.438 241.156L992.42 241.109L992.467 243.108ZM988.505 243.203L986.524 243.25L986.476 241.25L988.457 241.203L988.505 243.203ZM984.543 243.297L982.562 243.344L982.514 241.345L984.495 241.297L984.543 243.297ZM980.58 243.391L978.599 243.438L978.552 241.439L980.533 241.392L980.58 243.391ZM976.618 243.486L974.637 243.533L974.589 241.533L976.571 241.486L976.618 243.486ZM972.656 243.58L970.675 243.627L970.627 241.628L972.608 241.58L972.656 243.58ZM968.694 243.674L966.712 243.721L966.665 241.722L968.646 241.675L968.694 243.674ZM964.731 243.769L962.75 243.816L962.703 241.816L964.684 241.769L964.731 243.769ZM960.769 243.863L958.788 243.91L958.74 241.911L960.721 241.863L960.769 243.863ZM956.807 243.957L954.826 244.004L954.778 242.005L956.759 241.958L956.807 243.957ZM952.845 244.052L950.863 244.099L950.816 242.099L952.797 242.052L952.845 244.052ZM948.882 244.146L946.901 244.193L946.854 242.194L948.835 242.147L948.882 244.146ZM944.92 244.24L942.939 244.287L942.891 242.288L944.872 242.241L944.92 244.24ZM940.958 244.335L938.977 244.382L938.929 242.382L940.91 242.335L940.958 244.335ZM936.995 244.429L935.014 244.476L934.967 242.477L936.948 242.43L936.995 244.429ZM933.033 244.523L931.052 244.57L931.004 242.571L932.986 242.524L933.033 244.523ZM929.071 244.618L927.09 244.665L927.042 242.665L929.023 242.618L929.071 244.618ZM925.109 244.712L923.127 244.759L923.08 242.76L925.061 242.713L925.109 244.712ZM921.146 244.806L919.165 244.853L919.118 242.854L921.099 242.807L921.146 244.806ZM917.184 244.901L915.203 244.948L915.155 242.948L917.136 242.901L917.184 244.901ZM913.222 244.995L911.241 245.042L911.193 243.043L913.174 242.996L913.222 244.995ZM909.26 245.089L907.278 245.137L907.231 243.137L909.212 243.09L909.26 245.089ZM905.297 245.184L903.316 245.231L903.269 243.231L905.25 243.184L905.297 245.184ZM901.335 245.278L899.354 245.325L899.306 243.326L901.287 243.279L901.335 245.278ZM897.373 245.372L895.392 245.42L895.344 243.42L897.325 243.373L897.373 245.372ZM893.411 245.467L891.429 245.514L891.382 243.514L893.363 243.467L893.411 245.467ZM889.448 245.561L887.467 245.608L887.42 243.609L889.401 243.562L889.448 245.561ZM885.486 245.655L883.505 245.703L883.457 243.703L885.438 243.656L885.486 245.655ZM881.524 245.75L879.543 245.797L879.495 243.797L881.476 243.75L881.524 245.75ZM877.561 245.844L875.58 245.891L875.533 243.892L877.514 243.845L877.561 245.844ZM873.599 245.938L871.618 245.986L871.571 243.986L873.552 243.939L873.599 245.938ZM869.637 246.033L867.656 246.08L867.608 244.08L869.589 244.033L869.637 246.033ZM865.675 246.127L863.694 246.174L863.646 244.175L865.627 244.128L865.675 246.127ZM861.712 246.221L859.731 246.269L859.684 244.269L861.665 244.222L861.712 246.221ZM857.75 246.316L855.769 246.363L855.721 244.363L857.703 244.316L857.75 246.316ZM853.788 246.41L851.807 246.457L851.759 244.458L853.74 244.411L853.788 246.41ZM849.826 246.504L847.845 246.552L847.797 244.552L849.778 244.505L849.826 246.504ZM845.863 246.599L843.882 246.646L843.835 244.647L845.816 244.599L845.863 246.599ZM841.901 246.693L839.92 246.74L839.872 244.741L841.854 244.694L841.901 246.693ZM837.939 246.787L835.958 246.835L835.91 244.835L837.891 244.788L837.939 246.787ZM833.977 246.882L831.996 246.929L831.948 244.93L833.929 244.882L833.977 246.882ZM830.014 246.976L829.024 247L828.976 245L829.967 244.977L830.014 246.976ZM829.707 246.707L828.997 247.418L827.582 246.003L828.293 245.293L829.707 246.707ZM827.576 248.839L826.154 250.26L824.74 248.846L826.161 247.424L827.576 248.839ZM824.733 251.681L823.312 253.102L821.898 251.688L823.319 250.267L824.733 251.681ZM821.891 254.523L820.47 255.944L819.056 254.53L820.477 253.109L821.891 254.523ZM819.049 257.365L817.628 258.786L816.214 257.372L817.635 255.951L819.049 257.365ZM816.207 260.207L814.786 261.628L813.372 260.214L814.793 258.793L816.207 260.207ZM813.365 263.049L811.944 264.47L810.53 263.056L811.951 261.635L813.365 263.049ZM810.523 265.891L809.102 267.312L807.688 265.898L809.109 264.477L810.523 265.891ZM807.681 268.733L806.26 270.154L804.846 268.74L806.267 267.319L807.681 268.733ZM804.839 271.576L803.418 272.997L802.003 271.582L803.424 270.161L804.839 271.576ZM801.997 274.418L800.576 275.839L799.161 274.424L800.582 273.003L801.997 274.418ZM799.154 277.26L797.733 278.681L796.319 277.267L797.74 275.846L799.154 277.26ZM796.312 280.102L794.891 281.523L793.477 280.109L794.898 278.688L796.312 280.102ZM793.47 282.944L792.049 284.365L790.635 282.951L792.056 281.53L793.47 282.944ZM790.628 285.786L789.207 287.207L787.793 285.793L789.214 284.372L790.628 285.786ZM787.786 288.628L786.365 290.049L784.951 288.635L786.372 287.214L787.786 288.628ZM784.944 291.47L783.523 292.891L782.109 291.477L783.53 290.056L784.944 291.47ZM782.102 294.312L780.681 295.733L779.267 294.319L780.688 292.898L782.102 294.312ZM779.26 297.154L777.839 298.576L776.424 297.161L777.846 295.74L779.26 297.154ZM776.418 299.997L775.707 300.707L774.293 299.293L775.003 298.582L776.418 299.997Z" fill="#F0CD51"/>
<path d="M804.833 384C804.833 386.946 802.446 389.333 799.5 389.333C796.554 389.333 794.167 386.946 794.167 384C794.167 381.054 796.554 378.667 799.5 378.667C802.446 378.667 804.833 381.054 804.833 384ZM880.5 384L870.5 389.774V378.226L880.5 384ZM877.462 385H875.438V383H877.462V385ZM873.412 385H871.387V383H873.412V385ZM869.363 385H867.337V383H869.363V385ZM865.312 385H863.288V383H865.312V385ZM861.263 385H859.238V383H861.263V385ZM857.212 385H855.188V383H857.212V385ZM853.163 385H851.138V383H853.163V385ZM849.113 385H847.088V383H849.113V385ZM845.062 385H843.037V383H845.062V385ZM841.012 385H838.987V383H841.012V385ZM836.962 385H834.937V383H836.962V385ZM832.912 385H830.887V383H832.912V385ZM828.862 385H826.837V383H828.862V385ZM824.812 385H822.787V383H824.812V385ZM820.762 385H818.737V383H820.762V385ZM816.712 385H814.687V383H816.712V385ZM812.662 385H810.637V383H812.662V385ZM808.612 385H806.587V383H808.612V385ZM804.562 385H802.537V383H804.562V385ZM800.512 385H799.5V383H800.512V385Z" fill="#F0CD51"/>
<path d="M457.667 384C457.667 386.946 460.054 389.333 463 389.333C465.946 389.333 468.333 386.946 468.333 384C468.333 381.054 465.946 378.667 463 378.667C460.054 378.667 457.667 381.054 457.667 384ZM382 384L392 389.774V378.226L382 384ZM385.038 385H387.062V383H385.038V385ZM389.087 385H391.113V383H389.087V385ZM393.138 385H395.163V383H393.138V385ZM397.188 385H399.212V383H397.188V385ZM401.237 385H403.262V383H401.237V385ZM405.287 385H407.312V383H405.287V385ZM409.337 385H411.362V383H409.337V385ZM413.387 385H415.412V383H413.387V385ZM417.438 385H419.463V383H417.438V385ZM421.488 385H423.513V383H421.488V385ZM425.538 385H427.563V383H425.538V385ZM429.588 385H431.613V383H429.588V385ZM433.638 385H435.663V383H433.638V385ZM437.688 385H439.713V383H437.688V385ZM441.738 385H443.763V383H441.738V385ZM445.788 385H447.813V383H445.788V385ZM449.838 385H451.863V383H449.838V385ZM453.888 385H455.913V383H453.888V385ZM457.938 385H459.963V383H457.938V385ZM461.988 385H463V383H461.988V385Z" fill="#F0CD51"/>
<path d="M486.667 481C486.667 478.054 489.054 475.667 492 475.667C494.946 475.667 497.333 478.054 497.333 481C497.333 483.946 494.946 486.333 492 486.333C489.054 486.333 486.667 483.946 486.667 481ZM438 535L438.707 535.707L438.414 536H438V535ZM246 535L256 529.226V540.774L246 535ZM249 534H251V536H249V534ZM253 534H255V536H253V534ZM257 534H259V536H257V534ZM261 534H263V536H261V534ZM265 534H267V536H265V534ZM269 534H271V536H269V534ZM273 534H275V536H273V534ZM277 534H279V536H277V534ZM281 534H283V536H281V534ZM285 534H287V536H285V534ZM289 534H291V536H289V534ZM293 534H295V536H293V534ZM297 534H299V536H297V534ZM301 534H303V536H301V534ZM305 534H307V536H305V534ZM309 534H311V536H309V534ZM313 534H315V536H313V534ZM317 534H319V536H317V534ZM321 534H323V536H321V534ZM325 534H327V536H325V534ZM329 534H331V536H329V534ZM333 534H335V536H333V534ZM337 534H339V536H337V534ZM341 534H343V536H341V534ZM345 534H347V536H345V534ZM349 534H351V536H349V534ZM353 534H355V536H353V534ZM357 534H359V536H357V534ZM361 534H363V536H361V534ZM365 534H367V536H365V534ZM369 534H371V536H369V534ZM373 534H375V536H373V534ZM377 534H379V536H377V534ZM381 534H383V536H381V534ZM385 534H387V536H385V534ZM389 534H391V536H389V534ZM393 534H395V536H393V534ZM397 534H399V536H397V534ZM401 534H403V536H401V534ZM405 534H407V536H405V534ZM409 534H411V536H409V534ZM413 534H415V536H413V534ZM417 534H419V536H417V534ZM421 534H423V536H421V534ZM425 534H427V536H425V534ZM429 534H431V536H429V534ZM433 534H435V536H433V534ZM437 534H438V536H437V534ZM437.293 534.293L438.003 533.582L439.418 534.997L438.707 535.707L437.293 534.293ZM439.424 532.161L440.846 530.74L442.26 532.154L440.839 533.576L439.424 532.161ZM442.267 529.319L443.688 527.898L445.102 529.312L443.681 530.733L442.267 529.319ZM445.109 526.477L446.53 525.056L447.944 526.47L446.523 527.891L445.109 526.477ZM447.951 523.635L449.372 522.214L450.786 523.628L449.365 525.049L447.951 523.635ZM450.793 520.793L452.214 519.372L453.628 520.786L452.207 522.207L450.793 520.793ZM453.635 517.951L455.056 516.53L456.47 517.944L455.049 519.365L453.635 517.951ZM456.477 515.109L457.898 513.688L459.312 515.102L457.891 516.523L456.477 515.109ZM459.319 512.267L460.74 510.846L462.154 512.26L460.733 513.681L459.319 512.267ZM462.161 509.424L463.582 508.003L464.997 509.418L463.576 510.839L462.161 509.424ZM465.003 506.582L466.424 505.161L467.839 506.576L466.418 507.997L465.003 506.582ZM467.846 503.74L469.267 502.319L470.681 503.733L469.26 505.154L467.846 503.74ZM470.688 500.898L472.109 499.477L473.523 500.891L472.102 502.312L470.688 500.898ZM473.53 498.056L474.951 496.635L476.365 498.049L474.944 499.47L473.53 498.056ZM476.372 495.214L477.793 493.793L479.207 495.207L477.786 496.628L476.372 495.214ZM479.214 492.372L480.635 490.951L482.049 492.365L480.628 493.786L479.214 492.372ZM482.056 489.53L483.477 488.109L484.891 489.523L483.47 490.944L482.056 489.53ZM484.898 486.688L486.319 485.267L487.733 486.681L486.312 488.102L484.898 486.688ZM487.74 483.846L489.161 482.424L490.576 483.839L489.154 485.26L487.74 483.846ZM490.582 481.003L491.293 480.293L492.707 481.707L491.997 482.418L490.582 481.003Z" fill="#F0CD51"/>
<path d="M783.833 473C783.833 470.054 781.446 467.667 778.5 467.667C775.554 467.667 773.167 470.054 773.167 473C773.167 475.946 775.554 478.333 778.5 478.333C781.446 478.333 783.833 475.946 783.833 473ZM829 522L828.304 522.718L828.595 523H829V522ZM1046 522L1036 516.226V527.774L1046 522ZM1042.99 521H1040.98V523H1042.99V521ZM1038.97 521H1036.96V523H1038.97V521ZM1034.95 521H1032.94V523H1034.95V521ZM1030.93 521H1028.92V523H1030.93V521ZM1026.91 521H1024.9V523H1026.91V521ZM1022.89 521H1020.88V523H1022.89V521ZM1018.88 521H1016.87V523H1018.88V521ZM1014.86 521H1012.85V523H1014.86V521ZM1010.84 521H1008.83V523H1010.84V521ZM1006.82 521H1004.81V523H1006.82V521ZM1002.8 521H1000.79V523H1002.8V521ZM998.782 521H996.773V523H998.782V521ZM994.764 521H992.755V523H994.764V521ZM990.745 521H988.736V523H990.745V521ZM986.727 521H984.718V523H986.727V521ZM982.708 521H980.699V523H982.708V521ZM978.69 521H976.681V523H978.69V521ZM974.671 521H972.662V523H974.671V521ZM970.653 521H968.644V523H970.653V521ZM966.634 521H964.625V523H966.634V521ZM962.616 521H960.606V523H962.616V521ZM958.597 521H956.588V523H958.597V521ZM954.579 521H952.569V523H954.579V521ZM950.56 521H948.551V523H950.56V521ZM946.542 521H944.532V523H946.542V521ZM942.523 521H940.514V523H942.523V521ZM938.505 521H936.495V523H938.505V521ZM934.486 521H932.477V523H934.486V521ZM930.468 521H928.458V523H930.468V521ZM926.449 521H924.44V523H926.449V521ZM922.43 521H920.421V523H922.43V521ZM918.412 521H916.403V523H918.412V521ZM914.393 521H912.384V523H914.393V521ZM910.375 521H908.366V523H910.375V521ZM906.356 521H904.347V523H906.356V521ZM902.338 521H900.329V523H902.338V521ZM898.319 521H896.31V523H898.319V521ZM894.301 521H892.292V523H894.301V521ZM890.282 521H888.273V523H890.282V521ZM886.264 521H884.255V523H886.264V521ZM882.245 521H880.236V523H882.245V521ZM878.227 521H876.217V523H878.227V521ZM874.208 521H872.199V523H874.208V521ZM870.19 521H868.18V523H870.19V521ZM866.171 521H864.162V523H866.171V521ZM862.153 521H860.143V523H862.153V521ZM858.134 521H856.125V523H858.134V521ZM854.116 521H852.106V523H854.116V521ZM850.097 521H848.088V523H850.097V521ZM846.079 521H844.069V523H846.079V521ZM842.06 521H840.051V523H842.06V521ZM838.041 521H836.032V523H838.041V521ZM834.023 521H832.014V523H834.023V521ZM830.004 521H829V523H830.004V521ZM829.696 521.282L828.995 520.602L827.602 522.037L828.304 522.718L829.696 521.282ZM827.592 519.241L826.189 517.88L824.797 519.315L826.199 520.676L827.592 519.241ZM824.787 516.518L823.384 515.157L821.991 516.593L823.394 517.954L824.787 516.518ZM821.981 513.796L820.578 512.435L819.186 513.87L820.588 515.232L821.981 513.796ZM819.176 511.074L817.773 509.713L816.38 511.148L817.783 512.509L819.176 511.074ZM816.37 508.352L814.967 506.991L813.574 508.426L814.977 509.787L816.37 508.352ZM813.564 505.63L812.162 504.268L810.769 505.704L812.172 507.065L813.564 505.63ZM810.759 502.907L809.356 501.546L807.963 502.982L809.366 504.343L810.759 502.907ZM807.953 500.185L806.551 498.824L805.158 500.259L806.561 501.62L807.953 500.185ZM805.148 497.463L803.745 496.102L802.352 497.537L803.755 498.898L805.148 497.463ZM802.342 494.741L800.939 493.38L799.547 494.815L800.949 496.176L802.342 494.741ZM799.537 492.018L798.134 490.657L796.741 492.093L798.144 493.454L799.537 492.018ZM796.731 489.296L795.328 487.935L793.936 489.37L795.338 490.732L796.731 489.296ZM793.926 486.574L792.523 485.213L791.13 486.648L792.533 488.009L793.926 486.574ZM791.12 483.852L789.717 482.491L788.324 483.926L789.727 485.287L791.12 483.852ZM788.314 481.13L786.912 479.768L785.519 481.204L786.922 482.565L788.314 481.13ZM785.509 478.407L784.106 477.046L782.713 478.482L784.116 479.843L785.509 478.407ZM782.703 475.685L781.301 474.324L779.908 475.759L781.311 477.12L782.703 475.685ZM779.898 472.963L779.196 472.282L777.804 473.718L778.505 474.398L779.898 472.963Z" fill="#F0CD51"/>
<path d="M148.515 243C148.368 243 148.248 242.953 148.155 242.86C148.062 242.767 148.015 242.647 148.015 242.5V229.5C148.015 229.353 148.062 229.233 148.155 229.14C148.248 229.047 148.368 229 148.515 229H153.975C155.055 229 155.988 229.167 156.775 229.5C157.575 229.833 158.195 230.34 158.635 231.02C159.088 231.687 159.315 232.52 159.315 233.52C159.315 234.533 159.088 235.373 158.635 236.04C158.195 236.693 157.575 237.18 156.775 237.5C155.988 237.82 155.055 237.98 153.975 237.98H151.295V242.5C151.295 242.647 151.248 242.767 151.155 242.86C151.062 242.953 150.942 243 150.795 243H148.515ZM151.235 235.5H153.875C154.555 235.5 155.082 235.333 155.455 235C155.842 234.667 156.035 234.167 156.035 233.5C156.035 232.913 155.862 232.433 155.515 232.06C155.182 231.687 154.635 231.5 153.875 231.5H151.235V235.5ZM165.895 243.2C164.788 243.2 163.862 243.02 163.115 242.66C162.368 242.287 161.795 241.76 161.395 241.08C161.008 240.4 160.795 239.607 160.755 238.7C160.742 238.433 160.735 238.133 160.735 237.8C160.735 237.453 160.742 237.153 160.755 236.9C160.795 235.98 161.022 235.187 161.435 234.52C161.848 233.84 162.428 233.32 163.175 232.96C163.922 232.587 164.828 232.4 165.895 232.4C166.948 232.4 167.848 232.587 168.595 232.96C169.342 233.32 169.922 233.84 170.335 234.52C170.748 235.187 170.975 235.98 171.015 236.9C171.042 237.153 171.055 237.453 171.055 237.8C171.055 238.133 171.042 238.433 171.015 238.7C170.975 239.607 170.755 240.4 170.355 241.08C169.968 241.76 169.402 242.287 168.655 242.66C167.908 243.02 166.988 243.2 165.895 243.2ZM165.895 241C166.548 241 167.042 240.8 167.375 240.4C167.708 239.987 167.888 239.387 167.915 238.6C167.928 238.4 167.935 238.133 167.935 237.8C167.935 237.467 167.928 237.2 167.915 237C167.888 236.227 167.708 235.633 167.375 235.22C167.042 234.807 166.548 234.6 165.895 234.6C165.242 234.6 164.742 234.807 164.395 235.22C164.062 235.633 163.882 236.227 163.855 237C163.842 237.2 163.835 237.467 163.835 237.8C163.835 238.133 163.842 238.4 163.855 238.6C163.882 239.387 164.062 239.987 164.395 240.4C164.742 240.8 165.242 241 165.895 241ZM177.767 243.2C176.793 243.2 175.933 243.02 175.187 242.66C174.453 242.3 173.873 241.78 173.447 241.1C173.02 240.407 172.787 239.58 172.747 238.62C172.733 238.407 172.727 238.14 172.727 237.82C172.727 237.487 172.733 237.213 172.747 237C172.787 236.027 173.013 235.2 173.427 234.52C173.853 233.827 174.44 233.3 175.187 232.94C175.933 232.58 176.793 232.4 177.767 232.4C178.66 232.4 179.42 232.527 180.047 232.78C180.673 233.02 181.187 233.327 181.587 233.7C181.987 234.073 182.28 234.467 182.467 234.88C182.667 235.28 182.773 235.633 182.787 235.94C182.8 236.073 182.753 236.193 182.647 236.3C182.553 236.393 182.44 236.44 182.307 236.44H180.167C180.033 236.44 179.927 236.407 179.847 236.34C179.78 236.26 179.713 236.153 179.647 236.02C179.46 235.553 179.22 235.22 178.927 235.02C178.633 234.82 178.267 234.72 177.827 234.72C177.227 234.72 176.753 234.913 176.407 235.3C176.06 235.687 175.873 236.287 175.847 237.1C175.833 237.62 175.833 238.093 175.847 238.52C175.887 239.347 176.073 239.947 176.407 240.32C176.753 240.693 177.227 240.88 177.827 240.88C178.293 240.88 178.667 240.78 178.947 240.58C179.227 240.38 179.46 240.047 179.647 239.58C179.7 239.447 179.767 239.347 179.847 239.28C179.927 239.2 180.033 239.16 180.167 239.16H182.307C182.44 239.16 182.553 239.213 182.647 239.32C182.753 239.413 182.8 239.527 182.787 239.66C182.773 239.887 182.707 240.153 182.587 240.46C182.48 240.767 182.3 241.08 182.047 241.4C181.807 241.72 181.493 242.02 181.107 242.3C180.72 242.567 180.247 242.787 179.687 242.96C179.14 243.12 178.5 243.2 177.767 243.2ZM189.368 243.2C188.395 243.2 187.535 243.02 186.788 242.66C186.055 242.3 185.475 241.78 185.048 241.1C184.622 240.407 184.388 239.58 184.348 238.62C184.335 238.407 184.328 238.14 184.328 237.82C184.328 237.487 184.335 237.213 184.348 237C184.388 236.027 184.615 235.2 185.028 234.52C185.455 233.827 186.042 233.3 186.788 232.94C187.535 232.58 188.395 232.4 189.368 232.4C190.262 232.4 191.022 232.527 191.648 232.78C192.275 233.02 192.788 233.327 193.188 233.7C193.588 234.073 193.882 234.467 194.068 234.88C194.268 235.28 194.375 235.633 194.388 235.94C194.402 236.073 194.355 236.193 194.248 236.3C194.155 236.393 194.042 236.44 193.908 236.44H191.768C191.635 236.44 191.528 236.407 191.448 236.34C191.382 236.26 191.315 236.153 191.248 236.02C191.062 235.553 190.822 235.22 190.528 235.02C190.235 234.82 189.868 234.72 189.428 234.72C188.828 234.72 188.355 234.913 188.008 235.3C187.662 235.687 187.475 236.287 187.448 237.1C187.435 237.62 187.435 238.093 187.448 238.52C187.488 239.347 187.675 239.947 188.008 240.32C188.355 240.693 188.828 240.88 189.428 240.88C189.895 240.88 190.268 240.78 190.548 240.58C190.828 240.38 191.062 240.047 191.248 239.58C191.302 239.447 191.368 239.347 191.448 239.28C191.528 239.2 191.635 239.16 191.768 239.16H193.908C194.042 239.16 194.155 239.213 194.248 239.32C194.355 239.413 194.402 239.527 194.388 239.66C194.375 239.887 194.308 240.153 194.188 240.46C194.082 240.767 193.902 241.08 193.648 241.4C193.408 241.72 193.095 242.02 192.708 242.3C192.322 242.567 191.848 242.787 191.288 242.96C190.742 243.12 190.102 243.2 189.368 243.2ZM196.81 243C196.69 243 196.583 242.953 196.49 242.86C196.397 242.767 196.35 242.653 196.35 242.52V233.1C196.35 232.953 196.397 232.833 196.49 232.74C196.583 232.647 196.697 232.6 196.83 232.6H198.83C198.977 232.6 199.097 232.647 199.19 232.74C199.283 232.833 199.33 232.953 199.33 233.1V240.7L198.53 240.24L203.75 232.92C203.817 232.827 203.89 232.753 203.97 232.7C204.063 232.633 204.177 232.6 204.31 232.6H206.11C206.243 232.6 206.357 232.647 206.45 232.74C206.543 232.833 206.59 232.94 206.59 233.06V242.5C206.59 242.647 206.543 242.767 206.45 242.86C206.357 242.953 206.237 243 206.09 243H204.09C203.957 243 203.843 242.953 203.75 242.86C203.657 242.767 203.61 242.647 203.61 242.5V235.2L204.43 235.34L199.17 242.68C199.117 242.773 199.043 242.853 198.95 242.92C198.857 242.973 198.75 243 198.63 243H196.81ZM215.588 243C215.441 243 215.321 242.953 215.228 242.86C215.134 242.767 215.088 242.647 215.088 242.5V239.56H213.268V239.46C211.881 239.46 210.834 239.153 210.128 238.54C209.421 237.913 209.068 237.08 209.068 236.04C209.068 234.907 209.428 234.053 210.148 233.48C210.881 232.893 211.914 232.6 213.248 232.6H217.648C217.794 232.6 217.914 232.647 218.008 232.74C218.101 232.833 218.148 232.953 218.148 233.1V242.5C218.148 242.647 218.101 242.767 218.008 242.86C217.914 242.953 217.794 243 217.648 243H215.588ZM209.148 243C209.028 243 208.928 242.96 208.848 242.88C208.768 242.8 208.728 242.707 208.728 242.6C208.728 242.56 208.734 242.513 208.748 242.46C208.774 242.407 208.808 242.353 208.848 242.3L211.028 238.78L213.708 239.2L211.668 242.7C211.614 242.78 211.541 242.853 211.448 242.92C211.368 242.973 211.274 243 211.168 243H209.148ZM213.268 237.46H215.148V234.7H213.368C212.821 234.7 212.414 234.8 212.148 235C211.881 235.2 211.748 235.547 211.748 236.04C211.748 236.453 211.868 236.793 212.108 237.06C212.361 237.327 212.748 237.46 213.268 237.46Z" fill="white"/>
<path d="M275.148 388C275.001 388 274.881 387.953 274.788 387.86C274.695 387.767 274.648 387.647 274.648 387.5V374.5C274.648 374.353 274.695 374.233 274.788 374.14C274.881 374.047 275.001 374 275.148 374H277.328C277.475 374 277.595 374.047 277.688 374.14C277.781 374.233 277.828 374.353 277.828 374.5V379.5H279.308L282.408 374.38C282.475 374.273 282.568 374.187 282.688 374.12C282.808 374.04 282.961 374 283.148 374H285.568C285.701 374 285.801 374.047 285.868 374.14C285.948 374.22 285.988 374.313 285.988 374.42C285.988 374.5 285.961 374.58 285.908 374.66L282.168 380.74L286.288 387.32C286.315 387.373 286.328 387.447 286.328 387.54C286.328 387.673 286.281 387.787 286.188 387.88C286.108 387.96 286.008 388 285.888 388H283.388C283.188 388 283.041 387.96 282.948 387.88C282.855 387.787 282.781 387.707 282.728 387.64L279.428 382.34H277.828V387.5C277.828 387.647 277.781 387.767 277.688 387.86C277.595 387.953 277.475 388 277.328 388H275.148ZM288.579 388C288.459 388 288.353 387.953 288.259 387.86C288.166 387.767 288.119 387.653 288.119 387.52V378.1C288.119 377.953 288.166 377.833 288.259 377.74C288.353 377.647 288.466 377.6 288.599 377.6H290.599C290.746 377.6 290.866 377.647 290.959 377.74C291.053 377.833 291.099 377.953 291.099 378.1V385.7L290.299 385.24L295.519 377.92C295.586 377.827 295.659 377.753 295.739 377.7C295.833 377.633 295.946 377.6 296.079 377.6H297.879C298.013 377.6 298.126 377.647 298.219 377.74C298.313 377.833 298.359 377.94 298.359 378.06V387.5C298.359 387.647 298.313 387.767 298.219 387.86C298.126 387.953 298.006 388 297.859 388H295.859C295.726 388 295.613 387.953 295.519 387.86C295.426 387.767 295.379 387.647 295.379 387.5V380.2L296.199 380.34L290.939 387.68C290.886 387.773 290.813 387.853 290.719 387.92C290.626 387.973 290.519 388 290.399 388H288.579ZM301.217 391.8C301.07 391.8 300.95 391.753 300.857 391.66C300.764 391.567 300.717 391.447 300.717 391.3V378.1C300.717 377.953 300.764 377.833 300.857 377.74C300.95 377.647 301.07 377.6 301.217 377.6H303.117C303.264 377.6 303.384 377.647 303.477 377.74C303.57 377.833 303.617 377.953 303.617 378.1V378.86C303.937 378.433 304.35 378.087 304.857 377.82C305.364 377.54 305.997 377.4 306.757 377.4C307.45 377.4 308.05 377.513 308.557 377.74C309.077 377.953 309.51 378.267 309.857 378.68C310.217 379.08 310.49 379.567 310.677 380.14C310.877 380.713 310.99 381.36 311.017 382.08C311.03 382.333 311.037 382.573 311.037 382.8C311.037 383.027 311.03 383.273 311.017 383.54C311.004 384.22 310.897 384.847 310.697 385.42C310.51 385.993 310.237 386.487 309.877 386.9C309.517 387.313 309.077 387.633 308.557 387.86C308.05 388.087 307.45 388.2 306.757 388.2C306.077 388.2 305.484 388.08 304.977 387.84C304.484 387.587 304.077 387.247 303.757 386.82V391.3C303.757 391.447 303.71 391.567 303.617 391.66C303.524 391.753 303.41 391.8 303.277 391.8H301.217ZM305.857 385.8C306.364 385.8 306.764 385.693 307.057 385.48C307.35 385.253 307.557 384.96 307.677 384.6C307.81 384.24 307.89 383.847 307.917 383.42C307.944 383.007 307.944 382.593 307.917 382.18C307.89 381.753 307.81 381.36 307.677 381C307.557 380.64 307.35 380.353 307.057 380.14C306.764 379.913 306.364 379.8 305.857 379.8C305.364 379.8 304.964 379.913 304.657 380.14C304.35 380.367 304.13 380.653 303.997 381C303.864 381.347 303.784 381.72 303.757 382.12C303.744 382.36 303.737 382.607 303.737 382.86C303.737 383.113 303.744 383.367 303.757 383.62C303.77 383.993 303.85 384.347 303.997 384.68C304.157 385 304.384 385.267 304.677 385.48C304.984 385.693 305.377 385.8 305.857 385.8ZM313.638 388C313.505 388 313.392 387.953 313.298 387.86C313.205 387.767 313.158 387.647 313.158 387.5V378.1C313.158 377.953 313.205 377.833 313.298 377.74C313.392 377.647 313.505 377.6 313.638 377.6H320.138C320.285 377.6 320.405 377.647 320.498 377.74C320.592 377.833 320.638 377.953 320.638 378.1V379.46C320.638 379.607 320.592 379.727 320.498 379.82C320.405 379.913 320.285 379.96 320.138 379.96H316.138V387.5C316.138 387.647 316.092 387.767 315.998 387.86C315.905 387.953 315.785 388 315.638 388H313.638ZM322.661 388C322.541 388 322.435 387.953 322.341 387.86C322.248 387.767 322.201 387.653 322.201 387.52V378.1C322.201 377.953 322.248 377.833 322.341 377.74C322.435 377.647 322.548 377.6 322.681 377.6H324.681C324.828 377.6 324.948 377.647 325.041 377.74C325.135 377.833 325.181 377.953 325.181 378.1V385.7L324.381 385.24L329.601 377.92C329.668 377.827 329.741 377.753 329.821 377.7C329.915 377.633 330.028 377.6 330.161 377.6H331.961C332.095 377.6 332.208 377.647 332.301 377.74C332.395 377.833 332.441 377.94 332.441 378.06V387.5C332.441 387.647 332.395 387.767 332.301 387.86C332.208 387.953 332.088 388 331.941 388H329.941C329.808 388 329.695 387.953 329.601 387.86C329.508 387.767 329.461 387.647 329.461 387.5V380.2L330.281 380.34L325.021 387.68C324.968 387.773 324.895 387.853 324.801 387.92C324.708 387.973 324.601 388 324.481 388H322.661ZM338.959 388.2C338.066 388.2 337.326 388.1 336.739 387.9C336.152 387.7 335.679 387.447 335.319 387.14C334.972 386.82 334.719 386.487 334.559 386.14C334.412 385.793 334.326 385.48 334.299 385.2C334.286 385.093 334.319 385.007 334.399 384.94C334.479 384.86 334.566 384.82 334.659 384.82H336.619C336.766 384.82 336.872 384.853 336.939 384.92C337.019 384.973 337.086 385.053 337.139 385.16C337.272 385.493 337.492 385.733 337.799 385.88C338.119 386.013 338.532 386.08 339.039 386.08C339.372 386.08 339.672 386.033 339.939 385.94C340.206 385.847 340.406 385.713 340.539 385.54C340.686 385.353 340.759 385.12 340.759 384.84C340.759 384.453 340.646 384.16 340.419 383.96C340.192 383.747 339.812 383.64 339.279 383.64H338.179C338.046 383.64 337.939 383.6 337.859 383.52C337.779 383.427 337.739 383.32 337.739 383.2V382.22C337.739 382.1 337.779 382 337.859 381.92C337.939 381.827 338.046 381.78 338.179 381.78H339.219C339.659 381.78 339.986 381.7 340.199 381.54C340.412 381.367 340.519 381.107 340.519 380.76C340.519 380.547 340.466 380.347 340.359 380.16C340.266 379.973 340.106 379.827 339.879 379.72C339.652 379.6 339.339 379.54 338.939 379.54C338.379 379.54 337.979 379.627 337.739 379.8C337.499 379.973 337.319 380.233 337.199 380.58C337.146 380.687 337.079 380.767 336.999 380.82C336.932 380.873 336.826 380.9 336.679 380.9H334.779C334.672 380.9 334.579 380.867 334.499 380.8C334.432 380.733 334.399 380.647 334.399 380.54C334.426 380.18 334.526 379.82 334.699 379.46C334.872 379.087 335.132 378.747 335.479 378.44C335.839 378.12 336.299 377.867 336.859 377.68C337.432 377.493 338.132 377.4 338.959 377.4C340.052 377.4 340.926 377.54 341.579 377.82C342.232 378.1 342.699 378.467 342.979 378.92C343.272 379.36 343.419 379.84 343.419 380.36C343.419 380.827 343.326 381.247 343.139 381.62C342.952 381.98 342.619 382.28 342.139 382.52C342.739 382.747 343.152 383.093 343.379 383.56C343.606 384.027 343.719 384.527 343.719 385.06C343.732 385.713 343.539 386.273 343.139 386.74C342.752 387.207 342.199 387.567 341.479 387.82C340.772 388.073 339.932 388.2 338.959 388.2ZM346.177 388C346.057 388 345.95 387.953 345.857 387.86C345.764 387.767 345.717 387.653 345.717 387.52V378.1C345.717 377.953 345.764 377.833 345.857 377.74C345.95 377.647 346.064 377.6 346.197 377.6H348.197C348.344 377.6 348.464 377.647 348.557 377.74C348.65 377.833 348.697 377.953 348.697 378.1V385.7L347.897 385.24L353.117 377.92C353.184 377.827 353.257 377.753 353.337 377.7C353.43 377.633 353.544 377.6 353.677 377.6H355.477C355.61 377.6 355.724 377.647 355.817 377.74C355.91 377.833 355.957 377.94 355.957 378.06V387.5C355.957 387.647 355.91 387.767 355.817 387.86C355.724 387.953 355.604 388 355.457 388H353.457C353.324 388 353.21 387.953 353.117 387.86C353.024 387.767 352.977 387.647 352.977 387.5V380.2L353.797 380.34L348.537 387.68C348.484 387.773 348.41 387.853 348.317 387.92C348.224 387.973 348.117 388 347.997 388H346.177ZM364.955 388C364.808 388 364.688 387.953 364.595 387.86C364.501 387.767 364.455 387.647 364.455 387.5V384.56H362.635V384.46C361.248 384.46 360.201 384.153 359.495 383.54C358.788 382.913 358.435 382.08 358.435 381.04C358.435 379.907 358.795 379.053 359.515 378.48C360.248 377.893 361.281 377.6 362.615 377.6H367.015C367.161 377.6 367.281 377.647 367.375 377.74C367.468 377.833 367.515 377.953 367.515 378.1V387.5C367.515 387.647 367.468 387.767 367.375 387.86C367.281 387.953 367.161 388 367.015 388H364.955ZM358.515 388C358.395 388 358.295 387.96 358.215 387.88C358.135 387.8 358.095 387.707 358.095 387.6C358.095 387.56 358.101 387.513 358.115 387.46C358.141 387.407 358.175 387.353 358.215 387.3L360.395 383.78L363.075 384.2L361.035 387.7C360.981 387.78 360.908 387.853 360.815 387.92C360.735 387.973 360.641 388 360.535 388H358.515ZM362.635 382.46H364.515V379.7H362.735C362.188 379.7 361.781 379.8 361.515 380C361.248 380.2 361.115 380.547 361.115 381.04C361.115 381.453 361.235 381.793 361.475 382.06C361.728 382.327 362.115 382.46 362.635 382.46Z" fill="white"/>
<path d="M136.281 540C136.147 540 136.027 539.953 135.921 539.86C135.827 539.767 135.781 539.647 135.781 539.5V526.5C135.781 526.353 135.827 526.233 135.921 526.14C136.027 526.047 136.147 526 136.281 526H138.141C138.341 526 138.487 526.053 138.581 526.16C138.687 526.267 138.761 526.347 138.801 526.4L142.481 533.18L146.201 526.4C146.227 526.347 146.287 526.267 146.381 526.16C146.487 526.053 146.641 526 146.841 526H148.701C148.847 526 148.967 526.047 149.061 526.14C149.154 526.233 149.201 526.353 149.201 526.5V539.5C149.201 539.647 149.154 539.767 149.061 539.86C148.967 539.953 148.847 540 148.701 540H146.661C146.527 540 146.414 539.953 146.321 539.86C146.227 539.767 146.181 539.647 146.181 539.5V531.42L143.641 536.18C143.574 536.3 143.487 536.407 143.381 536.5C143.274 536.593 143.134 536.64 142.961 536.64H142.021C141.847 536.64 141.707 536.593 141.601 536.5C141.494 536.407 141.407 536.3 141.341 536.18L138.801 531.42V539.5C138.801 539.647 138.754 539.767 138.661 539.86C138.567 539.953 138.454 540 138.321 540H136.281ZM156.708 540.2C155.601 540.2 154.674 540.02 153.928 539.66C153.181 539.287 152.608 538.76 152.208 538.08C151.821 537.4 151.608 536.607 151.568 535.7C151.554 535.433 151.548 535.133 151.548 534.8C151.548 534.453 151.554 534.153 151.568 533.9C151.608 532.98 151.834 532.187 152.248 531.52C152.661 530.84 153.241 530.32 153.988 529.96C154.734 529.587 155.641 529.4 156.708 529.4C157.761 529.4 158.661 529.587 159.408 529.96C160.154 530.32 160.734 530.84 161.148 531.52C161.561 532.187 161.788 532.98 161.828 533.9C161.854 534.153 161.868 534.453 161.868 534.8C161.868 535.133 161.854 535.433 161.828 535.7C161.788 536.607 161.568 537.4 161.168 538.08C160.781 538.76 160.214 539.287 159.468 539.66C158.721 540.02 157.801 540.2 156.708 540.2ZM156.708 538C157.361 538 157.854 537.8 158.188 537.4C158.521 536.987 158.701 536.387 158.728 535.6C158.741 535.4 158.748 535.133 158.748 534.8C158.748 534.467 158.741 534.2 158.728 534C158.701 533.227 158.521 532.633 158.188 532.22C157.854 531.807 157.361 531.6 156.708 531.6C156.054 531.6 155.554 531.807 155.208 532.22C154.874 532.633 154.694 533.227 154.668 534C154.654 534.2 154.648 534.467 154.648 534.8C154.648 535.133 154.654 535.4 154.668 535.6C154.694 536.387 154.874 536.987 155.208 537.4C155.554 537.8 156.054 538 156.708 538ZM164.439 540C164.306 540 164.193 539.953 164.099 539.86C164.006 539.767 163.959 539.647 163.959 539.5V530.1C163.959 529.953 164.006 529.833 164.099 529.74C164.193 529.647 164.306 529.6 164.439 529.6H166.439C166.586 529.6 166.706 529.647 166.799 529.74C166.893 529.833 166.939 529.953 166.939 530.1V533.54H170.999V530.1C170.999 529.953 171.046 529.833 171.139 529.74C171.233 529.647 171.353 529.6 171.499 529.6H173.499C173.633 529.6 173.746 529.647 173.839 529.74C173.933 529.833 173.979 529.953 173.979 530.1V539.5C173.979 539.647 173.933 539.767 173.839 539.86C173.746 539.953 173.633 540 173.499 540H171.499C171.353 540 171.233 539.953 171.139 539.86C171.046 539.767 170.999 539.647 170.999 539.5V535.9H166.939V539.5C166.939 539.647 166.893 539.767 166.799 539.86C166.706 539.953 166.586 540 166.439 540H164.439ZM177.037 540C176.904 540 176.79 539.953 176.697 539.86C176.604 539.767 176.557 539.647 176.557 539.5V530.1C176.557 529.953 176.604 529.833 176.697 529.74C176.79 529.647 176.904 529.6 177.037 529.6H183.537C183.684 529.6 183.804 529.647 183.897 529.74C183.99 529.833 184.037 529.953 184.037 530.1V531.46C184.037 531.607 183.99 531.727 183.897 531.82C183.804 531.913 183.684 531.96 183.537 531.96H179.537V539.5C179.537 539.647 179.49 539.767 179.397 539.86C179.304 539.953 179.184 540 179.037 540H177.037ZM190.204 540.2C189.097 540.2 188.17 540.02 187.424 539.66C186.677 539.287 186.104 538.76 185.704 538.08C185.317 537.4 185.104 536.607 185.064 535.7C185.05 535.433 185.044 535.133 185.044 534.8C185.044 534.453 185.05 534.153 185.064 533.9C185.104 532.98 185.33 532.187 185.744 531.52C186.157 530.84 186.737 530.32 187.484 529.96C188.23 529.587 189.137 529.4 190.204 529.4C191.257 529.4 192.157 529.587 192.904 529.96C193.65 530.32 194.23 530.84 194.644 531.52C195.057 532.187 195.284 532.98 195.324 533.9C195.35 534.153 195.364 534.453 195.364 534.8C195.364 535.133 195.35 535.433 195.324 535.7C195.284 536.607 195.064 537.4 194.664 538.08C194.277 538.76 193.71 539.287 192.964 539.66C192.217 540.02 191.297 540.2 190.204 540.2ZM190.204 538C190.857 538 191.35 537.8 191.684 537.4C192.017 536.987 192.197 536.387 192.224 535.6C192.237 535.4 192.244 535.133 192.244 534.8C192.244 534.467 192.237 534.2 192.224 534C192.197 533.227 192.017 532.633 191.684 532.22C191.35 531.807 190.857 531.6 190.204 531.6C189.55 531.6 189.05 531.807 188.704 532.22C188.37 532.633 188.19 533.227 188.164 534C188.15 534.2 188.144 534.467 188.144 534.8C188.144 535.133 188.15 535.4 188.164 535.6C188.19 536.387 188.37 536.987 188.704 537.4C189.05 537.8 189.55 538 190.204 538ZM197.039 540C196.906 540 196.786 539.953 196.679 539.86C196.586 539.753 196.539 539.633 196.539 539.5V538C196.539 537.707 196.699 537.547 197.019 537.52C197.406 537.48 197.706 537.3 197.919 536.98C198.146 536.647 198.306 536.14 198.399 535.46C198.492 534.78 198.539 533.907 198.539 532.84V530.1C198.539 529.953 198.586 529.833 198.679 529.74C198.772 529.647 198.892 529.6 199.039 529.6H206.499C206.646 529.6 206.766 529.647 206.859 529.74C206.952 529.833 206.999 529.953 206.999 530.1V539.5C206.999 539.647 206.952 539.767 206.859 539.86C206.766 539.953 206.646 540 206.499 540H204.499C204.366 540 204.246 539.953 204.139 539.86C204.046 539.767 203.999 539.647 203.999 539.5V531.96H201.399V533.18C201.399 534.447 201.326 535.52 201.179 536.4C201.046 537.28 200.812 537.987 200.479 538.52C200.146 539.04 199.699 539.42 199.139 539.66C198.579 539.887 197.879 540 197.039 540ZM210.044 540C209.924 540 209.818 539.953 209.724 539.86C209.631 539.767 209.584 539.653 209.584 539.52V530.1C209.584 529.953 209.631 529.833 209.724 529.74C209.818 529.647 209.931 529.6 210.064 529.6H212.064C212.211 529.6 212.331 529.647 212.424 529.74C212.518 529.833 212.564 529.953 212.564 530.1V537.7L211.764 537.24L216.984 529.92C217.051 529.827 217.124 529.753 217.204 529.7C217.298 529.633 217.411 529.6 217.544 529.6H219.344C219.478 529.6 219.591 529.647 219.684 529.74C219.778 529.833 219.824 529.94 219.824 530.06V539.5C219.824 539.647 219.778 539.767 219.684 539.86C219.591 539.953 219.471 540 219.324 540H217.324C217.191 540 217.078 539.953 216.984 539.86C216.891 539.767 216.844 539.647 216.844 539.5V532.2L217.664 532.34L212.404 539.68C212.351 539.773 212.278 539.853 212.184 539.92C212.091 539.973 211.984 540 211.864 540H210.044ZM228.822 540C228.675 540 228.555 539.953 228.462 539.86C228.369 539.767 228.322 539.647 228.322 539.5V536.56H226.502V536.46C225.115 536.46 224.069 536.153 223.362 535.54C222.655 534.913 222.302 534.08 222.302 533.04C222.302 531.907 222.662 531.053 223.382 530.48C224.115 529.893 225.149 529.6 226.482 529.6H230.882C231.029 529.6 231.149 529.647 231.242 529.74C231.335 529.833 231.382 529.953 231.382 530.1V539.5C231.382 539.647 231.335 539.767 231.242 539.86C231.149 539.953 231.029 540 230.882 540H228.822ZM222.382 540C222.262 540 222.162 539.96 222.082 539.88C222.002 539.8 221.962 539.707 221.962 539.6C221.962 539.56 221.969 539.513 221.982 539.46C222.009 539.407 222.042 539.353 222.082 539.3L224.262 535.78L226.942 536.2L224.902 539.7C224.849 539.78 224.775 539.853 224.682 539.92C224.602 539.973 224.509 540 224.402 540H222.382ZM226.502 534.46H228.382V531.7H226.602C226.055 531.7 225.649 531.8 225.382 532C225.115 532.2 224.982 532.547 224.982 533.04C224.982 533.453 225.102 533.793 225.342 534.06C225.595 534.327 225.982 534.46 226.502 534.46Z" fill="white"/>
<path d="M1063.08 249C1062.96 249 1062.86 248.96 1062.78 248.88C1062.7 248.787 1062.66 248.687 1062.66 248.58C1062.66 248.513 1062.66 248.453 1062.68 248.4L1067.44 235.54C1067.48 235.393 1067.56 235.267 1067.68 235.16C1067.8 235.053 1067.96 235 1068.18 235H1070.74C1070.95 235 1071.12 235.053 1071.24 235.16C1071.36 235.267 1071.44 235.393 1071.48 235.54L1076.24 248.4C1076.25 248.453 1076.26 248.513 1076.26 248.58C1076.26 248.687 1076.22 248.787 1076.14 248.88C1076.06 248.96 1075.96 249 1075.84 249H1073.76C1073.56 249 1073.41 248.953 1073.32 248.86C1073.22 248.767 1073.16 248.68 1073.14 248.6L1072.28 246.36H1066.64L1065.78 248.6C1065.75 248.68 1065.69 248.767 1065.6 248.86C1065.5 248.953 1065.36 249 1065.16 249H1063.08ZM1067.38 243.78H1071.52L1069.46 238.02L1067.38 243.78ZM1083.34 252.8C1083.19 252.8 1083.07 252.753 1082.98 252.66C1082.89 252.567 1082.84 252.447 1082.84 252.3V249C1081.64 249 1080.64 248.82 1079.84 248.46C1079.05 248.1 1078.46 247.593 1078.06 246.94C1077.66 246.273 1077.43 245.493 1077.38 244.6C1077.34 244.067 1077.34 243.533 1077.38 243C1077.43 242.107 1077.67 241.333 1078.08 240.68C1078.51 240.013 1079.11 239.5 1079.9 239.14C1080.7 238.78 1081.68 238.6 1082.84 238.6V235.3C1082.84 235.153 1082.89 235.033 1082.98 234.94C1083.07 234.847 1083.19 234.8 1083.34 234.8H1085.34C1085.47 234.8 1085.59 234.847 1085.68 234.94C1085.77 235.033 1085.82 235.153 1085.82 235.3V238.6C1086.99 238.6 1087.97 238.78 1088.76 239.14C1089.56 239.5 1090.17 240.013 1090.58 240.68C1091.01 241.333 1091.25 242.107 1091.3 243C1091.33 243.533 1091.33 244.067 1091.3 244.6C1091.25 245.493 1091.01 246.273 1090.6 246.94C1090.2 247.593 1089.61 248.1 1088.82 248.46C1088.03 248.82 1087.03 249 1085.82 249V252.3C1085.82 252.447 1085.77 252.567 1085.68 252.66C1085.59 252.753 1085.47 252.8 1085.34 252.8H1083.34ZM1082.86 246.8V240.8C1082.01 240.8 1081.38 241 1080.98 241.4C1080.59 241.8 1080.38 242.4 1080.34 243.2C1080.33 243.387 1080.32 243.593 1080.32 243.82C1080.32 244.033 1080.33 244.227 1080.34 244.4C1080.39 245.213 1080.61 245.82 1081 246.22C1081.4 246.607 1082.02 246.8 1082.86 246.8ZM1085.8 246.8C1086.67 246.8 1087.29 246.6 1087.68 246.2C1088.07 245.8 1088.29 245.2 1088.34 244.4C1088.35 244.227 1088.36 244.033 1088.36 243.82C1088.36 243.593 1088.35 243.387 1088.34 243.2C1088.3 242.387 1088.07 241.787 1087.66 241.4C1087.26 241 1086.64 240.8 1085.8 240.8V246.8ZM1093.94 252.8C1093.8 252.8 1093.68 252.753 1093.58 252.66C1093.49 252.567 1093.44 252.447 1093.44 252.3V239.1C1093.44 238.953 1093.49 238.833 1093.58 238.74C1093.68 238.647 1093.8 238.6 1093.94 238.6H1095.84C1095.99 238.6 1096.11 238.647 1096.2 238.74C1096.3 238.833 1096.34 238.953 1096.34 239.1V239.86C1096.66 239.433 1097.08 239.087 1097.58 238.82C1098.09 238.54 1098.72 238.4 1099.48 238.4C1100.18 238.4 1100.78 238.513 1101.28 238.74C1101.8 238.953 1102.24 239.267 1102.58 239.68C1102.94 240.08 1103.22 240.567 1103.4 241.14C1103.6 241.713 1103.72 242.36 1103.74 243.08C1103.76 243.333 1103.76 243.573 1103.76 243.8C1103.76 244.027 1103.76 244.273 1103.74 244.54C1103.73 245.22 1103.62 245.847 1103.42 246.42C1103.24 246.993 1102.96 247.487 1102.6 247.9C1102.24 248.313 1101.8 248.633 1101.28 248.86C1100.78 249.087 1100.18 249.2 1099.48 249.2C1098.8 249.2 1098.21 249.08 1097.7 248.84C1097.21 248.587 1096.8 248.247 1096.48 247.82V252.3C1096.48 252.447 1096.44 252.567 1096.34 252.66C1096.25 252.753 1096.14 252.8 1096 252.8H1093.94ZM1098.58 246.8C1099.09 246.8 1099.49 246.693 1099.78 246.48C1100.08 246.253 1100.28 245.96 1100.4 245.6C1100.54 245.24 1100.62 244.847 1100.64 244.42C1100.67 244.007 1100.67 243.593 1100.64 243.18C1100.62 242.753 1100.54 242.36 1100.4 242C1100.28 241.64 1100.08 241.353 1099.78 241.14C1099.49 240.913 1099.09 240.8 1098.58 240.8C1098.09 240.8 1097.69 240.913 1097.38 241.14C1097.08 241.367 1096.86 241.653 1096.72 242C1096.59 242.347 1096.51 242.72 1096.48 243.12C1096.47 243.36 1096.46 243.607 1096.46 243.86C1096.46 244.113 1096.47 244.367 1096.48 244.62C1096.5 244.993 1096.58 245.347 1096.72 245.68C1096.88 246 1097.11 246.267 1097.4 246.48C1097.71 246.693 1098.1 246.8 1098.58 246.8ZM1106.35 249C1106.23 249 1106.12 248.953 1106.03 248.86C1105.93 248.767 1105.89 248.653 1105.89 248.52V239.1C1105.89 238.953 1105.93 238.833 1106.03 238.74C1106.12 238.647 1106.23 238.6 1106.37 238.6H1108.37C1108.51 238.6 1108.63 238.647 1108.73 238.74C1108.82 238.833 1108.87 238.953 1108.87 239.1V246.7L1108.07 246.24L1113.29 238.92C1113.35 238.827 1113.43 238.753 1113.51 238.7C1113.6 238.633 1113.71 238.6 1113.85 238.6H1115.64C1115.78 238.6 1115.89 238.647 1115.99 238.74C1116.08 238.833 1116.13 238.94 1116.13 239.06V248.5C1116.13 248.647 1116.08 248.767 1115.99 248.86C1115.89 248.953 1115.77 249 1115.63 249H1113.63C1113.49 249 1113.38 248.953 1113.29 248.86C1113.19 248.767 1113.15 248.647 1113.15 248.5V241.2L1113.97 241.34L1108.71 248.68C1108.65 248.773 1108.58 248.853 1108.49 248.92C1108.39 248.973 1108.29 249 1108.17 249H1106.35ZM1118.96 249C1118.83 249 1118.72 248.953 1118.62 248.86C1118.53 248.767 1118.48 248.647 1118.48 248.5V239.1C1118.48 238.953 1118.53 238.833 1118.62 238.74C1118.72 238.647 1118.83 238.6 1118.96 238.6H1120.92C1121.07 238.6 1121.19 238.647 1121.28 238.74C1121.38 238.833 1121.42 238.953 1121.42 239.1V242.54H1122.68L1125 238.92C1125.04 238.84 1125.1 238.767 1125.18 238.7C1125.28 238.633 1125.4 238.6 1125.54 238.6H1127.72C1127.84 238.6 1127.94 238.64 1128.02 238.72C1128.12 238.787 1128.16 238.873 1128.16 238.98C1128.16 239.02 1128.15 239.067 1128.12 239.12C1128.11 239.173 1128.09 239.22 1128.06 239.26L1125.24 243.62L1128.5 248.36C1128.56 248.44 1128.58 248.527 1128.58 248.62C1128.58 248.727 1128.54 248.82 1128.46 248.9C1128.38 248.967 1128.28 249 1128.16 249H1125.74C1125.61 249 1125.5 248.973 1125.4 248.92C1125.32 248.853 1125.25 248.773 1125.18 248.68L1122.66 244.92H1121.42V248.5C1121.42 248.647 1121.38 248.767 1121.28 248.86C1121.19 248.953 1121.07 249 1120.92 249H1118.96ZM1133.3 249.2C1132.59 249.2 1131.96 249.067 1131.4 248.8C1130.84 248.52 1130.39 248.147 1130.06 247.68C1129.73 247.213 1129.56 246.693 1129.56 246.12C1129.56 245.173 1129.94 244.427 1130.7 243.88C1131.47 243.333 1132.49 242.96 1133.74 242.76L1136.36 242.38V242.02C1136.36 241.5 1136.24 241.1 1136 240.82C1135.76 240.54 1135.34 240.4 1134.74 240.4C1134.3 240.4 1133.95 240.487 1133.68 240.66C1133.41 240.833 1133.21 241.06 1133.06 241.34C1132.95 241.513 1132.8 241.6 1132.6 241.6H1130.7C1130.55 241.6 1130.44 241.56 1130.36 241.48C1130.28 241.387 1130.25 241.28 1130.26 241.16C1130.26 240.933 1130.35 240.667 1130.52 240.36C1130.69 240.053 1130.96 239.753 1131.32 239.46C1131.68 239.153 1132.14 238.9 1132.7 238.7C1133.26 238.5 1133.95 238.4 1134.76 238.4C1135.6 238.4 1136.32 238.5 1136.92 238.7C1137.52 238.9 1138 239.18 1138.36 239.54C1138.72 239.9 1138.99 240.32 1139.16 240.8C1139.33 241.267 1139.42 241.773 1139.42 242.32V248.5C1139.42 248.647 1139.37 248.767 1139.28 248.86C1139.19 248.953 1139.07 249 1138.92 249H1136.96C1136.83 249 1136.71 248.953 1136.62 248.86C1136.53 248.767 1136.48 248.647 1136.48 248.5V247.76C1136.31 248.013 1136.07 248.253 1135.78 248.48C1135.49 248.693 1135.13 248.867 1134.72 249C1134.32 249.133 1133.85 249.2 1133.3 249.2ZM1134.1 247.12C1134.54 247.12 1134.93 247.027 1135.28 246.84C1135.63 246.653 1135.9 246.367 1136.1 245.98C1136.3 245.593 1136.4 245.107 1136.4 244.52V244.18L1134.54 244.48C1133.82 244.6 1133.29 244.78 1132.96 245.02C1132.63 245.26 1132.46 245.553 1132.46 245.9C1132.46 246.153 1132.53 246.373 1132.68 246.56C1132.84 246.747 1133.05 246.887 1133.3 246.98C1133.55 247.073 1133.82 247.12 1134.1 247.12Z" fill="white"/>
<path d="M906.066 388C905.919 388 905.799 387.953 905.706 387.86C905.613 387.767 905.566 387.647 905.566 387.5V376.78H901.926C901.793 376.78 901.679 376.733 901.586 376.64C901.493 376.547 901.446 376.433 901.446 376.3V374.5C901.446 374.353 901.493 374.233 901.586 374.14C901.679 374.047 901.793 374 901.926 374H912.406C912.553 374 912.673 374.047 912.766 374.14C912.859 374.233 912.906 374.353 912.906 374.5V376.3C912.906 376.433 912.859 376.547 912.766 376.64C912.673 376.733 912.553 376.78 912.406 376.78H908.786V387.5C908.786 387.647 908.739 387.767 908.646 387.86C908.553 387.953 908.433 388 908.286 388H906.066ZM917.67 388.2C916.963 388.2 916.33 388.067 915.77 387.8C915.21 387.52 914.763 387.147 914.43 386.68C914.096 386.213 913.93 385.693 913.93 385.12C913.93 384.173 914.31 383.427 915.07 382.88C915.843 382.333 916.856 381.96 918.11 381.76L920.73 381.38V381.02C920.73 380.5 920.61 380.1 920.37 379.82C920.13 379.54 919.71 379.4 919.11 379.4C918.67 379.4 918.316 379.487 918.05 379.66C917.783 379.833 917.576 380.06 917.43 380.34C917.323 380.513 917.17 380.6 916.97 380.6H915.07C914.923 380.6 914.81 380.56 914.73 380.48C914.65 380.387 914.616 380.28 914.63 380.16C914.63 379.933 914.716 379.667 914.89 379.36C915.063 379.053 915.33 378.753 915.69 378.46C916.05 378.153 916.51 377.9 917.07 377.7C917.63 377.5 918.316 377.4 919.13 377.4C919.97 377.4 920.69 377.5 921.29 377.7C921.89 377.9 922.37 378.18 922.73 378.54C923.09 378.9 923.356 379.32 923.53 379.8C923.703 380.267 923.79 380.773 923.79 381.32V387.5C923.79 387.647 923.743 387.767 923.65 387.86C923.556 387.953 923.436 388 923.29 388H921.33C921.196 388 921.083 387.953 920.99 387.86C920.896 387.767 920.85 387.647 920.85 387.5V386.76C920.676 387.013 920.443 387.253 920.15 387.48C919.856 387.693 919.503 387.867 919.09 388C918.69 388.133 918.216 388.2 917.67 388.2ZM918.47 386.12C918.91 386.12 919.303 386.027 919.65 385.84C919.996 385.653 920.27 385.367 920.47 384.98C920.67 384.593 920.77 384.107 920.77 383.52V383.18L918.91 383.48C918.19 383.6 917.663 383.78 917.33 384.02C916.996 384.26 916.83 384.553 916.83 384.9C916.83 385.153 916.903 385.373 917.05 385.56C917.21 385.747 917.416 385.887 917.67 385.98C917.923 386.073 918.19 386.12 918.47 386.12ZM925.891 390.2C925.758 390.2 925.645 390.153 925.551 390.06C925.458 389.967 925.411 389.847 925.411 389.7V386.14C925.411 385.993 925.458 385.873 925.551 385.78C925.645 385.687 925.758 385.64 925.891 385.64H926.071C926.418 385.64 926.691 385.46 926.891 385.1C927.105 384.74 927.258 384.207 927.351 383.5C927.445 382.793 927.491 381.907 927.491 380.84V378.1C927.491 377.953 927.538 377.833 927.631 377.74C927.725 377.647 927.838 377.6 927.971 377.6H935.451C935.598 377.6 935.718 377.647 935.811 377.74C935.905 377.833 935.951 377.953 935.951 378.1V385.62H936.831C936.965 385.62 937.078 385.667 937.171 385.76C937.265 385.853 937.311 385.973 937.311 386.12V389.7C937.311 389.847 937.265 389.967 937.171 390.06C937.078 390.153 936.965 390.2 936.831 390.2H934.831C934.685 390.2 934.565 390.153 934.471 390.06C934.378 389.967 934.331 389.847 934.331 389.7V388H928.391V389.7C928.391 389.847 928.345 389.967 928.251 390.06C928.158 390.153 928.038 390.2 927.891 390.2H925.891ZM929.511 385.64L932.971 385.62V379.96H930.331V381.18C930.331 382.273 930.258 383.187 930.111 383.92C929.978 384.653 929.778 385.227 929.511 385.64ZM938.603 388C938.483 388 938.383 387.967 938.303 387.9C938.223 387.82 938.183 387.727 938.183 387.62C938.183 387.54 938.21 387.453 938.263 387.36L941.543 382.62L938.703 378.26C938.69 378.22 938.67 378.173 938.643 378.12C938.63 378.067 938.623 378.02 938.623 377.98C938.623 377.873 938.663 377.787 938.743 377.72C938.823 377.64 938.923 377.6 939.043 377.6H941.223C941.37 377.6 941.483 377.633 941.563 377.7C941.657 377.767 941.723 377.84 941.763 377.92L944.083 381.54H945.163V378.1C945.163 377.953 945.21 377.833 945.303 377.74C945.397 377.647 945.517 377.6 945.663 377.6H947.623C947.757 377.6 947.87 377.647 947.963 377.74C948.057 377.833 948.103 377.953 948.103 378.1V381.54H949.143L951.483 377.92C951.537 377.84 951.603 377.767 951.683 377.7C951.777 377.633 951.897 377.6 952.043 377.6H954.203C954.323 377.6 954.423 377.64 954.503 377.72C954.597 377.787 954.643 377.873 954.643 377.98C954.643 378.02 954.63 378.067 954.603 378.12C954.59 378.173 954.57 378.22 954.543 378.26L951.723 382.62L954.983 387.36C955.037 387.44 955.063 387.527 955.063 387.62C955.063 387.727 955.023 387.82 954.943 387.9C954.863 387.967 954.763 388 954.643 388H952.243C952.07 388 951.937 387.967 951.843 387.9C951.763 387.82 951.703 387.747 951.663 387.68L949.143 383.9H948.103V387.5C948.103 387.647 948.057 387.767 947.963 387.86C947.87 387.953 947.757 388 947.623 388H945.663C945.517 388 945.397 387.953 945.303 387.86C945.21 387.767 945.163 387.647 945.163 387.5V383.9H944.123L941.583 387.68C941.557 387.747 941.497 387.82 941.403 387.9C941.31 387.967 941.183 388 941.023 388H938.603ZM957.179 388C957.059 388 956.952 387.953 956.859 387.86C956.766 387.767 956.719 387.653 956.719 387.52V378.1C956.719 377.953 956.766 377.833 956.859 377.74C956.952 377.647 957.066 377.6 957.199 377.6H959.199C959.346 377.6 959.466 377.647 959.559 377.74C959.652 377.833 959.699 377.953 959.699 378.1V385.7L958.899 385.24L964.119 377.92C964.186 377.827 964.259 377.753 964.339 377.7C964.432 377.633 964.546 377.6 964.679 377.6H966.479C966.612 377.6 966.726 377.647 966.819 377.74C966.912 377.833 966.959 377.94 966.959 378.06V387.5C966.959 387.647 966.912 387.767 966.819 387.86C966.726 387.953 966.606 388 966.459 388H964.459C964.326 388 964.212 387.953 964.119 387.86C964.026 387.767 963.979 387.647 963.979 387.5V380.2L964.799 380.34L959.539 387.68C959.486 387.773 959.412 387.853 959.319 387.92C959.226 387.973 959.119 388 958.999 388H957.179ZM969.797 388C969.663 388 969.55 387.953 969.457 387.86C969.363 387.767 969.317 387.647 969.317 387.5V378.1C969.317 377.953 969.363 377.833 969.457 377.74C969.55 377.647 969.663 377.6 969.797 377.6H971.757C971.903 377.6 972.023 377.647 972.117 377.74C972.21 377.833 972.257 377.953 972.257 378.1V381.54H973.517L975.837 377.92C975.877 377.84 975.937 377.767 976.017 377.7C976.11 377.633 976.23 377.6 976.377 377.6H978.557C978.677 377.6 978.777 377.64 978.857 377.72C978.95 377.787 978.997 377.873 978.997 377.98C978.997 378.02 978.983 378.067 978.957 378.12C978.943 378.173 978.923 378.22 978.897 378.26L976.077 382.62L979.337 387.36C979.39 387.44 979.417 387.527 979.417 387.62C979.417 387.727 979.377 387.82 979.297 387.9C979.217 387.967 979.117 388 978.997 388H976.577C976.443 388 976.33 387.973 976.237 387.92C976.157 387.853 976.083 387.773 976.017 387.68L973.497 383.92H972.257V387.5C972.257 387.647 972.21 387.767 972.117 387.86C972.023 387.953 971.903 388 971.757 388H969.797ZM981.534 388C981.414 388 981.308 387.953 981.214 387.86C981.121 387.767 981.074 387.653 981.074 387.52V378.1C981.074 377.953 981.121 377.833 981.214 377.74C981.308 377.647 981.421 377.6 981.554 377.6H983.554C983.701 377.6 983.821 377.647 983.914 377.74C984.008 377.833 984.054 377.953 984.054 378.1V385.7L983.254 385.24L988.474 377.92C988.541 377.827 988.614 377.753 988.694 377.7C988.788 377.633 988.901 377.6 989.034 377.6H990.834C990.968 377.6 991.081 377.647 991.174 377.74C991.268 377.833 991.314 377.94 991.314 378.06V387.5C991.314 387.647 991.268 387.767 991.174 387.86C991.081 387.953 990.961 388 990.814 388H988.814C988.681 388 988.568 387.953 988.474 387.86C988.381 387.767 988.334 387.647 988.334 387.5V380.2L989.154 380.34L983.894 387.68C983.841 387.773 983.768 387.853 983.674 387.92C983.581 387.973 983.474 388 983.354 388H981.534ZM998.292 388.2C997.319 388.2 996.459 388.02 995.712 387.66C994.979 387.3 994.399 386.78 993.972 386.1C993.545 385.407 993.312 384.58 993.272 383.62C993.259 383.407 993.252 383.14 993.252 382.82C993.252 382.487 993.259 382.213 993.272 382C993.312 381.027 993.539 380.2 993.952 379.52C994.379 378.827 994.965 378.3 995.712 377.94C996.459 377.58 997.319 377.4 998.292 377.4C999.185 377.4 999.945 377.527 1000.57 377.78C1001.2 378.02 1001.71 378.327 1002.11 378.7C1002.51 379.073 1002.81 379.467 1002.99 379.88C1003.19 380.28 1003.3 380.633 1003.31 380.94C1003.33 381.073 1003.28 381.193 1003.17 381.3C1003.08 381.393 1002.97 381.44 1002.83 381.44H1000.69C1000.56 381.44 1000.45 381.407 1000.37 381.34C1000.31 381.26 1000.24 381.153 1000.17 381.02C999.985 380.553 999.745 380.22 999.452 380.02C999.159 379.82 998.792 379.72 998.352 379.72C997.752 379.72 997.279 379.913 996.932 380.3C996.585 380.687 996.399 381.287 996.372 382.1C996.359 382.62 996.359 383.093 996.372 383.52C996.412 384.347 996.599 384.947 996.932 385.32C997.279 385.693 997.752 385.88 998.352 385.88C998.819 385.88 999.192 385.78 999.472 385.58C999.752 385.38 999.985 385.047 1000.17 384.58C1000.23 384.447 1000.29 384.347 1000.37 384.28C1000.45 384.2 1000.56 384.16 1000.69 384.16H1002.83C1002.97 384.16 1003.08 384.213 1003.17 384.32C1003.28 384.413 1003.33 384.527 1003.31 384.66C1003.3 384.887 1003.23 385.153 1003.11 385.46C1003.01 385.767 1002.83 386.08 1002.57 386.4C1002.33 386.72 1002.02 387.02 1001.63 387.3C1001.25 387.567 1000.77 387.787 1000.21 387.96C999.665 388.12 999.025 388.2 998.292 388.2ZM1008.43 388C1008.29 388 1008.17 387.953 1008.07 387.86C1007.98 387.767 1007.93 387.647 1007.93 387.5V379.96H1004.79C1004.65 379.96 1004.53 379.913 1004.43 379.82C1004.34 379.727 1004.29 379.607 1004.29 379.46V378.1C1004.29 377.953 1004.34 377.833 1004.43 377.74C1004.53 377.647 1004.65 377.6 1004.79 377.6H1014.01C1014.16 377.6 1014.28 377.647 1014.37 377.74C1014.47 377.833 1014.51 377.953 1014.51 378.1V379.46C1014.51 379.607 1014.47 379.727 1014.37 379.82C1014.28 379.913 1014.16 379.96 1014.01 379.96H1010.87V387.5C1010.87 387.647 1010.83 387.767 1010.73 387.86C1010.64 387.953 1010.53 388 1010.39 388H1008.43ZM1019.11 388.2C1018.41 388.2 1017.77 388.067 1017.21 387.8C1016.65 387.52 1016.21 387.147 1015.87 386.68C1015.54 386.213 1015.37 385.693 1015.37 385.12C1015.37 384.173 1015.75 383.427 1016.51 382.88C1017.29 382.333 1018.3 381.96 1019.55 381.76L1022.17 381.38V381.02C1022.17 380.5 1022.05 380.1 1021.81 379.82C1021.57 379.54 1021.15 379.4 1020.55 379.4C1020.11 379.4 1019.76 379.487 1019.49 379.66C1019.23 379.833 1019.02 380.06 1018.87 380.34C1018.77 380.513 1018.61 380.6 1018.41 380.6H1016.51C1016.37 380.6 1016.25 380.56 1016.17 380.48C1016.09 380.387 1016.06 380.28 1016.07 380.16C1016.07 379.933 1016.16 379.667 1016.33 379.36C1016.51 379.053 1016.77 378.753 1017.13 378.46C1017.49 378.153 1017.95 377.9 1018.51 377.7C1019.07 377.5 1019.76 377.4 1020.57 377.4C1021.41 377.4 1022.13 377.5 1022.73 377.7C1023.33 377.9 1023.81 378.18 1024.17 378.54C1024.53 378.9 1024.8 379.32 1024.97 379.8C1025.15 380.267 1025.23 380.773 1025.23 381.32V387.5C1025.23 387.647 1025.19 387.767 1025.09 387.86C1025 387.953 1024.88 388 1024.73 388H1022.77C1022.64 388 1022.53 387.953 1022.43 387.86C1022.34 387.767 1022.29 387.647 1022.29 387.5V386.76C1022.12 387.013 1021.89 387.253 1021.59 387.48C1021.3 387.693 1020.95 387.867 1020.53 388C1020.13 388.133 1019.66 388.2 1019.11 388.2ZM1019.91 386.12C1020.35 386.12 1020.75 386.027 1021.09 385.84C1021.44 385.653 1021.71 385.367 1021.91 384.98C1022.11 384.593 1022.21 384.107 1022.21 383.52V383.18L1020.35 383.48C1019.63 383.6 1019.11 383.78 1018.77 384.02C1018.44 384.26 1018.27 384.553 1018.27 384.9C1018.27 385.153 1018.35 385.373 1018.49 385.56C1018.65 385.747 1018.86 385.887 1019.11 385.98C1019.37 386.073 1019.63 386.12 1019.91 386.12ZM1028.14 388C1028 388 1027.89 387.953 1027.8 387.86C1027.7 387.767 1027.66 387.647 1027.66 387.5V378.1C1027.66 377.953 1027.7 377.833 1027.8 377.74C1027.89 377.647 1028 377.6 1028.14 377.6H1030.14C1030.28 377.6 1030.4 377.647 1030.5 377.74C1030.59 377.833 1030.64 377.953 1030.64 378.1V381.54H1034.7V378.1C1034.7 377.953 1034.74 377.833 1034.84 377.74C1034.93 377.647 1035.05 377.6 1035.2 377.6H1037.2C1037.33 377.6 1037.44 377.647 1037.54 377.74C1037.63 377.833 1037.68 377.953 1037.68 378.1V387.5C1037.68 387.647 1037.63 387.767 1037.54 387.86C1037.44 387.953 1037.33 388 1037.2 388H1035.2C1035.05 388 1034.93 387.953 1034.84 387.86C1034.74 387.767 1034.7 387.647 1034.7 387.5V383.9H1030.64V387.5C1030.64 387.647 1030.59 387.767 1030.5 387.86C1030.4 387.953 1030.28 388 1030.14 388H1028.14Z" fill="white"/>
<path d="M1064.03 529C1063.88 529 1063.76 528.953 1063.67 528.86C1063.58 528.767 1063.53 528.647 1063.53 528.5V515.5C1063.53 515.353 1063.58 515.233 1063.67 515.14C1063.76 515.047 1063.88 515 1064.03 515H1066.21C1066.36 515 1066.48 515.047 1066.57 515.14C1066.66 515.233 1066.71 515.353 1066.71 515.5V520.5H1068.19L1071.29 515.38C1071.36 515.273 1071.45 515.187 1071.57 515.12C1071.69 515.04 1071.84 515 1072.03 515H1074.45C1074.58 515 1074.68 515.047 1074.75 515.14C1074.83 515.22 1074.87 515.313 1074.87 515.42C1074.87 515.5 1074.84 515.58 1074.79 515.66L1071.05 521.74L1075.17 528.32C1075.2 528.373 1075.21 528.447 1075.21 528.54C1075.21 528.673 1075.16 528.787 1075.07 528.88C1074.99 528.96 1074.89 529 1074.77 529H1072.27C1072.07 529 1071.92 528.96 1071.83 528.88C1071.74 528.787 1071.66 528.707 1071.61 528.64L1068.31 523.34H1066.71V528.5C1066.71 528.647 1066.66 528.767 1066.57 528.86C1066.48 528.953 1066.36 529 1066.21 529H1064.03ZM1080.06 529.2C1079.36 529.2 1078.72 529.067 1078.16 528.8C1077.6 528.52 1077.16 528.147 1076.82 527.68C1076.49 527.213 1076.32 526.693 1076.32 526.12C1076.32 525.173 1076.7 524.427 1077.46 523.88C1078.24 523.333 1079.25 522.96 1080.5 522.76L1083.12 522.38V522.02C1083.12 521.5 1083 521.1 1082.76 520.82C1082.52 520.54 1082.1 520.4 1081.5 520.4C1081.06 520.4 1080.71 520.487 1080.44 520.66C1080.18 520.833 1079.97 521.06 1079.82 521.34C1079.72 521.513 1079.56 521.6 1079.36 521.6H1077.46C1077.32 521.6 1077.2 521.56 1077.12 521.48C1077.04 521.387 1077.01 521.28 1077.02 521.16C1077.02 520.933 1077.11 520.667 1077.28 520.36C1077.46 520.053 1077.72 519.753 1078.08 519.46C1078.44 519.153 1078.9 518.9 1079.46 518.7C1080.02 518.5 1080.71 518.4 1081.52 518.4C1082.36 518.4 1083.08 518.5 1083.68 518.7C1084.28 518.9 1084.76 519.18 1085.12 519.54C1085.48 519.9 1085.75 520.32 1085.92 520.8C1086.1 521.267 1086.18 521.773 1086.18 522.32V528.5C1086.18 528.647 1086.14 528.767 1086.04 528.86C1085.95 528.953 1085.83 529 1085.68 529H1083.72C1083.59 529 1083.48 528.953 1083.38 528.86C1083.29 528.767 1083.24 528.647 1083.24 528.5V527.76C1083.07 528.013 1082.84 528.253 1082.54 528.48C1082.25 528.693 1081.9 528.867 1081.48 529C1081.08 529.133 1080.61 529.2 1080.06 529.2ZM1080.86 527.12C1081.3 527.12 1081.7 527.027 1082.04 526.84C1082.39 526.653 1082.66 526.367 1082.86 525.98C1083.06 525.593 1083.16 525.107 1083.16 524.52V524.18L1081.3 524.48C1080.58 524.6 1080.06 524.78 1079.72 525.02C1079.39 525.26 1079.22 525.553 1079.22 525.9C1079.22 526.153 1079.3 526.373 1079.44 526.56C1079.6 526.747 1079.81 526.887 1080.06 526.98C1080.32 527.073 1080.58 527.12 1080.86 527.12ZM1092.76 529.2C1091.87 529.2 1091.13 529.1 1090.54 528.9C1089.96 528.7 1089.48 528.447 1089.12 528.14C1088.78 527.82 1088.52 527.487 1088.36 527.14C1088.22 526.793 1088.13 526.48 1088.1 526.2C1088.09 526.093 1088.12 526.007 1088.2 525.94C1088.28 525.86 1088.37 525.82 1088.46 525.82H1090.42C1090.57 525.82 1090.68 525.853 1090.74 525.92C1090.82 525.973 1090.89 526.053 1090.94 526.16C1091.08 526.493 1091.3 526.733 1091.6 526.88C1091.92 527.013 1092.34 527.08 1092.84 527.08C1093.18 527.08 1093.48 527.033 1093.74 526.94C1094.01 526.847 1094.21 526.713 1094.34 526.54C1094.49 526.353 1094.56 526.12 1094.56 525.84C1094.56 525.453 1094.45 525.16 1094.22 524.96C1094 524.747 1093.62 524.64 1093.08 524.64H1091.98C1091.85 524.64 1091.74 524.6 1091.66 524.52C1091.58 524.427 1091.54 524.32 1091.54 524.2V523.22C1091.54 523.1 1091.58 523 1091.66 522.92C1091.74 522.827 1091.85 522.78 1091.98 522.78H1093.02C1093.46 522.78 1093.79 522.7 1094 522.54C1094.22 522.367 1094.32 522.107 1094.32 521.76C1094.32 521.547 1094.27 521.347 1094.16 521.16C1094.07 520.973 1093.91 520.827 1093.68 520.72C1093.46 520.6 1093.14 520.54 1092.74 520.54C1092.18 520.54 1091.78 520.627 1091.54 520.8C1091.3 520.973 1091.12 521.233 1091 521.58C1090.95 521.687 1090.88 521.767 1090.8 521.82C1090.74 521.873 1090.63 521.9 1090.48 521.9H1088.58C1088.48 521.9 1088.38 521.867 1088.3 521.8C1088.24 521.733 1088.2 521.647 1088.2 521.54C1088.23 521.18 1088.33 520.82 1088.5 520.46C1088.68 520.087 1088.94 519.747 1089.28 519.44C1089.64 519.12 1090.1 518.867 1090.66 518.68C1091.24 518.493 1091.94 518.4 1092.76 518.4C1093.86 518.4 1094.73 518.54 1095.38 518.82C1096.04 519.1 1096.5 519.467 1096.78 519.92C1097.08 520.36 1097.22 520.84 1097.22 521.36C1097.22 521.827 1097.13 522.247 1096.94 522.62C1096.76 522.98 1096.42 523.28 1095.94 523.52C1096.54 523.747 1096.96 524.093 1097.18 524.56C1097.41 525.027 1097.52 525.527 1097.52 526.06C1097.54 526.713 1097.34 527.273 1096.94 527.74C1096.56 528.207 1096 528.567 1095.28 528.82C1094.58 529.073 1093.74 529.2 1092.76 529.2ZM1102.58 529.2C1101.88 529.2 1101.24 529.067 1100.68 528.8C1100.12 528.52 1099.68 528.147 1099.34 527.68C1099.01 527.213 1098.84 526.693 1098.84 526.12C1098.84 525.173 1099.22 524.427 1099.98 523.88C1100.76 523.333 1101.77 522.96 1103.02 522.76L1105.64 522.38V522.02C1105.64 521.5 1105.52 521.1 1105.28 520.82C1105.04 520.54 1104.62 520.4 1104.02 520.4C1103.58 520.4 1103.23 520.487 1102.96 520.66C1102.7 520.833 1102.49 521.06 1102.34 521.34C1102.24 521.513 1102.08 521.6 1101.88 521.6H1099.98C1099.84 521.6 1099.72 521.56 1099.64 521.48C1099.56 521.387 1099.53 521.28 1099.54 521.16C1099.54 520.933 1099.63 520.667 1099.8 520.36C1099.98 520.053 1100.24 519.753 1100.6 519.46C1100.96 519.153 1101.42 518.9 1101.98 518.7C1102.54 518.5 1103.23 518.4 1104.04 518.4C1104.88 518.4 1105.6 518.5 1106.2 518.7C1106.8 518.9 1107.28 519.18 1107.64 519.54C1108 519.9 1108.27 520.32 1108.44 520.8C1108.62 521.267 1108.7 521.773 1108.7 522.32V528.5C1108.7 528.647 1108.66 528.767 1108.56 528.86C1108.47 528.953 1108.35 529 1108.2 529H1106.24C1106.11 529 1106 528.953 1105.9 528.86C1105.81 528.767 1105.76 528.647 1105.76 528.5V527.76C1105.59 528.013 1105.36 528.253 1105.06 528.48C1104.77 528.693 1104.42 528.867 1104 529C1103.6 529.133 1103.13 529.2 1102.58 529.2ZM1103.38 527.12C1103.82 527.12 1104.22 527.027 1104.56 526.84C1104.91 526.653 1105.18 526.367 1105.38 525.98C1105.58 525.593 1105.68 525.107 1105.68 524.52V524.18L1103.82 524.48C1103.1 524.6 1102.58 524.78 1102.24 525.02C1101.91 525.26 1101.74 525.553 1101.74 525.9C1101.74 526.153 1101.82 526.373 1101.96 526.56C1102.12 526.747 1102.33 526.887 1102.58 526.98C1102.84 527.073 1103.1 527.12 1103.38 527.12ZM1110.68 529C1110.56 529 1110.46 528.96 1110.36 528.88C1110.28 528.787 1110.24 528.68 1110.24 528.56C1110.24 528.52 1110.25 528.473 1110.26 528.42C1110.29 528.353 1110.32 528.293 1110.36 528.24L1113.74 523.66L1110.64 519.36C1110.6 519.307 1110.57 519.253 1110.54 519.2C1110.53 519.147 1110.52 519.093 1110.52 519.04C1110.52 518.92 1110.56 518.82 1110.64 518.74C1110.74 518.647 1110.84 518.6 1110.96 518.6H1113.04C1113.2 518.6 1113.32 518.64 1113.4 518.72C1113.5 518.8 1113.56 518.873 1113.6 518.94L1115.66 521.74L1117.72 518.96C1117.78 518.893 1117.84 518.82 1117.92 518.74C1118 518.647 1118.13 518.6 1118.3 518.6H1120.28C1120.4 518.6 1120.5 518.647 1120.58 518.74C1120.68 518.82 1120.72 518.92 1120.72 519.04C1120.72 519.093 1120.72 519.147 1120.7 519.2C1120.69 519.253 1120.66 519.307 1120.6 519.36L1117.44 523.68L1120.86 528.24C1120.9 528.293 1120.93 528.347 1120.94 528.4C1120.97 528.453 1120.98 528.507 1120.98 528.56C1120.98 528.68 1120.94 528.787 1120.84 528.88C1120.76 528.96 1120.66 529 1120.54 529H1118.36C1118.22 529 1118.1 528.967 1118.02 528.9C1117.94 528.82 1117.88 528.747 1117.82 528.68L1115.6 525.72L1113.34 528.68C1113.3 528.733 1113.24 528.8 1113.16 528.88C1113.08 528.96 1112.96 529 1112.8 529H1110.68ZM1127.25 529.2C1126.27 529.2 1125.41 529.02 1124.67 528.66C1123.93 528.3 1123.35 527.78 1122.93 527.1C1122.5 526.407 1122.27 525.58 1122.23 524.62C1122.21 524.407 1122.21 524.14 1122.21 523.82C1122.21 523.487 1122.21 523.213 1122.23 523C1122.27 522.027 1122.49 521.2 1122.91 520.52C1123.33 519.827 1123.92 519.3 1124.67 518.94C1125.41 518.58 1126.27 518.4 1127.25 518.4C1128.14 518.4 1128.9 518.527 1129.53 518.78C1130.15 519.02 1130.67 519.327 1131.07 519.7C1131.47 520.073 1131.76 520.467 1131.95 520.88C1132.15 521.28 1132.25 521.633 1132.27 521.94C1132.28 522.073 1132.23 522.193 1132.13 522.3C1132.03 522.393 1131.92 522.44 1131.79 522.44H1129.65C1129.51 522.44 1129.41 522.407 1129.33 522.34C1129.26 522.26 1129.19 522.153 1129.13 522.02C1128.94 521.553 1128.7 521.22 1128.41 521.02C1128.11 520.82 1127.75 520.72 1127.31 520.72C1126.71 520.72 1126.23 520.913 1125.89 521.3C1125.54 521.687 1125.35 522.287 1125.33 523.1C1125.31 523.62 1125.31 524.093 1125.33 524.52C1125.37 525.347 1125.55 525.947 1125.89 526.32C1126.23 526.693 1126.71 526.88 1127.31 526.88C1127.77 526.88 1128.15 526.78 1128.43 526.58C1128.71 526.38 1128.94 526.047 1129.13 525.58C1129.18 525.447 1129.25 525.347 1129.33 525.28C1129.41 525.2 1129.51 525.16 1129.65 525.16H1131.79C1131.92 525.16 1132.03 525.213 1132.13 525.32C1132.23 525.413 1132.28 525.527 1132.27 525.66C1132.25 525.887 1132.19 526.153 1132.07 526.46C1131.96 526.767 1131.78 527.08 1131.53 527.4C1131.29 527.72 1130.97 528.02 1130.59 528.3C1130.2 528.567 1129.73 528.787 1129.17 528.96C1128.62 529.12 1127.98 529.2 1127.25 529.2ZM1137.39 529C1137.24 529 1137.12 528.953 1137.03 528.86C1136.94 528.767 1136.89 528.647 1136.89 528.5V520.96H1133.75C1133.6 520.96 1133.48 520.913 1133.39 520.82C1133.3 520.727 1133.25 520.607 1133.25 520.46V519.1C1133.25 518.953 1133.3 518.833 1133.39 518.74C1133.48 518.647 1133.6 518.6 1133.75 518.6H1142.97C1143.12 518.6 1143.24 518.647 1143.33 518.74C1143.42 518.833 1143.47 518.953 1143.47 519.1V520.46C1143.47 520.607 1143.42 520.727 1143.33 520.82C1143.24 520.913 1143.12 520.96 1142.97 520.96H1139.83V528.5C1139.83 528.647 1139.78 528.767 1139.69 528.86C1139.6 528.953 1139.48 529 1139.35 529H1137.39ZM1148.07 529.2C1147.36 529.2 1146.73 529.067 1146.17 528.8C1145.61 528.52 1145.16 528.147 1144.83 527.68C1144.5 527.213 1144.33 526.693 1144.33 526.12C1144.33 525.173 1144.71 524.427 1145.47 523.88C1146.24 523.333 1147.26 522.96 1148.51 522.76L1151.13 522.38V522.02C1151.13 521.5 1151.01 521.1 1150.77 520.82C1150.53 520.54 1150.11 520.4 1149.51 520.4C1149.07 520.4 1148.72 520.487 1148.45 520.66C1148.18 520.833 1147.98 521.06 1147.83 521.34C1147.72 521.513 1147.57 521.6 1147.37 521.6H1145.47C1145.32 521.6 1145.21 521.56 1145.13 521.48C1145.05 521.387 1145.02 521.28 1145.03 521.16C1145.03 520.933 1145.12 520.667 1145.29 520.36C1145.46 520.053 1145.73 519.753 1146.09 519.46C1146.45 519.153 1146.91 518.9 1147.47 518.7C1148.03 518.5 1148.72 518.4 1149.53 518.4C1150.37 518.4 1151.09 518.5 1151.69 518.7C1152.29 518.9 1152.77 519.18 1153.13 519.54C1153.49 519.9 1153.76 520.32 1153.93 520.8C1154.1 521.267 1154.19 521.773 1154.19 522.32V528.5C1154.19 528.647 1154.14 528.767 1154.05 528.86C1153.96 528.953 1153.84 529 1153.69 529H1151.73C1151.6 529 1151.48 528.953 1151.39 528.86C1151.3 528.767 1151.25 528.647 1151.25 528.5V527.76C1151.08 528.013 1150.84 528.253 1150.55 528.48C1150.26 528.693 1149.9 528.867 1149.49 529C1149.09 529.133 1148.62 529.2 1148.07 529.2ZM1148.87 527.12C1149.31 527.12 1149.7 527.027 1150.05 526.84C1150.4 526.653 1150.67 526.367 1150.87 525.98C1151.07 525.593 1151.17 525.107 1151.17 524.52V524.18L1149.31 524.48C1148.59 524.6 1148.06 524.78 1147.73 525.02C1147.4 525.26 1147.23 525.553 1147.23 525.9C1147.23 526.153 1147.3 526.373 1147.45 526.56C1147.61 526.747 1147.82 526.887 1148.07 526.98C1148.32 527.073 1148.59 527.12 1148.87 527.12ZM1157.09 529C1156.96 529 1156.84 528.953 1156.75 528.86C1156.66 528.767 1156.61 528.647 1156.61 528.5V519.1C1156.61 518.953 1156.66 518.833 1156.75 518.74C1156.84 518.647 1156.96 518.6 1157.09 518.6H1159.09C1159.24 518.6 1159.36 518.647 1159.45 518.74C1159.54 518.833 1159.59 518.953 1159.59 519.1V522.54H1163.65V519.1C1163.65 518.953 1163.7 518.833 1163.79 518.74C1163.88 518.647 1164 518.6 1164.15 518.6H1166.15C1166.28 518.6 1166.4 518.647 1166.49 518.74C1166.58 518.833 1166.63 518.953 1166.63 519.1V528.5C1166.63 528.647 1166.58 528.767 1166.49 528.86C1166.4 528.953 1166.28 529 1166.15 529H1164.15C1164 529 1163.88 528.953 1163.79 528.86C1163.7 528.767 1163.65 528.647 1163.65 528.5V524.9H1159.59V528.5C1159.59 528.647 1159.54 528.767 1159.45 528.86C1159.36 528.953 1159.24 529 1159.09 529H1157.09Z" fill="white"/>
<path d="M508.596 333.094C505.65 331.772 502.178 333.085 500.981 336.084C494.448 352.445 491.056 369.91 491.001 387.562C490.939 407.166 494.996 426.563 502.907 444.499C510.818 462.435 522.407 478.51 536.925 491.682C551.442 504.854 568.564 514.831 587.182 520.966C605.8 527.1 625.498 529.257 645.002 527.295C664.506 525.333 683.381 519.296 700.404 509.576C717.427 499.857 732.219 486.67 743.823 470.87C754.271 456.642 761.925 440.581 766.397 423.541C767.217 420.418 765.205 417.298 762.051 416.61L746.121 413.132C742.966 412.443 739.866 414.448 739.013 417.562C735.398 430.775 729.384 443.228 721.256 454.296C711.974 466.936 700.14 477.485 686.522 485.261C672.903 493.037 657.803 497.866 642.2 499.435C626.597 501.005 610.838 499.28 595.944 494.372C581.05 489.464 567.352 481.483 555.738 470.945C544.124 460.407 534.853 447.548 528.524 433.199C522.195 418.85 518.95 403.332 518.999 387.65C519.042 373.918 521.609 360.329 526.555 347.555C527.721 344.544 526.419 341.089 523.473 339.768L508.596 333.094Z" fill="#ABBA27"/>
<path d="M630.992 253.847C630.992 250.618 633.611 247.987 636.838 248.122C670.762 249.539 703.095 263.25 727.733 286.807C752.371 310.364 767.52 342.05 770.458 375.878C770.738 379.095 768.227 381.83 765.002 381.975L748.713 382.708C745.487 382.853 742.771 380.352 742.458 377.138C739.865 350.513 727.813 325.62 708.385 307.045C688.957 288.47 663.549 277.547 636.836 276.152C633.612 275.984 630.992 273.382 630.992 270.153L630.992 253.847Z" fill="#F0CD51"/>
<path d="M624.086 254.025C623.919 250.801 621.168 248.309 617.953 248.61C596.49 250.62 575.753 257.563 557.375 268.929C538.996 280.295 523.521 295.748 512.135 314.053C510.429 316.795 511.43 320.369 514.24 321.959L528.433 329.986C531.243 331.576 534.798 330.576 536.532 327.852C545.579 313.64 557.73 301.63 572.101 292.743C586.471 283.856 602.644 278.349 619.4 276.603C622.611 276.268 625.093 273.535 624.927 270.31L624.086 254.025Z" fill="white"/>
<path d="M765.137 387.999C768.366 387.999 770.996 390.618 770.862 393.844C770.725 397.118 770.473 400.386 770.107 403.643C769.746 406.851 766.746 409.037 763.555 408.542L747.442 406.045C744.251 405.551 742.081 402.564 742.408 399.351C742.595 397.519 742.737 395.682 742.833 393.843C743.001 390.618 745.603 387.999 748.832 387.999L765.137 387.999Z" fill="#C4C5D0"/>
<defs>
<filter id="filter0_b_2004_266" x="436" y="192" width="392" height="392" filterUnits="userSpaceOnUse" color-interpolation-filters="sRGB">
<feFlood flood-opacity="0" result="BackgroundImageFix"/>
<feGaussianBlur in="BackgroundImageFix" stdDeviation="14"/>
<feComposite in2="SourceAlpha" operator="in" result="effect1_backgroundBlur_2004_266"/>
<feBlend mode="normal" in="SourceGraphic" in2="effect1_backgroundBlur_2004_266" result="shape"/>
</filter>
</defs>
</svg>
