<svg width="253" height="344" viewBox="0 0 253 344" fill="none" xmlns="http://www.w3.org/2000/svg">
<g clip-path="url(#clip0_752_89)">
<g style="mix-blend-mode:multiply">
<path d="M177.123 337.971C191.248 346.059 214.225 346.017 228.435 337.887C242.644 329.758 242.729 316.587 228.604 308.499C214.479 300.412 191.502 300.454 177.293 308.583C163.083 316.713 163.019 329.884 177.123 337.971Z" fill="#F7F7F7"/>
</g>
<g style="mix-blend-mode:multiply">
<path d="M49.2785 289.552C69.0789 300.895 101.289 300.832 121.195 289.426C141.123 278.019 141.228 259.576 121.428 248.232C101.628 236.889 69.4177 236.952 49.5115 248.358C29.5841 259.765 29.4782 278.208 49.2785 289.552Z" fill="#F7F7F7"/>
</g>
<path d="M72.3825 66.3382C72.3825 66.3382 73.1449 63.9644 65.2882 62.2629C57.4316 60.5614 42.6713 52.474 42.6713 52.474C42.6713 52.474 34.3912 41.6977 31.257 39.471C28.1228 37.2444 14.4849 23.2751 14.4849 23.2751C14.4849 23.2751 11.5414 24.9557 9.84721 25.943C8.15306 26.9092 6.75539 26.111 6.75539 26.111C6.75539 26.111 18.5297 57.3895 28.3558 63.6283C38.203 69.8672 54.3186 75.0768 57.4316 78.879C60.5446 82.6601 60.5446 85.622 60.5446 85.622C60.5446 85.622 74.6061 74.7827 72.4037 66.3172L72.3825 66.3382Z" fill="#546003"/>
<path d="M14.3155 24.9136L14.4638 23.2961C14.4638 23.2961 12.3037 13.9063 11.7743 12.5829C11.2449 11.2595 10.059 9.17988 10.059 8.88579C10.059 8.5917 9.38133 5.41974 9.3178 5.18867C9.23309 4.9576 8.64014 4.89458 7.89895 2.60489C7.15776 0.315195 6.92481 -0.714116 6.12009 0.609284C5.29419 1.93268 5.52713 3.48715 6.12009 4.39043C6.71304 5.27269 7.00951 5.27269 7.09422 6.6171C7.17893 7.96151 7.17893 9.72604 7.17893 9.72604C7.17893 9.72604 2.71061 9.13786 1.96942 9.43195C1.22823 9.72604 -0.0423746 12.6879 0.0211563 13.2761C0.105864 13.8643 1.20706 14.9776 1.20706 14.9776C1.20706 14.9776 0.847052 14.6415 0.465868 15.3978C0.0846844 16.154 -0.0635576 17.8555 0.825871 18.5907C1.7153 19.3259 2.60474 20.3553 2.60474 21.7627C2.60474 23.1701 2.98592 24.7246 3.87534 25.3128C4.76477 25.9009 7.15776 27.2453 8.64014 27.1613C10.1225 27.0773 13.6379 28.4847 14.3155 24.9346V24.9136Z" fill="#EEBAA6"/>
<path d="M57.9187 256.236L47.9233 262.517C47.9233 262.517 32.9936 265.857 31.4053 270.1C29.817 274.343 36.3607 278.46 41.6125 278.166C46.8644 277.872 57.0716 271.15 61.3282 270.016C65.5847 268.882 70.2437 269.134 71.4719 266.655C72.679 264.176 70.6037 255.984 70.6037 255.984L57.9187 256.236Z" fill="#737373"/>
<path d="M58.2576 254.135L48.2621 260.416C48.2621 260.416 33.3324 263.756 31.7441 267.999C30.1559 272.243 36.6995 276.36 41.9514 276.066C47.2032 275.772 57.4105 269.05 61.667 267.915C65.9236 266.781 70.5825 267.033 71.8108 264.554C73.0178 262.076 70.9425 253.883 70.9425 253.883L58.2576 254.135Z" fill="#202020"/>
<path d="M61.6247 133.307C61.6247 133.307 62.3235 125.324 57.0928 138.852C51.841 152.38 47.8809 200.359 50.5704 203.027C53.2598 205.694 55.0387 255.122 55.0387 255.122C55.0387 255.122 61.0105 264.995 70.6037 255.984C74.6061 252.223 74.4155 240.061 74.4155 239.179C74.4155 238.296 80.1121 224.243 76.0249 216.702C71.9378 209.16 79.4979 191.179 79.4979 191.179C79.4979 191.179 80.6839 148.641 83.0768 145.301C85.491 141.982 61.6035 133.328 61.6035 133.328L61.6247 133.307Z" fill="#546003"/>
<path d="M113.55 266.529C113.55 266.529 113.423 278.187 111.771 279.069C110.12 279.952 106.922 290.098 109.506 292.619C112.11 295.139 116.536 295.454 120.687 293.144C124.838 290.812 128.014 282.346 127.506 276.822C126.998 271.297 127.294 265.541 125.96 263.378C124.647 261.214 119.353 260.122 119.607 259.681C119.861 259.239 113.508 266.55 113.508 266.55L113.55 266.529Z" fill="#737373"/>
<path d="M113.275 264.323C113.275 264.323 113.148 275.981 111.496 276.864C109.844 277.746 106.647 287.892 109.23 290.413C111.835 292.933 116.261 293.249 120.412 290.938C124.562 288.606 127.739 280.141 127.231 274.616C126.722 269.091 127.019 263.336 125.685 261.172C124.372 259.008 119.077 257.916 119.332 257.475C119.586 257.034 113.233 264.344 113.233 264.344L113.275 264.323Z" fill="#202020"/>
<path d="M71.5142 144.629C71.5142 144.629 84.1568 217.395 86.5922 220.945C89.0487 224.495 96.2065 227.562 100.95 235.628C108.976 249.261 109.717 263.63 115.075 265.394C120.433 267.18 120.094 266.487 122.55 262.936C125.007 259.386 121.746 233.381 120.645 227.625C119.522 221.848 107.6 215.567 107.811 212.248C108.044 208.929 109.294 162.022 101.818 149.103C98.0489 142.612 74.6484 134.21 71.5142 144.629Z" fill="#697512"/>
<path d="M108.637 114.779C109.76 109.338 116.473 96.1462 111.094 89.4872C107.854 85.475 101.437 82.3661 96.8206 80.5175C97.0112 80.8536 97.1594 81.1897 97.223 81.5048C97.6677 83.8365 96.4394 89.1511 95.1053 90.0544C93.7711 90.9366 91.7805 92.071 91.7805 92.071L88.4769 90.1804L88.964 92.8272L76.8085 90.5585C76.8085 90.5585 76.4908 90.5585 76.0461 90.4115H75.8979C75.1779 90.1384 73.992 89.5712 73.1025 88.1428C71.6413 85.8321 71.0907 84.6557 71.0907 84.6557L73.3355 83.7105C73.3355 83.7105 71.006 78.4799 73.2084 75.1609C71.8743 75.0768 71.959 68.5229 70.9213 69.6152C66.5589 74.1316 58.0458 86.2732 57.1563 90.5375C55.3563 99.1711 55.2504 119.127 55.3563 120.556C55.4622 122.005 55.801 143.032 55.801 143.032C55.801 143.032 66.0083 155.426 79.7732 156.539C93.5382 157.653 101.861 149.082 101.861 149.082C101.861 149.082 104.953 144.041 104.953 140.47C104.953 129.021 107.557 120.198 108.68 114.758L108.637 114.779Z" fill="#91A027"/>
<path d="M74.4155 84.6558C74.2884 86.4203 76.6179 89.9704 76.7449 90.3695C78.6932 90.3695 83.5004 90.1174 86.3804 88.1218C90.0652 85.5801 92.0346 81.2108 92.5429 79.5933C92.6064 79.3832 92.6488 79.1731 92.6911 78.9631C91.9499 78.711 91.5264 78.585 91.5264 78.585L82.1239 79.9714C82.1239 79.9714 80.0909 78.0178 77.5073 76.5894L77.105 80.1394C77.105 80.1394 74.5849 82.4081 74.4155 84.6348V84.6558Z" fill="#697512"/>
<path d="M73.2931 83.7104L71.0484 84.6557C71.0484 84.6557 71.599 85.811 73.0602 88.1427C73.9496 89.5502 75.1355 90.1384 75.9191 90.3694C76.0461 90.3694 76.3214 90.3694 76.7238 90.3694C76.5967 89.9703 75.3896 84.6347 75.5167 82.8702C75.6861 80.6435 77.0838 80.1603 77.0838 80.1603L77.7614 74.2786C77.7614 74.2786 75.4108 71.8418 73.1661 75.1608C70.9425 78.4798 73.2931 83.7104 73.2931 83.7104Z" fill="#ABBA27"/>
<path d="M76.7873 90.5374L76.0249 90.3904C76.4908 90.5164 76.7873 90.5374 76.7873 90.5374Z" fill="#ABBA27"/>
<path d="M86.3804 88.1429C83.5004 90.1175 78.6932 90.3696 76.745 90.3906C76.3426 90.3906 76.0673 90.3906 75.9402 90.3906C76.025 90.4116 76.7873 90.5586 76.7873 90.5586L88.9428 92.8273L88.4558 90.1805L91.7594 92.0711C91.7594 92.0711 93.75 90.9367 95.0841 90.0545C96.4183 89.1722 97.6465 83.8366 97.2018 81.5049C97.1383 81.1688 96.99 80.8537 96.7995 80.5176C95.5924 78.48 92.2888 76.5264 92.2888 76.5264C92.2888 76.5264 92.8606 77.6607 92.67 79.0051C92.6488 79.2152 92.6064 79.4252 92.5217 79.6353C92.0135 81.2528 90.044 85.6221 86.3593 88.1639L86.3804 88.1429Z" fill="#ABBA27"/>
<path d="M72.3825 74.5097C72.3825 74.5097 73.759 79.8243 76.0038 83.7105C76.2155 84.0886 76.4273 84.4457 76.6391 84.8028C78.4391 87.9538 82.4627 89.0461 85.6604 87.2816C87.5875 86.2102 89.5146 85.0339 90.7005 84.0676C93.7076 81.5888 94.0253 81.2527 94.0253 80.7066V79.3832C94.0253 79.3832 90.8911 74.6147 90.5523 74.5097C90.2134 74.4047 83.2039 69.6362 83.2039 69.6362L72.4037 74.5097H72.3825Z" fill="#EEBAA6"/>
<path d="M76.3214 57.8517C75.9826 57.7887 74.9661 51.2767 74.9661 51.2767C74.9661 51.2767 79.7097 43.7354 86.6769 47.2435C93.6441 50.7516 100.823 61.8429 99.8912 65.498C98.9595 69.1531 94.5335 72.6192 93.0723 73.6905C91.6111 74.7618 92.5852 77.3036 92.5852 77.3036C92.5852 77.3036 87.2487 75.392 85.7663 72.7452C84.2839 70.0984 76.3214 57.8517 76.3214 57.8517Z" fill="#202020"/>
<path d="M74.9661 51.2766C74.6061 51.3186 73.2931 52.8731 73.0602 54.0705C72.8272 55.2678 72.7213 55.814 72.7213 55.814C72.7213 55.814 69.7566 57.6205 68.9942 58.0407C68.2318 58.4608 65.8812 59.3851 67.0248 60.6035L68.1471 61.8218C68.1471 61.8218 68.0201 62.473 67.8295 63.4603C67.6389 64.4476 68.2742 64.9938 68.2742 64.9938C68.2742 64.9938 67.1518 64.6367 67.1095 65.3929C67.0671 66.1491 66.9401 66.8003 66.9401 66.8003C66.9401 66.8003 65.013 67.9137 66.1142 69.9093C66.5589 70.7285 67.5542 71.6108 68.8248 72.451C70.7095 73.6904 73.1872 74.8037 75.3896 75.2869C76.1096 75.4549 76.9144 75.476 77.7191 75.4129C81.0227 75.1609 84.5804 73.4173 84.5804 73.4173C84.5804 73.4173 88.4769 74.4886 89.7687 73.7324C91.0605 72.9762 93.2629 71.0016 92.5852 69.7412C91.9076 68.4808 89.5993 67.4725 89.5993 67.4725C89.5993 67.4725 83.3945 68.901 82.6109 68.2918C81.8274 67.6826 90.2558 61.1706 86.9098 56.6753C83.5639 52.2009 74.9873 51.2346 74.9873 51.2346L74.9661 51.2766Z" fill="#FDD6C5"/>
<path d="M76.4484 48.1676C76.4484 48.1676 67.3848 46.172 68.8036 47.5795C70.2225 48.9659 76.3637 55.5829 79.4344 57.0953C82.4839 58.6078 89.2393 63.7123 89.2393 63.7123C89.2393 63.7123 99.5736 74.2785 101.84 74.0685C104.105 73.8584 103.131 62.494 94.7453 58.3977C86.3592 54.3015 76.4696 48.1466 76.4696 48.1466L76.4484 48.1676Z" fill="#ABBA27"/>
<path d="M99.9336 46.9913C99.9336 46.9913 93.2841 41.8868 87.3546 41.9918C81.4039 42.0969 76.4485 48.1677 76.4485 48.1677C76.4485 48.1677 89.1546 56.8013 93.2629 60.9606C97.3712 65.1198 98.7901 67.6616 101.056 66.6113C103.301 65.561 109.061 54.7847 99.9548 46.9703L99.9336 46.9913Z" fill="#697512"/>
<path d="M100.357 97.0284C100.357 97.0284 96.1006 105.683 100.357 114.002C104.614 122.32 108.404 136.289 108.404 136.289C108.404 136.289 103.258 172.693 102.877 173.26C102.496 173.807 110.077 174.668 109.887 178.218C109.696 181.768 124.456 146.982 122.72 136.352C121.026 126.059 120.75 95.81 113.148 90.3694C105.545 84.9288 100.357 97.0074 100.357 97.0074V97.0284Z" fill="#697512"/>
<path d="M108.298 173.702C108.298 173.702 104.381 172.399 102.877 173.26C101.374 174.122 98.4724 177.588 98.4724 177.588L94.8723 185.024C94.8723 185.024 94.9782 187.566 94.8723 188.238C94.7665 188.91 96.1006 191.116 96.1006 192.124C96.1006 193.132 97.1171 193.784 98.0065 193.132C98.8959 192.46 99.023 190.696 98.4724 189.919C97.9218 189.141 98.1971 185.36 99.8701 184.688C101.543 184.016 101.585 186.011 101.585 186.011V194.099L99.8066 195.338C99.8066 195.338 97.6889 196.557 96.9265 196.998C96.1641 197.439 95.8465 199.434 97.4983 199.203C99.1501 198.972 100.484 198.972 100.484 198.972L104.508 195.863C104.508 195.863 106.414 192.775 107.197 192.649C107.981 192.523 108.531 190.654 109.548 189.54C110.564 188.427 110.564 184.877 110.564 183.449C110.564 182.02 111.242 175.361 108.32 173.681L108.298 173.702Z" fill="#EEBAA6"/>
<path d="M196.818 301.483L187.945 309.235C187.945 309.235 177.483 313.898 176.594 318.33C175.704 322.763 182.82 325.809 187.945 324.695C193.091 323.582 198.364 316.335 202.387 314.549C206.411 312.785 211.049 312.302 211.875 309.655C212.679 307.008 209.333 299.236 209.333 299.236L196.839 301.462L196.818 301.483Z" fill="#737373"/>
<path d="M196.818 298.815L187.945 306.567C187.945 306.567 177.483 311.23 176.594 315.662C175.704 320.095 182.82 323.141 187.945 322.027C193.091 320.914 198.364 313.667 202.387 311.881C206.411 310.117 211.049 309.634 211.875 306.987C212.679 304.34 209.333 296.568 209.333 296.568L196.839 298.794L196.818 298.815Z" fill="#202020"/>
<path d="M192.477 177.672C192.477 177.672 193.175 169.689 187.945 183.217C182.693 196.746 174.434 241.132 177.102 243.779C179.792 246.447 192.095 287.703 193.874 292.597C195.653 297.471 195.653 299.467 195.653 299.467C195.653 299.467 203.128 304.34 207.343 300.79C211.536 297.24 211.536 293.921 211.536 293.018C211.536 292.114 211.409 265.499 207.343 257.958C203.256 250.417 199.91 243.989 199.91 243.989C199.91 243.989 211.536 192.964 213.95 189.624C216.364 186.305 192.477 177.651 192.477 177.651V177.672Z" fill="#546003"/>
<path d="M216.766 310.348C216.766 310.348 215.136 321.88 213.378 322.553C211.62 323.225 207.131 332.867 209.376 335.703C211.62 338.538 215.983 339.421 220.409 337.656C224.835 335.892 229.07 327.888 229.303 322.343C229.536 316.797 230.553 311.125 229.536 308.814C228.52 306.504 223.416 304.739 223.712 304.34C224.03 303.941 216.766 310.369 216.766 310.369V310.348Z" fill="#737373"/>
<path d="M216.766 308.121C216.766 308.121 215.136 319.654 213.378 320.326C211.62 320.998 207.131 330.64 209.376 333.476C211.62 336.312 215.983 337.194 220.409 335.429C224.835 333.665 229.07 325.661 229.303 320.116C229.536 314.57 230.553 308.898 229.536 306.588C228.52 304.277 223.416 302.512 223.712 302.113C224.03 301.714 216.766 308.142 216.766 308.142V308.121Z" fill="#202020"/>
<path d="M202.366 188.994C202.366 188.994 205.733 256.445 208.19 259.996C210.646 263.546 215.475 284.384 215.962 293.711C216.449 303.038 214.437 311.02 219.795 312.785C225.152 314.549 226.72 312.785 229.197 309.234C231.654 305.684 236.588 280.834 235.466 275.078C234.343 269.301 230.553 262.432 230.764 259.113C230.997 255.794 238.684 203.152 235.614 196.304C232.543 189.456 205.479 178.575 202.345 189.015L202.366 188.994Z" fill="#697512"/>
<path d="M200.926 122.656L202.387 120.03C202.387 120.03 193.387 118.539 190.444 126.857C187.5 135.176 187.182 141.73 186.272 144.944C185.382 148.158 182.015 156.371 182.015 156.371C182.015 156.371 178.881 157.821 175.408 162.358C171.935 166.917 164.904 179.331 164.904 179.331C164.904 179.331 170.368 182.461 170.707 182.65C171.046 182.839 168.716 186.326 174.074 184.877C179.432 183.428 190.952 176.453 194.87 163.472C198.787 150.49 200.905 122.656 200.905 122.656H200.926Z" fill="#697512"/>
<path d="M239.51 159.144C240.633 153.703 247.346 140.511 241.967 133.852C238.727 129.84 232.31 126.731 227.694 124.883C227.884 125.219 228.032 125.555 228.096 125.87C228.541 128.202 227.312 133.516 225.978 134.419C224.644 135.302 222.654 136.436 222.654 136.436L219.35 134.545L219.837 137.192L207.682 134.924C207.682 134.924 207.364 134.924 206.919 134.777H206.771C206.051 134.503 204.865 133.936 203.976 132.508C202.514 130.197 201.964 129.021 201.964 129.021L204.209 128.076C204.209 128.076 201.879 122.845 204.103 119.526C202.768 119.442 201.477 119.82 200.418 120.912C196.055 125.429 187.669 145.616 188.008 149.943C188.347 154.27 191.481 167.147 191.587 168.576C191.693 170.025 190.02 179.121 190.02 179.121C190.02 179.121 195.378 191.998 209.143 193.09C222.908 194.203 232.734 187.776 232.734 187.776C232.734 187.776 231.061 182.671 231.505 179.121C231.95 175.571 238.43 164.585 239.553 159.144H239.51Z" fill="#91A027"/>
<path d="M206.898 134.44C206.898 134.44 200.841 147.359 198.83 157.673C196.775 168.177 197.855 197.291 197.855 197.291L201.074 198.489C201.074 198.489 196.966 165.572 201.477 154.186C204.78 145.868 208.634 134.903 208.634 134.903L207.66 134.945L206.898 134.461V134.44Z" fill="#ABBA27"/>
<path d="M197.898 154.586C196.034 154.165 193.387 153.262 191.566 152.401C189.914 150.531 189.194 149.082 188.368 146.309C188.665 144.65 189.66 143.389 189.956 141.73C193.175 145.553 195.95 148.032 199.486 149.964C199.232 151.498 198.152 153.052 197.898 154.586Z" fill="#ABBA27"/>
<path d="M217.063 165.74C215.157 165.635 213.209 165.32 211.282 164.794C209.354 163.219 207.406 161.391 205.5 159.291C205.5 157.589 205.966 155.51 206.58 154.165C210.392 157.4 214.331 159.69 218.143 161.013C218.143 162.568 217.063 164.185 217.063 165.761V165.74Z" fill="#ABBA27"/>
<path d="M205.289 129.042C205.161 130.807 207.491 134.357 207.618 134.756C209.566 134.756 214.373 134.504 217.253 132.508C220.938 129.966 222.908 125.597 223.416 123.979C223.479 123.769 223.522 123.559 223.564 123.349C222.823 123.097 222.399 122.971 222.399 122.971L212.997 124.358C212.997 124.358 210.964 122.404 208.38 120.976L207.978 124.526C207.978 124.526 205.458 126.794 205.289 129.021V129.042Z" fill="#697512"/>
<path d="M204.166 128.097L201.921 129.042C201.921 129.042 202.472 130.197 203.933 132.529C204.823 133.936 206.009 134.525 206.792 134.756C206.919 134.756 207.194 134.756 207.597 134.756C207.47 134.357 206.263 129.021 206.39 127.256C206.559 125.03 207.957 124.547 207.957 124.547L208.634 118.665C208.634 118.665 206.284 116.228 204.039 119.547C201.816 122.866 204.145 128.097 204.145 128.097H204.166Z" fill="#ABBA27"/>
<path d="M207.66 134.924L206.898 134.777C207.364 134.903 207.66 134.924 207.66 134.924Z" fill="#ABBA27"/>
<path d="M190.634 175.34C190.634 175.34 189.173 182.167 201.583 184.877C214.013 187.587 219.943 186.809 223.119 185.99C226.889 185.003 231.378 180.738 231.378 180.738L231.908 184.877C231.908 184.877 231.95 193.342 209.651 191.242C194.827 189.855 188.876 180.823 188.876 180.823L190.613 175.34H190.634Z" fill="#202020"/>
<path d="M196.521 183.679L196.246 187.692C196.204 188.322 196.606 188.91 197.241 189.099C198.639 189.498 200.947 190.149 201.456 190.086C202.176 190.002 201.773 189.498 201.773 189.498L198.597 188.532C198.004 188.343 197.601 187.797 197.622 187.188L197.665 185.213C197.665 184.562 198.3 184.1 198.935 184.247C200.248 184.562 202.112 184.982 202.006 184.961C201.837 184.919 202.747 183.869 201.307 183.427C200.397 183.154 198.766 182.881 197.686 182.734C197.093 182.65 196.564 183.091 196.521 183.679Z" fill="#91A027"/>
<path d="M195.759 185.045L199.063 186.431V186.935L195.759 185.591V185.045Z" fill="#ABBA27"/>
<path d="M203.234 118.875C203.234 118.875 204.611 124.19 206.856 128.076C207.067 128.454 207.279 128.811 207.491 129.168C209.291 132.319 213.315 133.411 216.512 131.647C218.439 130.575 220.599 129.63 221.552 128.433C222.632 127.067 224.877 125.618 224.877 125.072V123.748C224.877 123.748 221.743 118.98 221.404 118.875C221.065 118.77 214.056 114.001 214.056 114.001L203.256 118.875H203.234Z" fill="#EEBAA6"/>
<path d="M204.95 103.582C204.611 103.582 202.387 97.3644 202.387 97.3644C202.387 97.3644 205.606 89.0669 213.124 91.2306C220.621 93.3732 229.79 102.931 229.578 106.691C229.345 110.472 225.661 114.674 224.432 116.018C223.204 117.341 223.204 120.892 223.204 120.892C223.204 120.892 217.952 121.333 215.983 119.001C214.013 116.669 204.971 103.582 204.971 103.582H204.95Z" fill="#202020"/>
<path d="M202.366 97.3644C202.027 97.4694 201.032 99.255 201.032 100.473V102.238C201.032 102.238 198.47 104.57 197.792 105.116C197.114 105.662 194.997 107.006 196.331 108.015L197.665 109.002V110.661C197.665 111.67 198.406 112.069 198.406 112.069C198.406 112.069 197.22 111.943 197.347 112.678C197.453 113.413 197.453 114.085 197.453 114.085C197.453 114.085 195.78 115.535 197.22 117.299C197.813 118.014 198.957 118.707 200.354 119.295C202.43 120.156 205.098 120.786 207.343 120.849C208.084 120.87 208.867 120.744 209.651 120.534C212.849 119.652 216.004 117.299 216.004 117.299C216.004 117.299 220.028 117.636 221.15 116.627C222.272 115.619 224.051 113.308 223.162 112.195C222.272 111.082 219.816 110.535 219.816 110.535C219.816 110.535 213.992 113.077 213.103 112.636C212.213 112.195 219.244 104.212 215.115 100.431C210.985 96.6502 202.366 97.3224 202.366 97.3224V97.3644Z" fill="#FDD6C5"/>
<path d="M203.234 94.0454C203.234 94.0454 193.959 93.7933 195.611 94.8857C197.284 95.978 204.569 101.335 207.851 102.259C211.133 103.183 218.736 106.922 218.736 106.922C218.736 106.922 230.891 115.367 233.073 114.758C235.254 114.127 232.141 103.162 223.119 100.704C214.098 98.2467 203.213 94.0664 203.213 94.0664L203.234 94.0454Z" fill="#ABBA27"/>
<path d="M226.084 88.4998C226.084 88.4998 218.588 84.7186 212.785 85.958C206.962 87.1764 203.256 94.0664 203.256 94.0664C203.256 94.0664 217.381 100.158 222.188 103.498C226.995 106.838 228.901 109.044 230.913 107.595C232.924 106.145 236.546 94.4866 226.105 88.5208L226.084 88.4998Z" fill="#697512"/>
<path d="M231.23 141.394C231.23 141.394 226.974 150.048 231.23 158.367C235.487 166.685 239.277 180.655 239.277 180.655C239.277 180.655 214.416 190.296 214.035 190.864C213.653 191.41 214.606 194.183 214.416 197.733C214.225 201.283 246.986 196.745 251.242 187.187C255.499 177.651 251.624 140.175 244.021 134.735C236.419 129.294 231.23 141.373 231.23 141.373V141.394Z" fill="#697512"/>
<path d="M218.63 203.573L175.514 184.205L135.426 152.59L176.869 171.454L218.63 203.573Z" fill="#5FAAB6"/>
<path d="M216.83 206.682C215.686 207.753 214.119 208.026 211.938 206.555L171.046 175.109L175.98 171.412L216.364 202.48C218.333 203.972 218.905 204.749 216.83 206.661V206.682Z" fill="#91A027"/>
<path d="M174.857 170.383C178.457 170.383 173.163 174.626 171.046 175.13C168.928 175.613 171.257 170.383 174.857 170.383Z" fill="#FAFAFA"/>
<path d="M176.573 188.091C175.429 189.162 173.862 189.435 171.681 187.965L130.788 156.518L135.723 152.821L176.107 183.89C178.076 185.381 178.648 186.158 176.573 188.07V188.091Z" fill="#4998A3"/>
<path d="M134.579 151.771C138.179 151.771 132.885 156.014 130.767 156.518C128.649 157.002 130.979 151.771 134.579 151.771Z" fill="#91A027"/>
<path d="M215.75 190.318C215.199 189.876 213.696 188.427 212.404 188.091C211.112 187.755 205.585 185.948 205.585 185.948C205.585 185.948 202.472 186.137 201.604 186.368C200.757 186.599 196.67 184.751 195.865 185.234C195.039 185.717 195.335 186.41 196.098 186.83C196.86 187.251 200.672 190.444 200.672 190.444L203.107 191.053C203.107 191.053 201.879 193.594 201.561 193.7C201.244 193.784 196.585 194.624 196.585 194.624C196.585 194.624 194.361 193.826 194.001 194.54C193.641 195.254 195.124 196.682 195.124 196.682C195.124 196.682 195.039 197.775 196.013 198.132C196.987 198.489 197.22 198.72 197.22 198.72C197.22 198.72 197.22 199.875 197.919 200.338C198.618 200.8 199.783 201.388 199.783 201.388C199.783 201.388 200.143 202.228 203.891 202.438C207.639 202.648 209.609 199.308 211.091 198.426C212.595 197.544 213.759 198.426 215.072 198.468C216.385 198.51 218.693 192.691 215.729 190.339L215.75 190.318Z" fill="#EEBAA6"/>
<path d="M155.438 175.34C155.438 175.34 153.066 177.462 156.328 178.764C158.318 179.541 161.749 177.42 161.537 177.546C161.325 177.672 161.135 175.34 158.382 175.34H155.438Z" fill="#EEBAA6"/>
<path d="M164.841 182.314C164.841 182.314 162.892 184.058 165.561 185.108C167.17 185.738 169.966 184.016 169.796 184.121C169.627 184.226 169.457 182.335 167.234 182.335H164.841V182.314Z" fill="#EEBAA6"/>
<path d="M161.601 180.298C161.601 180.298 159.504 182.188 162.384 183.323C164.142 184.016 167.17 182.146 166.98 182.251C166.789 182.356 166.62 180.298 164.205 180.298H161.622H161.601Z" fill="#EEBAA6"/>
<path d="M159.716 179.142C159.716 179.142 157.619 181.033 160.499 182.167C162.257 182.86 165.285 180.991 165.095 181.096C164.904 181.201 164.735 179.142 162.321 179.142H159.737H159.716Z" fill="#EEBAA6"/>
<path d="M217.253 132.508C214.373 134.483 209.566 134.735 207.618 134.756C207.216 134.756 206.94 134.756 206.813 134.756C206.898 134.777 207.66 134.924 207.66 134.924L219.816 137.193L219.329 134.546L222.632 136.436C222.632 136.436 224.623 135.302 225.957 134.42C227.291 133.537 228.52 128.202 228.075 125.87C228.011 125.534 227.863 125.219 227.672 124.883C226.465 122.845 223.162 120.892 223.162 120.892C223.162 120.892 223.734 122.026 223.543 123.37C223.522 123.58 223.479 123.79 223.395 124.001C222.887 125.618 220.917 129.987 217.232 132.529L217.253 132.508Z" fill="#ABBA27"/>
<path d="M55.6105 140.554C55.6105 140.554 58.5541 149.04 70.9849 151.771C83.4157 154.481 89.3452 152.485 92.5218 151.666C96.2912 150.679 102.729 147.444 102.729 147.444V150.952C102.729 150.952 96.4818 158.661 74.1826 156.561C59.3588 155.174 55.3564 146.057 55.3564 146.057L55.5893 140.575L55.6105 140.554Z" fill="#202020"/>
<path d="M65.9024 150.574L65.6271 154.586C65.5848 155.237 65.9871 155.804 66.6224 155.993C68.0201 156.392 70.3284 157.044 70.8366 156.981C71.5567 156.897 71.1543 156.392 71.1543 156.392L67.9778 155.426C67.3848 155.237 66.9824 154.691 67.0036 154.082L67.046 152.107C67.046 151.456 67.6813 150.994 68.3166 151.141C69.6296 151.456 71.4931 151.876 71.3872 151.855C71.2178 151.813 72.1284 150.763 70.6884 150.322C69.7778 150.049 68.1472 149.775 67.0672 149.628C66.4742 149.544 65.9448 149.986 65.9024 150.574Z" fill="#91A027"/>
<path d="M65.1612 151.918L68.4648 153.305L68.4436 153.83L65.1612 152.485V151.918Z" fill="#ABBA27"/>
<path d="M76.5967 90.1174C76.5967 90.1174 70.5613 103.099 68.5495 113.413C66.4954 123.917 68.1895 149.796 68.1895 149.796L70.1801 150.175C70.1801 150.175 68.6766 122.446 73.1872 111.04C76.4908 102.721 79.7309 91.1677 79.7309 91.1677L77.825 91.882L76.5755 90.1174H76.5967Z" fill="#ABBA27"/>
<path d="M65.7542 106.544C63.8906 106.124 61.2435 105.221 59.4223 104.36C57.7705 102.49 57.0505 101.041 56.2246 98.2678C56.5211 96.6083 56.7964 94.9278 57.0928 93.2683C60.3117 97.0915 63.8059 99.9903 67.3424 101.923C67.0883 103.456 66.0083 105.011 65.7542 106.544Z" fill="#ABBA27"/>
<path d="M90.5099 122.446C88.604 122.341 86.6557 122.026 84.7286 121.501C82.8015 119.925 80.8533 118.098 78.9473 115.997C78.9473 114.296 79.4132 112.216 80.0274 110.872C83.8392 114.107 87.7781 116.396 91.5899 117.72C91.5899 119.274 90.5099 120.892 90.5099 122.467V122.446Z" fill="#ABBA27"/>
</g>
<defs>
<clipPath id="clip0_752_89">
<rect width="253" height="344" fill="white" transform="matrix(-1 0 0 1 253 0)"/>
</clipPath>
</defs>
</svg>
