<svg width="107" height="44" viewBox="0 0 107 44" fill="none" xmlns="http://www.w3.org/2000/svg">
<g clip-path="url(#clip0_5_34)">
<path d="M36.2158 29.909C36.1044 30.2956 35.9484 30.9084 35.7524 31.5089C35.0861 33.5466 34.0756 35.4038 32.7376 37.076C30.5618 39.7955 27.8389 41.763 24.5557 42.9417C24.2115 43.0654 23.8516 43.296 23.5107 42.9462C23.172 42.5975 23.4127 42.2543 23.5452 41.9112C24.7741 38.7371 26.5978 35.9519 29.0232 33.5666C30.8581 31.7618 32.9426 30.3068 35.2555 29.1804C35.8604 28.8852 36.2292 29.0802 36.2147 29.9102L36.2158 29.909Z" fill="#91A028"/>
<path d="M36.7105 22.1813C36.7105 22.7216 36.7127 23.2619 36.7105 23.8034C36.7072 24.5654 36.5033 24.8673 35.8092 25.1347C33.2891 26.1062 30.9596 27.413 28.8394 29.0875C24.8688 32.2237 21.9733 36.1531 20.1996 40.898C19.9401 41.5921 19.7262 42.304 19.51 43.0126C19.2872 43.7423 18.9574 44.042 18.2099 43.9963C17.1114 43.9295 16.0084 43.8526 14.9211 43.6855C13.8593 43.5228 13.5596 42.968 13.8348 41.9442C15.3767 36.2044 18.2478 31.2322 22.4668 27.0532C26.0319 23.5215 30.2053 20.9546 34.9569 19.3359C36.051 18.9626 36.7072 19.445 36.7094 20.6104C36.7094 21.134 36.7094 21.6588 36.7094 22.1824L36.7105 22.1813Z" fill="#91A028"/>
<path d="M36.7105 12.5744C36.7105 13.1148 36.7127 13.6562 36.7105 14.1966C36.7071 14.953 36.4487 15.2839 35.7056 15.4945C30.124 17.0698 25.1952 19.8227 20.936 23.7566C16.8674 27.5144 13.8136 31.9786 11.7916 37.138C11.366 38.2242 11.0228 39.3439 10.6775 40.4591C10.3365 41.5609 9.60347 41.874 8.63755 41.2211C7.79864 40.654 6.99984 40.0257 6.20772 39.3962C5.98601 39.2202 5.8189 38.9573 5.67518 38.7055C5.41002 38.242 5.45013 37.783 5.63062 37.265C10.019 24.6813 18.397 15.9379 30.7991 11.0749C32.0413 10.588 33.3403 10.2449 34.6138 9.83711C34.7541 9.79254 34.8967 9.75801 35.0404 9.7257C36.13 9.47503 36.7116 9.93626 36.7127 11.0515C36.7127 11.5595 36.7127 12.0675 36.7127 12.5755L36.7105 12.5744Z" fill="#91A028"/>
<path d="M36.7105 3.18506C36.7105 3.7254 36.7138 4.26573 36.7105 4.80718C36.7049 5.51574 36.4008 5.89676 35.7045 6.0494C31.9622 6.87494 28.3737 8.13498 24.9668 9.89079C16.3594 14.326 9.78175 20.8256 5.27079 29.3997C4.59453 30.6853 4.02969 32.0301 3.43476 33.3569C3.26208 33.7424 3.06711 34.0499 2.60365 34.0744C2.10565 34.1 1.88729 33.7825 1.70903 33.3814C0.87569 31.5087 0.20612 29.5857 0.178268 27.5157C0.170469 26.9776 0.363207 26.3827 0.626133 25.9014C4.52769 18.7456 9.84191 12.8543 16.5443 8.22745C21.5533 4.7693 27.0123 2.29044 32.9204 0.815385C33.6779 0.62599 34.4389 0.454419 35.202 0.290647C36.1022 0.0967952 36.6982 0.583654 36.7105 1.51504C36.7172 2.07208 36.7116 2.62913 36.7116 3.18618L36.7105 3.18506Z" fill="#91A028"/>
<path d="M0.0378662 14.413C0.0378662 13.4794 0.0523494 12.5458 0.0334098 11.6133C0.0178125 10.8424 0.357611 10.2185 0.842242 9.68261C3.97284 6.22112 7.4633 3.16405 11.3337 0.557069C11.8294 0.222841 12.5213 0.0479283 13.1285 0.0334451C15.6151 -0.0244877 18.104 0.0111633 20.5918 0.00782098C20.994 0.00782098 21.3694 0.0546129 21.4719 0.522532C21.5711 0.975968 21.3973 1.28123 20.9572 1.50293C15.2263 4.37729 10.146 8.14182 5.77322 12.8288C4.24691 14.4643 2.88437 16.2535 1.45611 17.9793C1.01604 18.5118 0.547007 18.6043 0.207208 18.1464C0.0746312 17.9681 0.0278393 17.6929 0.023383 17.4601C0.00444337 16.4452 0.0155843 15.4291 0.0155843 14.4142H0.0378662V14.413Z" fill="#91A028"/>
<path d="M2.76964 0.00876564C3.40802 0.00876564 4.04862 -0.0202008 4.68365 0.0243629C4.90981 0.0399603 5.23402 0.180336 5.31646 0.355249C5.44904 0.637114 5.40781 0.963543 5.10255 1.22981C3.83249 2.33722 2.58359 3.46691 1.33246 4.59549C1.06953 4.83279 0.788783 4.97205 0.4423 4.83613C0.0802201 4.69576 0.0133745 4.38047 0.0133745 4.03176C0.0111463 2.98339 -0.00222283 1.93503 5.36098e-06 0.886671C0.00223355 0.242725 0.24622 0.0143361 0.904649 0.00987974C1.52631 0.00542336 2.14909 0.00987974 2.77076 0.00987974L2.76964 0.00876564Z" fill="#91A028"/>
<path d="M51.6327 18.8282C51.6327 16.9275 51.6327 15.028 51.6327 13.1273C51.6327 12.1781 51.8432 11.9642 52.7724 11.9631C53.4275 11.9631 54.0826 11.962 54.7365 11.9631C55.4796 11.9653 55.7726 12.2561 55.7738 13.007C55.7771 16.7259 55.7225 20.4447 55.7972 24.1624C55.8417 26.3561 57.075 27.6462 59.2876 27.6852C60.7515 27.7108 62.0127 27.2897 62.6076 25.8547C62.9028 25.1417 63.0187 24.3095 63.0276 23.5285C63.0711 20.0403 63.0466 16.5509 63.0466 13.0616C63.0466 12.2093 63.2961 11.9631 64.1629 11.9631C64.867 11.9631 65.5711 11.9575 66.2752 11.9642C66.888 11.9709 67.1732 12.255 67.1732 12.8744C67.1765 16.5766 67.2077 20.2787 67.1598 23.9808C67.1386 25.6007 66.8657 27.1928 65.8585 28.552C64.7155 30.095 63.1123 30.8258 61.2729 31.111C60.571 31.2202 59.8502 31.3472 59.1495 31.3015C57.0371 31.1656 55.0095 30.7412 53.4475 29.1279C52.4627 28.1108 51.9279 26.8619 51.7797 25.4893C51.6416 24.2115 51.6639 22.9158 51.6371 21.6279C51.6171 20.6943 51.6338 19.7607 51.6338 18.827L51.6327 18.8282Z" fill="#757A5A"/>
<path d="M75.2604 23.9529C75.2559 25.9516 75.2526 27.9503 75.2481 29.949C75.2459 30.7311 75.013 30.9617 74.2198 30.9661C73.5157 30.9695 72.8116 30.9895 72.1086 30.9717C71.4491 30.955 71.1895 30.6776 71.1895 30.0281C71.1872 24.3261 71.1872 18.6242 71.1895 12.9212C71.1895 12.2371 71.4658 11.9664 72.1387 11.9619C72.8751 11.9586 73.6126 11.9553 74.349 11.9619C74.9607 11.9686 75.2425 12.2538 75.247 12.871C75.257 14.7215 75.2615 16.5732 75.2693 18.4248C75.2749 18.4471 75.2793 18.4705 75.2849 18.4928C75.2983 18.4727 75.3105 18.4515 75.3239 18.4315C76.3967 17.2884 77.473 16.1476 78.5425 15.0012C79.29 14.199 80.0354 13.3947 80.7696 12.5803C81.1562 12.1513 81.6074 11.9363 82.1945 11.9553C82.9799 11.9798 83.7665 11.9731 84.5519 11.9553C84.9274 11.9475 85.2783 12.0199 85.4142 12.3775C85.5446 12.7195 85.4521 13.0515 85.1713 13.359C82.9565 15.7911 80.7584 18.2399 78.557 20.6842C78.45 20.8034 78.352 20.9315 78.2272 21.083C79.1686 22.1548 80.0944 23.2121 81.0225 24.266C82.5811 26.034 84.1341 27.8077 85.7072 29.5624C86.0036 29.8933 86.0637 30.2854 85.8833 30.5896C85.754 30.8057 85.3529 30.9494 85.0655 30.9639C84.2333 31.0074 83.3955 30.9439 82.5621 30.9717C81.985 30.9907 81.5684 30.7701 81.194 30.3523C79.5006 28.4628 77.7938 26.5855 76.0904 24.7061C75.8497 24.4398 75.5968 24.1847 75.3495 23.9251C75.3217 23.9095 75.2949 23.8939 75.2671 23.8772C75.2648 23.9017 75.2615 23.9251 75.2593 23.9496L75.2604 23.9529Z" fill="#757A5A"/>
<path d="M92.8084 19.7741C92.8084 21.492 92.8084 23.21 92.8084 24.9279C92.8084 26.5667 92.8107 28.2045 92.8084 29.8433C92.8073 30.7268 92.5466 30.9875 91.6687 30.9852C91.0471 30.9841 90.4243 30.9819 89.8026 30.9663C89.074 30.9485 88.8556 30.7145 88.8534 29.9692C88.8512 29.1503 88.8534 28.3304 88.8534 27.5115C88.8534 22.7109 88.8534 17.9102 88.8534 13.1096C88.8534 12.1537 89.045 11.9632 90.0043 11.9632C90.5123 11.9632 91.0214 11.9955 91.5261 11.9554C92.2113 11.9008 92.6168 12.2094 92.9288 12.7954C94.4194 15.5963 95.9324 18.386 97.4375 21.179C97.5289 21.3483 97.6224 21.5154 97.7584 21.7594C98.4948 20.3969 99.1911 19.1101 99.8863 17.8211C100.802 16.1221 101.725 14.4265 102.627 12.7208C102.911 12.1838 103.309 11.9231 103.926 11.9554C104.498 11.9855 105.072 11.961 105.645 11.9621C106.397 11.9643 106.679 12.2451 106.68 13.0049C106.682 15.9216 106.68 18.8383 106.68 21.7539C106.68 24.4734 106.68 27.194 106.68 29.9135C106.68 30.7156 106.422 30.9808 105.628 30.9819C104.973 30.983 104.318 30.9719 103.664 30.9652C102.977 30.9574 102.709 30.7201 102.704 30.0171C102.687 27.936 102.693 25.856 102.692 23.7748C102.69 22.4335 102.692 21.091 102.692 19.6438C102.578 19.7964 102.509 19.8666 102.465 19.9513C101.481 21.8174 100.481 23.6757 99.5264 25.5563C99.1811 26.237 98.7287 26.6102 97.9444 26.5044C97.784 26.4832 97.6158 26.4843 97.4542 26.5044C96.7434 26.5913 96.3223 26.2292 96.0137 25.6365C95.1012 23.8807 94.1754 22.1315 93.2541 20.3802C93.1427 20.1674 93.029 19.9568 92.9165 19.7452C92.882 19.7552 92.8463 19.7652 92.8118 19.7741H92.8084Z" fill="#757A5A"/>
</g>
<defs>
<clipPath id="clip0_5_34">
<rect width="106.68" height="44" fill="white"/>
</clipPath>
</defs>
</svg>
