<svg width="511" height="459" viewBox="0 0 511 459" fill="none" xmlns="http://www.w3.org/2000/svg">
<g clip-path="url(#clip0_743_2588)">
<path d="M103.417 0.604362C101.808 -0.302057 99.5947 -0.201343 97.1803 1.259L15.3921 48.4935L42.0512 63.9026L123.839 16.6177C126.304 15.2078 128.517 15.0567 130.077 15.9631C130.077 15.9631 105.027 1.46042 103.417 0.554005V0.604362Z" fill="#5E5E5E"/>
<path d="M15.3919 48.4934C3.21921 55.5433 0 118.036 0 149.458L26.6591 164.867C26.6591 133.495 29.8783 70.9524 42.051 63.9025L15.3919 48.4934Z" fill="#464645"/>
<path d="M0 149.458V238.942L26.6591 254.351V164.867L0 149.458Z" fill="#2F2F2F"/>
<path d="M206.08 235.417L100.047 296.701V207.217C100.047 175.845 103.267 113.302 115.439 106.252L197.227 58.9675C199.692 57.5575 201.905 57.4064 203.465 58.3129C205.074 59.2193 206.08 61.2335 206.08 64.0535V235.417Z" fill="#546003"/>
<path d="M130.126 16.0134C128.517 15.107 126.304 15.2077 123.889 16.6681L42.0508 63.9025L115.389 106.303L197.177 59.0179C199.641 57.6079 201.855 57.4569 203.414 58.3633C203.414 58.3633 131.686 16.8695 130.076 15.9631L130.126 16.0134Z" fill="#ABBA27"/>
<path d="M42.051 63.9025C29.8784 70.9524 26.6592 133.445 26.6592 164.867V254.351L99.9969 296.751V207.268C99.9969 175.895 103.216 113.353 115.389 106.303L42.051 63.9025Z" fill="#91A027"/>
<path d="M444.101 372.991L135.106 194.427V276.558L186.714 306.369V288.946L199.893 281.342L379.364 385.077L392.543 407.938V425.311L444.101 455.123V372.991Z" fill="#91A027"/>
<path d="M199.893 281.342L186.714 288.946V306.369L214.933 290.054L199.893 281.342Z" fill="#546003"/>
<path d="M488.616 414.283V422.038L495.356 418.161L488.616 414.283Z" fill="#91A027"/>
<path d="M488.616 422.038V347.359L477.751 353.704V363.222L455.016 376.365V366.847L444.101 373.142V447.77L437.36 451.648V459L495.357 425.513V418.161L488.616 422.038Z" fill="#546003"/>
<path d="M385.803 421.837L437.36 451.648L444.101 447.77L392.543 417.959L385.803 421.837Z" fill="#ABBA27"/>
<path d="M385.803 421.837V429.189L437.36 459V451.648L385.803 421.837Z" fill="#91A027"/>
<path d="M211.865 83.7933L240.737 151.674L491.785 296.751L508.435 255.207L211.865 83.7933Z" fill="#035881"/>
<path d="M214.43 82.333L211.865 83.7933L508.435 255.207L511 253.747L214.43 82.333Z" fill="#026FA9"/>
<path d="M211.865 164.515L240.737 151.674L491.785 296.751L508.435 335.929L211.865 164.515Z" fill="#026FA9"/>
<path d="M508.435 255.207V335.929L511 334.418V253.747L508.435 255.207Z" fill="#035881"/>
<path d="M491.786 296.751L508.435 335.929V255.207L491.786 296.751Z" fill="#004B6E"/>
<path d="M240.737 151.674L211.865 164.515V83.7933L240.737 151.674Z" fill="#036495"/>
<path d="M390.028 258.178C387.865 256.919 387.865 252.891 390.028 249.164C392.191 245.438 395.662 243.424 397.824 244.632C399.987 245.841 399.987 249.92 397.824 253.646C395.662 257.372 392.191 259.387 390.028 258.128V258.178Z" fill="#5E5E5E"/>
<path d="M377.302 241.812C376.095 243.877 376.095 246.093 377.302 246.798L371.115 243.222L363.973 234.108L375.441 235.769L381.628 239.345C380.421 238.64 378.509 239.748 377.302 241.812Z" fill="#BDBDBF"/>
<path d="M397.875 244.682C395.712 243.424 392.241 245.438 390.078 249.215C387.916 252.941 387.916 256.969 390.078 258.228L375.19 249.617C373.027 248.359 373.027 244.33 375.19 240.604C377.352 236.877 380.823 234.863 382.986 236.072L397.875 244.682Z" fill="#DFD9D9"/>
<path d="M378.157 237.079C377.352 237.733 376.547 238.539 375.843 239.546L390.732 248.157C391.436 247.15 392.241 246.344 393.046 245.69L378.157 237.079Z" fill="#F5F5F5"/>
<path opacity="0.6" d="M397.875 244.682C395.712 243.424 392.241 245.438 390.078 249.215C387.916 252.941 387.916 256.969 390.078 258.228L380.773 252.84L381.729 253.394C379.566 252.135 379.566 248.107 381.729 244.38C383.892 240.654 387.362 238.64 389.525 239.848L397.875 244.682Z" fill="#BDBDBF"/>
<path d="M413.568 262.76C410.349 268.3 405.168 271.321 401.999 269.458C398.78 267.595 398.78 261.602 401.999 256.063C405.219 250.524 410.4 247.502 413.568 249.366C416.788 251.229 416.788 257.221 413.568 262.76Z" fill="#4D4D4D"/>
<path d="M413.569 249.416C410.349 247.553 405.169 250.574 402 256.113C398.78 261.653 398.78 267.645 402 269.508L383.338 258.732C380.119 256.869 380.119 250.876 383.338 245.337C386.557 239.798 391.738 236.776 394.907 238.64L413.569 249.416Z" fill="#2F2F2F"/>
<path d="M189.079 98.7996C197.378 103.583 197.378 119.093 189.079 133.495C180.779 147.847 167.349 155.602 159.1 150.818C150.8 146.034 150.8 130.524 159.1 116.122C167.399 101.771 180.829 94.0157 189.079 98.7996Z" fill="#CBD1CD"/>
<path d="M159.049 116.122C167.349 101.771 180.779 94.0158 189.028 98.7996C189.028 98.7996 180.628 93.9654 172.379 89.1815C164.079 84.3976 150.649 92.1526 142.4 106.504C134.1 120.856 134.1 136.416 142.4 141.2C150.699 145.984 159.049 150.818 159.049 150.818C150.75 146.034 150.75 130.524 159.049 116.122Z" fill="#BDBDBF"/>
<path d="M155.126 144.725L158.194 149.106L162.168 151.422L159.1 147.041L155.126 144.725Z" fill="#2F2F2F"/>
<path d="M164.18 140.747L159.1 147.041L162.168 151.422L167.248 145.128L164.18 140.747Z" fill="#464645"/>
<path d="M173.234 136.718L176.302 141.149L171.272 147.444L168.154 143.063L173.234 136.718Z" fill="#464645"/>
<path d="M182.59 132.387L170.568 125.489L155.126 144.725L159.1 147.041L164.18 140.747L168.154 143.063L173.234 136.718L177.208 139.034L182.59 132.387Z" fill="#5E5E5E"/>
<path d="M177.208 139.034L173.234 136.718L176.302 141.149L180.326 143.466L177.208 139.034Z" fill="#2F2F2F"/>
<path d="M168.154 143.063L164.18 140.747L167.248 145.128L171.273 147.444L168.154 143.063Z" fill="#2F2F2F"/>
<path d="M182.59 132.387L185.658 136.768L180.327 143.466L177.208 139.034L182.59 132.387Z" fill="#464645"/>
<path d="M178.817 130.877L181.886 122.92L197.328 124.33L194.26 132.287L178.817 130.877Z" fill="#2F2F2F"/>
<path d="M182.791 133.193L185.859 125.237L196.271 126.194L193.203 134.15L182.791 133.193Z" fill="#2F2F2F"/>
<path d="M192.298 123.877L197.328 124.33L193.354 122.014L177.862 120.604L189.884 127.553L195.215 128.057L191.242 125.74L196.272 126.194L192.298 123.877Z" fill="#464645"/>
<path d="M177.862 120.604L174.793 128.56L186.815 135.51L189.884 127.553L177.862 120.604Z" fill="#5E5E5E"/>
<path d="M186.815 135.51L189.884 127.553L195.216 128.057L192.147 136.013L186.815 135.51Z" fill="#464645"/>
<path d="M176.856 99.7563L170.669 103.332L174.693 105.598L180.83 102.073L176.856 99.7563Z" fill="#5E5E5E"/>
<path d="M180.83 122.669L174.693 126.244V105.598L180.83 102.073V122.669Z" fill="#464645"/>
<path d="M184.854 111.137L178.667 114.662L174.693 112.346L180.83 108.821L184.854 111.137Z" fill="#5E5E5E"/>
<path d="M184.853 124.985L178.667 128.56V114.662L184.853 111.137V124.985Z" fill="#464645"/>
<path d="M182.691 130.877L170.669 123.927V103.332L174.693 105.598V112.345L178.667 114.662V121.41L182.691 123.726V130.877Z" fill="#545454"/>
<path d="M182.691 123.726V130.877L188.828 127.301V120.201L182.691 123.726Z" fill="#464645"/>
<path d="M184.853 117.885L178.667 121.41L182.691 123.726L188.827 120.201L184.853 117.885Z" fill="#5E5E5E"/>
<path d="M168.757 174.989L188.374 163.659V156.156L168.757 167.536V174.989Z" fill="#BDBDBF"/>
<path d="M168.858 184.456L160.709 189.139L455.016 359.344V376.365L477.751 363.222V362.97L168.858 184.456Z" fill="#E4F54E"/>
<path d="M477.751 353.704L168.857 174.939V184.456L477.751 362.97V353.704Z" fill="#91A027"/>
<path d="M497.318 334.871L477.752 346.201L168.757 167.536L188.374 156.156L497.318 334.871Z" fill="#F5F5F5"/>
<path d="M497.318 342.374L477.751 353.704V346.201L497.318 334.871V342.374Z" fill="#BDBDBF"/>
<path d="M168.757 174.989L477.752 353.704V346.201L168.757 167.536V174.989Z" fill="#DFD9D9"/>
<path d="M455.016 359.344L435.399 370.675L126.404 192.009L146.021 180.629L455.016 359.344Z" fill="#F5F5F5"/>
<path d="M455.016 366.847L435.398 378.178V370.675L455.016 359.344V366.847Z" fill="#BDBDBF"/>
<path d="M126.404 199.462L435.399 378.178V370.675L126.404 192.01V199.462Z" fill="#DFD9D9"/>
<path d="M426.646 356.474L396.617 339.151V315.736L426.646 333.058V356.474Z" fill="#91A027"/>
<path d="M442.742 289.047L396.617 315.736L426.646 333.058L472.772 306.42L442.742 289.047Z" fill="#ABBA27"/>
<path d="M384.897 246.747V280.99L404.867 292.572V310.952L434.896 328.274V275.652L384.897 246.747Z" fill="#91A027"/>
<path d="M413.116 301.837C413.116 303.046 412.261 303.549 411.255 302.945C410.198 302.341 409.394 300.88 409.394 299.672C409.394 298.463 410.249 297.96 411.255 298.564C412.311 299.168 413.116 300.629 413.116 301.837Z" fill="#2F2F2F"/>
<path d="M430.419 311.858C430.419 313.067 429.564 313.57 428.558 312.966C427.502 312.362 426.697 310.901 426.697 309.693C426.697 308.484 427.552 307.981 428.558 308.585C429.614 309.189 430.419 310.65 430.419 311.858Z" fill="#2F2F2F"/>
<path d="M413.116 310.801C413.116 312.009 412.261 312.513 411.255 311.909C410.198 311.304 409.394 309.844 409.394 308.635C409.394 307.427 410.249 306.923 411.255 307.528C412.311 308.132 413.116 309.592 413.116 310.801Z" fill="#2F2F2F"/>
<path d="M430.419 320.822C430.419 322.03 429.564 322.534 428.558 321.929C427.502 321.325 426.697 319.865 426.697 318.656C426.697 317.448 427.552 316.944 428.558 317.548C429.614 318.153 430.419 319.613 430.419 320.822Z" fill="#2F2F2F"/>
<path d="M472.772 329.835L426.646 356.474V333.058L472.772 306.42V329.835Z" fill="#546003"/>
<path d="M464.522 292.773L434.896 309.894V275.652L464.522 258.531V292.773Z" fill="#546003"/>
<path d="M455.217 281.04C455.217 284.565 452.752 288.845 449.684 290.608C446.616 292.37 444.151 290.96 444.151 287.435C444.151 283.91 446.616 279.63 449.684 277.867C452.752 276.105 455.217 277.515 455.217 281.04Z" fill="#CBD1CD"/>
<path d="M464.522 311.153L434.896 328.274V309.894L464.522 292.773V311.153Z" fill="#546003"/>
<path d="M414.474 229.626L384.897 246.747L434.896 275.652L464.523 258.531L414.474 229.626Z" fill="#ABBA27"/>
<path d="M428.458 423.499L434.997 427.275V419.722L428.458 423.499Z" fill="#E4F54E"/>
<path d="M434.997 391.522V399.076L423.679 405.622L420.208 411.665V424.254L423.679 426.268L434.997 419.722V427.275L437.461 425.865V390.112L434.997 391.522ZM427.603 419.118C424.987 420.628 422.874 419.42 422.874 416.398C422.874 413.377 424.987 409.701 427.603 408.241C430.218 406.73 432.331 407.939 432.331 410.96C432.331 413.981 430.218 417.657 427.603 419.118Z" fill="#546003"/>
<path d="M430.922 415.643C429.061 418.816 426.093 420.578 424.232 419.521C422.371 418.463 422.371 414.988 424.232 411.816C426.093 408.644 429.061 406.881 430.922 407.939C432.783 408.996 432.783 412.471 430.922 415.643Z" fill="#2F2F2F"/>
<path d="M408.136 404.766V417.355L420.158 424.254V411.665L408.136 404.766Z" fill="#E4F54E"/>
<path d="M411.677 398.702L408.181 404.764L420.204 411.713L423.7 405.651L411.677 398.702Z" fill="#ABBA27"/>
<path d="M422.975 392.177L411.657 398.723L423.629 405.622L434.997 399.076L422.975 392.177Z" fill="#E4F54E"/>
<path d="M434.996 391.522L422.975 384.623V392.177L434.996 399.076V391.522Z" fill="#E4F54E"/>
<path d="M425.439 383.213L422.975 384.623L434.996 391.522L437.411 390.112L425.439 383.213Z" fill="#E4F54E"/>
<path d="M441.273 277.368L439.588 280.29L441.897 281.624L443.582 278.703L441.273 277.368Z" fill="#BDBDBF"/>
<path d="M443.547 278.723L441.233 277.414L458.889 267.242L461.152 268.551L443.547 278.723Z" fill="#DFD9D9"/>
<path d="M441.837 300.075L439.574 298.765V280.335L441.837 281.644V300.075Z" fill="#AEAEB0"/>
<path d="M461.153 268.552L443.497 278.724C442.843 279.882 442.491 280.486 441.837 281.644V300.075C442.491 300.478 442.843 300.679 443.497 301.031L461.153 290.859V268.552Z" fill="#BDBDBF"/>
<path d="M457.334 288.647C460.556 283.059 460.555 277.019 457.332 275.155C454.108 273.292 448.882 276.311 445.66 281.899C442.437 287.487 442.438 293.527 445.662 295.39C448.886 297.254 454.111 294.234 457.334 288.647Z" fill="#313130"/>
<path d="M458.537 289.349C458.889 288.744 459.442 288.392 459.795 288.593C460.147 288.795 460.147 289.449 459.795 290.054C459.442 290.658 458.889 291.011 458.537 290.809C458.185 290.608 458.185 289.953 458.537 289.349Z" fill="#464645"/>
<path d="M462.963 305.11L450.439 297.96L449.936 299.37L462.46 306.47L462.963 305.11Z" fill="#232323"/>
<path d="M463.969 305.211C463.617 305.211 463.265 305.211 462.963 305.11L462.46 306.47L463.466 306.571L463.969 305.211Z" fill="#464645"/>
<path d="M473.929 283.759L475.84 284.867L474.884 285.924C474.884 285.924 474.532 285.421 474.231 285.119C473.979 284.867 473.728 284.666 473.526 284.565L473.929 283.81V283.759Z" fill="#232323"/>
<path d="M476.293 285.824L475.84 284.867L474.884 285.925C475.085 286.227 475.236 286.529 475.337 286.881L476.293 285.824Z" fill="#464645"/>
<path d="M476.846 286.428L465.177 306.671C465.177 306.671 448.879 297.255 445.66 295.392C442.441 293.528 442.441 287.486 445.66 281.896C448.879 276.306 454.11 273.285 457.33 275.148C460.549 277.011 476.846 286.428 476.846 286.428Z" fill="#313130"/>
<path d="M473.375 284.464L460.851 277.313C460.851 277.313 460.951 277.364 461.001 277.414L473.526 284.565C473.526 284.565 473.426 284.514 473.375 284.464Z" fill="#464645"/>
<path d="M460.851 277.313C469.854 282.45 464.422 279.277 473.375 284.464C465.277 279.831 468.949 281.946 460.851 277.313Z" fill="#464645"/>
<path d="M473.375 282.802L472.671 284.112L460.146 276.961L460.851 275.652L461.706 276.055L474.231 283.205L473.375 282.802Z" fill="#30302F"/>
<path d="M474.231 283.205L473.376 282.802L472.671 284.112C472.671 284.112 473.124 284.263 473.325 284.414C473.376 284.414 473.426 284.464 473.476 284.514L474.18 283.205H474.231Z" fill="#464645"/>
<path d="M460.599 303.65L448.074 296.499L447.219 297.708L459.744 304.859L460.599 303.65Z" fill="#2D2D2C"/>
<path d="M461.303 304.355C461.303 304.355 460.8 303.902 460.599 303.65L459.744 304.859L460.448 305.564L461.303 304.355Z" fill="#464645"/>
<path d="M459.744 304.859L447.219 297.708L447.923 298.413L460.448 305.564L459.744 304.859Z" fill="#272726"/>
<path d="M469.905 282.802L457.38 275.652L457.028 277.011L469.603 284.162L469.905 282.802Z" fill="#262625"/>
<path d="M471.011 282.601L458.486 275.45L457.38 275.652L469.905 282.802L471.011 282.601Z" fill="#4F4F4E"/>
<path d="M471.011 282.601L469.905 282.802L469.603 284.162C469.955 284.061 470.358 283.961 470.71 283.961L471.011 282.601Z" fill="#464645"/>
<path d="M458.386 301.434L445.861 294.284L446.113 295.442L458.638 302.593L458.386 301.434Z" fill="#40403F"/>
<path d="M459.442 300.578L446.918 293.428L445.861 294.284L458.386 301.434L459.442 300.578Z" fill="#272726"/>
<path d="M459.694 301.736C459.593 301.384 459.493 300.981 459.443 300.528L458.386 301.384L458.638 302.542L459.644 301.686L459.694 301.736Z" fill="#464645"/>
<path d="M454.613 278.119C463.617 283.256 458.185 280.083 467.138 285.27C458.134 280.134 463.567 283.306 454.613 278.119Z" fill="#464645"/>
<path d="M467.34 285.169L467.239 284.011L466.082 284.817L466.183 285.975C466.535 285.723 466.837 285.471 467.189 285.27C467.239 285.27 467.289 285.22 467.34 285.169Z" fill="#464645"/>
<path d="M467.188 284.011L454.664 276.86L453.507 277.666L466.032 284.817L467.188 284.011Z" fill="#4F4F4E"/>
<path d="M466.032 284.817L453.507 277.666L453.607 278.824L466.182 285.975L466.032 284.817Z" fill="#262625"/>
<path d="M459.694 296.449L447.169 289.349L446.113 289.651L458.638 296.802L459.694 296.449Z" fill="#232323"/>
<path d="M459.694 296.449L458.638 296.801L458.386 298.262L459.443 297.909C459.493 297.456 459.593 296.953 459.694 296.449Z" fill="#464645"/>
<path d="M458.638 296.802L446.113 289.651L445.861 291.111L458.386 298.262L458.638 296.802Z" fill="#40403F"/>
<path d="M463.466 287.284L450.942 280.134L449.936 281.392L462.46 288.543L463.466 287.284Z" fill="#40403F"/>
<path d="M463.969 288.04L463.466 287.284L462.46 288.543L462.963 289.298C463.265 288.845 463.617 288.442 463.969 288.04Z" fill="#464645"/>
<path d="M462.46 288.543L449.936 281.392L450.439 282.148L462.963 289.298L462.46 288.543Z" fill="#262625"/>
<path d="M461.303 292.018L448.778 284.917L447.923 284.666L460.448 291.816L461.303 292.018Z" fill="#262625"/>
<path d="M461.303 292.018L460.448 291.766L459.744 293.276L460.599 293.528C460.8 293.025 461.052 292.521 461.303 292.018Z" fill="#464645"/>
<path d="M460.448 291.816L447.923 284.666L447.219 286.176L459.744 293.277L460.448 291.816Z" fill="#40403F"/>
<path d="M476.846 299.924C480.065 294.334 480.065 288.291 476.846 286.428C473.627 284.565 468.396 287.586 465.177 293.176C461.957 298.765 461.957 304.808 465.177 306.671C468.396 308.535 473.627 305.513 476.846 299.924Z" fill="#464645"/>
<path d="M460.746 288.672L459.061 291.594L461.369 292.929L463.054 290.007L460.746 288.672Z" fill="#BDBDBF"/>
<path d="M463.014 290.003L460.75 288.694L478.355 278.472L480.669 279.831L463.014 290.003Z" fill="#DFD9D9"/>
<path d="M461.353 311.355L459.09 310.045V291.615L461.353 292.924V311.355Z" fill="#AEAEB0"/>
<path d="M480.669 279.831L463.013 290.003C462.36 291.162 462.007 291.766 461.354 292.924V311.355C462.007 311.757 462.36 311.959 463.013 312.311L480.669 302.139V279.831Z" fill="#F5F5F5"/>
<path d="M474.834 298.765C476.947 295.089 476.947 291.111 474.834 289.903C472.722 288.694 469.301 290.658 467.188 294.334C465.076 298.01 465.076 301.988 467.188 303.197C469.301 304.405 472.722 302.441 474.834 298.765Z" fill="#313130"/>
<path d="M464.02 310.196C464.372 309.592 464.372 308.937 464.02 308.736C463.668 308.535 463.114 308.887 462.762 309.491C462.41 310.096 462.41 310.75 462.762 310.952C463.114 311.153 463.668 310.851 464.02 310.196Z" fill="#0170A7"/>
<path d="M464.02 292.521C463.668 293.125 463.114 293.478 462.762 293.277C462.41 293.075 462.41 292.42 462.762 291.816C463.114 291.212 463.668 290.859 464.02 291.061C464.372 291.262 464.372 291.917 464.02 292.521Z" fill="#0170A7"/>
<path d="M478.003 300.629C478.355 300.024 478.908 299.672 479.26 299.873C479.612 300.075 479.612 300.729 479.26 301.334C478.908 301.938 478.355 302.29 478.003 302.089C477.651 301.887 477.651 301.233 478.003 300.629Z" fill="#0170A7"/>
<path d="M478.003 282.953C477.651 283.558 477.651 284.212 478.003 284.414C478.355 284.615 478.908 284.313 479.26 283.658C479.612 283.054 479.612 282.399 479.26 282.198C478.908 281.997 478.355 282.299 478.003 282.953Z" fill="#0170A7"/>
<path d="M459.09 308.786L443.246 299.621C442.893 299.42 442.893 298.765 443.246 298.161C443.598 297.557 444.151 297.204 444.503 297.406L459.04 305.815V308.736L459.09 308.786Z" fill="#0170A7"/>
<path d="M459.291 291.212L443.246 281.946C442.893 281.745 442.893 281.09 443.246 280.486C443.598 279.882 444.151 279.529 444.503 279.731L460.549 288.996L459.291 291.212Z" fill="#0170A7"/>
<path d="M473.074 281.543L458.537 273.134C458.185 272.933 458.185 272.278 458.537 271.674C458.889 271.069 459.442 270.717 459.795 270.918L475.639 280.083L473.124 281.543H473.074Z" fill="#005B87"/>
<path d="M129.624 241.359C127.209 245.538 123.286 247.805 120.871 246.395C118.457 244.985 118.457 240.452 120.871 236.273C123.286 232.093 127.209 229.827 129.624 231.237C132.038 232.647 132.038 237.179 129.624 241.359Z" fill="#2F2F2F"/>
<path d="M234.047 294.032C234.047 294.032 129.322 233.453 128.618 233.05C126.756 231.993 123.789 233.705 121.928 236.928C120.066 240.1 120.066 243.575 121.928 244.632C122.732 245.085 234.047 309.491 234.047 309.491V294.082V294.032Z" fill="#BDBDBF"/>
<path d="M234.047 302.039V298.765L123.487 234.863C122.934 235.467 122.38 236.172 121.928 236.928C121.928 236.978 121.827 237.079 121.827 237.129L234.047 301.988V302.039Z" fill="#DFD9D9"/>
<path d="M214.027 258.43V334.317L254.066 357.431V281.543L214.027 258.43Z" fill="#464645"/>
<path d="M304.668 206.059L214.027 258.43L254.066 281.543L344.657 229.173L304.668 206.059Z" fill="#5E5E5E"/>
<path d="M236.361 264.221L314.628 219.001L322.324 223.432L244.057 268.652L236.361 264.221Z" fill="#2F2F2F"/>
<path d="M344.657 229.173V246.546L337.364 242.366L275.343 278.17V285.673L281.53 289.147V341.518L254.066 357.431V281.543L344.657 229.173Z" fill="#2F2F2F"/>
<path d="M277.556 319.261C275.695 318.203 272.728 319.915 270.867 323.138C269.005 326.31 269.005 329.785 270.867 330.843C270.867 330.843 377.402 392.429 408.186 410.205V404.766L411.657 398.723L413.317 397.766L277.556 319.311V319.261Z" fill="#BDBDBF"/>
<path d="M409.041 403.205L410.45 400.737L272.476 320.973C271.873 321.577 271.319 322.332 270.867 323.138C270.867 323.138 270.867 323.239 270.816 323.289L409.092 403.205H409.041Z" fill="#DFD9D9"/>
<path d="M237.92 329.533C235.757 325.807 232.286 323.793 230.124 325.052C228.061 326.26 223.132 329.08 223.132 329.08L230.928 342.576C230.928 342.576 235.757 339.756 237.92 338.547C240.083 337.288 240.083 333.26 237.92 329.533Z" fill="#ABA6A6"/>
<path d="M230.928 342.626C228.766 343.885 225.295 341.871 223.132 338.144C220.969 334.418 220.969 330.389 223.132 329.13C225.295 327.872 228.766 329.886 230.928 333.612C233.091 337.339 233.091 341.367 230.928 342.626Z" fill="#BFBABA"/>
<path d="M242.497 342.978L234.852 332.806L231.532 334.72L239.127 344.942L242.497 342.978Z" fill="#ABA6A6"/>
<path d="M237.015 364.733C228.715 369.516 215.285 361.762 207.036 347.41C198.736 333.058 198.736 317.498 207.036 312.714C215.335 307.93 228.765 315.685 237.015 330.037C245.314 344.389 245.314 359.949 237.015 364.733ZM234.298 331.598C227.508 319.815 216.492 313.419 209.702 317.347C202.911 321.275 202.911 334.015 209.702 345.798C216.492 357.582 227.508 363.977 234.298 359.999C241.089 356.071 241.089 343.331 234.298 331.548V331.598Z" fill="#DFD9D9"/>
<path d="M240.385 328.123C232.085 313.772 218.655 306.017 210.406 310.801C210.054 311.002 207.136 312.714 207.086 312.714C215.385 307.93 228.816 315.685 237.065 330.037C245.314 344.388 245.364 359.949 237.065 364.733C237.065 364.733 240.133 362.97 240.385 362.819C248.684 358.035 248.684 342.525 240.385 328.123Z" fill="#F5F5F5"/>
<path d="M209.752 345.849C216.543 357.632 227.558 363.977 234.349 360.049C234.902 359.747 235.455 359.344 235.908 358.891C229.067 360.956 219.309 354.712 213.072 343.885C206.835 333.058 206.332 321.476 211.513 316.592C210.909 316.793 210.305 317.045 209.752 317.347C202.962 321.275 202.962 334.015 209.752 345.798V345.849Z" fill="#BDBDBF"/>
<path d="M225.747 327.569L208.243 323.239L204.923 325.152L222.578 329.533L225.747 327.569Z" fill="#ABA6A6"/>
<path d="M222.578 329.533L204.973 325.102C204.772 326.21 204.671 327.368 204.671 328.627C204.671 329.886 204.772 331.195 204.973 332.504L222.578 336.936C221.924 335.526 221.572 334.015 221.572 332.655C221.572 331.296 221.975 330.238 222.578 329.533Z" fill="#BFBABA"/>
<path d="M239.429 348.82C239.429 347.561 239.328 346.252 239.127 344.942L231.481 334.77C232.135 336.18 232.487 337.691 232.487 339.051C232.487 340.41 232.085 341.468 231.481 342.173L239.127 352.345C239.328 351.237 239.429 350.079 239.429 348.82Z" fill="#BFBABA"/>
<path d="M188.877 341.115C187.821 341.72 186.111 340.763 185.105 338.9C184.048 337.087 184.048 335.123 185.105 334.519C186.161 333.914 187.871 334.871 188.877 336.734C189.883 338.598 189.934 340.511 188.877 341.115Z" fill="#464645"/>
<path d="M204.872 327.519C203.816 325.706 202.106 324.699 201.1 325.303C200.044 325.908 185.104 334.519 185.104 334.519C186.161 333.914 187.871 334.871 188.877 336.734C189.933 338.547 189.933 340.511 188.877 341.115C189.028 341.015 203.816 332.504 204.872 331.9C205.929 331.296 205.929 329.332 204.872 327.519Z" fill="#5E5E5E"/>
<path d="M47.4329 98.0946C44.1131 116.575 42.6041 141.452 42.2017 160.889L90.1881 188.636C90.6408 169.198 92.0995 144.322 95.4193 125.841L47.4329 98.0946Z" fill="#DFD9D9"/>
<path d="M52.312 146.084V103.634L92.854 127.05C90.6911 139.79 89.4336 154.645 88.7294 167.083L52.312 146.034V146.084Z" fill="#464645"/>
<path d="M55.0786 144.171L88.9307 163.76C89.6852 152.026 90.8924 138.682 92.8541 127.1L55.0283 105.245V144.221L55.0786 144.171Z" fill="#026FA9"/>
<path d="M52.3122 103.634L49.1432 101.771C45.8234 122.266 44.8174 147.847 44.5156 159.58L52.3122 146.084V103.634Z" fill="#2F2F2F"/>
<path d="M52.3122 146.084L44.5156 159.58L87.975 184.708C88.1259 180.075 88.3271 173.982 88.7295 167.133L52.3122 146.084Z" fill="#5E5E5E"/>
<path d="M58.6819 160.418L56.5693 164.081L57.7019 164.736L59.8145 161.072L58.6819 160.418Z" fill="#822E0F"/>
<path d="M55.6653 158.749L53.5527 162.413L56.5585 164.15L58.6711 160.487L55.6653 158.749Z" fill="white"/>
<path d="M59.14 152.675L57.0273 156.339L60.0331 158.076L62.1457 154.413L59.14 152.675Z" fill="white"/>
<path d="M62.1312 154.387L60.0186 158.05L61.1511 158.705L63.2638 155.042L62.1312 154.387Z" fill="#822E0F"/>
<path d="M66.5696 165.02L64.457 168.683L65.5896 169.338L67.7022 165.675L66.5696 165.02Z" fill="#822E0F"/>
<path d="M63.5779 163.308L61.4653 166.972L64.4711 168.709L66.5837 165.046L63.5779 163.308Z" fill="white"/>
<path d="M67.0526 157.234L64.9399 160.898L67.9457 162.635L70.0583 158.972L67.0526 157.234Z" fill="white"/>
<path d="M70.0438 158.946L67.9312 162.609L69.0637 163.264L71.1764 159.601L70.0438 158.946Z" fill="#822E0F"/>
<path d="M74.72 169.72L72.6074 173.384L73.74 174.038L75.8526 170.375L74.72 169.72Z" fill="#822E0F"/>
<path d="M71.7288 167.958L69.6162 171.622L72.6219 173.359L74.7346 169.696L71.7288 167.958Z" fill="white"/>
<path d="M78.1697 163.69L76.0571 167.353L77.1897 168.008L79.3023 164.345L78.1697 163.69Z" fill="#822E0F"/>
<path d="M75.178 161.928L73.0654 165.591L76.0712 167.328L78.1838 163.665L75.178 161.928Z" fill="white"/>
<path d="M82.0945 173.953L79.9819 177.617L81.1145 178.271L83.2271 174.608L82.0945 173.953Z" fill="#822E0F"/>
<path d="M79.1033 172.242L76.9907 175.905L79.9964 177.642L82.1091 173.979L79.1033 172.242Z" fill="white"/>
<path d="M85.5443 167.923L83.4316 171.586L84.5642 172.241L86.6768 168.578L85.5443 167.923Z" fill="#822E0F"/>
<path d="M82.5526 166.211L80.4399 169.874L83.4457 171.612L85.5583 167.948L82.5526 166.211Z" fill="white"/>
<path d="M92.502 129.366C92.6026 128.56 92.7535 127.805 92.9044 127.05L55.0786 105.195V144.171L88.9307 163.76C88.9307 163.76 88.9307 163.256 88.9307 163.055L55.6822 143.869V108.216L92.4014 129.467L92.502 129.366Z" fill="#035881"/>
<path d="M246.672 126.093L249.137 123.323L230.023 86.9658L184.803 113.101L165.639 171.565L168.154 171.464L186.564 115.266L228.262 91.1454L246.672 126.093Z" fill="#E4F54E"/>
<path d="M184.803 113.101L165.689 171.565L115.69 142.66L134.805 84.1962L184.803 113.101ZM163.476 165.875L180.175 114.914L136.967 89.9368L120.268 140.898L163.476 165.875Z" fill="#91A027"/>
<path d="M122.783 140.797L139.03 91.095L136.967 89.8865L120.268 140.898L163.475 165.875L163.878 164.565L122.783 140.797Z" fill="#E4F54E"/>
<path d="M180.025 58.0612L134.754 84.1962L184.803 113.101L230.023 86.9658L180.025 58.0612Z" fill="#ABBA27"/>
<path d="M228.262 91.1454L207.237 103.332L246.672 126.093L228.262 91.1454Z" fill="#546003"/>
<path opacity="0.4" d="M163.475 165.875L180.175 114.863L136.967 89.8865L120.268 140.898L163.475 165.875Z" fill="#026FA9"/>
<path d="M127.964 99.001L132.944 83.9444L179.823 56.8022L190.437 62.9457L189.481 63.4997L180.025 58.0612L134.754 84.1962L130.378 97.6414L127.964 99.001Z" fill="#91A027"/>
<path d="M438.316 349.726L452.803 358.086L461.052 353.352V336.583L438.316 349.726Z" fill="#2F2F2F"/>
<path d="M293.2 257.926V272.127L321.519 255.761V241.56L293.2 257.926Z" fill="#2F2F2F"/>
<path d="M227.055 219.655V233.856L293.2 272.127V257.926L227.055 219.655Z" fill="#464645"/>
<path d="M293.2 257.926L227.055 219.655L255.374 203.289L321.519 241.56L293.2 257.926Z" fill="#5E5E5E"/>
<path d="M255.374 231.439V234.41L280.424 219.907V216.936L255.374 231.439Z" fill="#837F7C"/>
<path d="M230.325 216.936V219.907L255.374 234.41V231.439L230.325 216.936Z" fill="#DFD9D9"/>
<path d="M280.424 216.936L255.374 231.439L230.325 216.936L255.374 202.433L280.424 216.936Z" fill="#70726F"/>
<path d="M267.799 205.354C267.799 209.332 262.265 212.505 255.425 212.505C248.584 212.505 243.051 209.282 243.051 205.354C243.051 201.426 248.584 198.203 255.425 198.203C262.265 198.203 267.799 201.426 267.799 205.354Z" fill="#33485D"/>
<path d="M255.425 212.505C248.584 212.505 243.051 209.282 243.051 205.354V216.986C243.051 220.965 248.584 224.137 255.425 224.137C262.265 224.137 267.799 220.914 267.799 216.986V205.354C267.799 209.332 262.265 212.505 255.425 212.505Z" fill="#213141"/>
<path d="M255.374 219.353V222.375L280.424 207.872V204.85L255.374 219.353Z" fill="#837F7C"/>
<path d="M230.325 204.85V207.872L255.374 222.375V219.353L230.325 204.85Z" fill="#DFD9D9"/>
<path d="M280.424 204.851L255.374 219.353L230.325 204.851L255.374 190.398L280.424 204.851Z" fill="#BEBDB9"/>
<path d="M262.215 196.844V199.563C262.215 200.318 263.271 200.923 264.579 200.923C265.887 200.923 266.943 200.318 266.943 199.563V196.844H262.265H262.215Z" fill="#213141"/>
<path d="M264.579 198.203C265.885 198.203 266.943 197.595 266.943 196.844C266.943 196.093 265.885 195.484 264.579 195.484C263.273 195.484 262.215 196.093 262.215 196.844C262.215 197.595 263.273 198.203 264.579 198.203Z" fill="#33485D"/>
<path d="M252.96 191.506V194.225C252.96 194.981 254.016 195.585 255.324 195.585C256.632 195.585 257.688 194.981 257.688 194.225V191.506H253.01H252.96Z" fill="#213141"/>
<path d="M255.324 192.866C256.63 192.866 257.688 192.257 257.688 191.506C257.688 190.755 256.63 190.146 255.324 190.146C254.018 190.146 252.96 190.755 252.96 191.506C252.96 192.257 254.018 192.866 255.324 192.866Z" fill="#33485D"/>
<path d="M243.705 196.844V199.563C243.705 200.318 244.761 200.923 246.069 200.923C247.376 200.923 248.433 200.318 248.433 199.563V196.844H243.755H243.705Z" fill="#213141"/>
<path d="M246.069 198.203C244.761 198.203 243.705 197.599 243.705 196.844C243.705 196.088 244.761 195.484 246.069 195.484C247.376 195.484 248.433 196.088 248.433 196.844C248.433 197.599 247.376 198.203 246.069 198.203Z" fill="#33485D"/>
<path d="M234.449 202.182V204.901C234.449 205.656 235.506 206.261 236.813 206.261C238.121 206.261 239.177 205.656 239.177 204.901V202.182H234.5H234.449Z" fill="#213141"/>
<path d="M236.813 203.541C235.506 203.541 234.449 202.937 234.449 202.182C234.449 201.426 235.506 200.822 236.813 200.822C238.121 200.822 239.177 201.426 239.177 202.182C239.177 202.937 238.121 203.541 236.813 203.541Z" fill="#33485D"/>
<path d="M252.96 212.857V215.576C252.96 216.332 254.016 216.936 255.324 216.936C256.632 216.936 257.688 216.332 257.688 215.576V212.857H253.01H252.96Z" fill="#213141"/>
<path d="M255.324 214.217C254.016 214.217 252.96 213.613 252.96 212.857C252.96 212.102 254.016 211.498 255.324 211.498C256.632 211.498 257.688 212.102 257.688 212.857C257.688 213.613 256.632 214.217 255.324 214.217Z" fill="#33485D"/>
<path d="M262.215 207.519V210.239C262.215 210.994 263.271 211.598 264.579 211.598C265.887 211.598 266.943 210.994 266.943 210.239V207.519H262.265H262.215Z" fill="#213141"/>
<path d="M264.579 208.879C263.271 208.879 262.215 208.275 262.215 207.519C262.215 206.764 263.271 206.16 264.579 206.16C265.887 206.16 266.943 206.764 266.943 207.519C266.943 208.275 265.887 208.879 264.579 208.879Z" fill="#33485D"/>
<path d="M271.47 202.182V204.901C271.47 205.656 272.527 206.261 273.834 206.261C275.142 206.261 276.198 205.656 276.198 204.901V202.182H271.521H271.47Z" fill="#213141"/>
<path d="M273.784 203.541C275.09 203.541 276.148 202.933 276.148 202.182C276.148 201.431 275.09 200.822 273.784 200.822C272.478 200.822 271.42 201.431 271.42 202.182C271.42 202.933 272.478 203.541 273.784 203.541Z" fill="#33485D"/>
<path d="M243.705 207.519V210.239C243.705 210.994 244.761 211.598 246.069 211.598C247.376 211.598 248.433 210.994 248.433 210.239V207.519H243.755H243.705Z" fill="#213141"/>
<path d="M246.069 208.879C244.761 208.879 243.705 208.275 243.705 207.519C243.705 206.764 244.761 206.16 246.069 206.16C247.376 206.16 248.433 206.764 248.433 207.519C248.433 208.275 247.376 208.879 246.069 208.879Z" fill="#33485D"/>
<path d="M268.905 168.845C268.351 167.234 266.038 165.874 263.875 165.824C262.165 165.824 261.008 166.529 260.857 167.587L255.374 194.829L261.108 195.585L268.955 169.853C269.005 169.55 268.955 169.198 268.854 168.845H268.905Z" fill="#213141"/>
<path d="M263.623 197.096C263.623 199.714 259.901 201.879 255.374 201.879C250.847 201.879 247.125 199.764 247.125 197.096C247.125 194.427 250.847 192.312 255.374 192.312C259.901 192.312 263.623 194.427 263.623 197.096Z" fill="#33485D"/>
<path d="M255.374 201.879C250.797 201.879 247.125 199.764 247.125 197.095V204.85C247.125 207.469 250.847 209.634 255.374 209.634C259.901 209.634 263.623 207.519 263.623 204.85V197.095C263.623 199.714 259.901 201.879 255.374 201.879Z" fill="#213141"/>
</g>
<defs>
<clipPath id="clip0_743_2588">
<rect width="511" height="459" fill="white"/>
</clipPath>
</defs>
</svg>
